<?xml version="1.0" encoding="UTF-8" standalone="no"?>
<!-- Created with Inkscape (http://www.inkscape.org/) -->

<svg
   xmlns:dc="http://purl.org/dc/elements/1.1/"
   xmlns:cc="http://creativecommons.org/ns#"
   xmlns:rdf="http://www.w3.org/1999/02/22-rdf-syntax-ns#"
   xmlns:svg="http://www.w3.org/2000/svg"
   xmlns="http://www.w3.org/2000/svg"
   xmlns:sodipodi="http://sodipodi.sourceforge.net/DTD/sodipodi-0.dtd"
   xmlns:inkscape="http://www.inkscape.org/namespaces/inkscape"
   width="480"
   height="480"
   id="svg2"
   version="1.1"
   inkscape:version="0.48.4 r9939"
   sodipodi:docname="Logo2.svg">
  <defs
     id="defs4" />
  <sodipodi:namedview
     id="base"
     pagecolor="#ffffff"
     bordercolor="#666666"
     borderopacity="1.0"
     inkscape:pageopacity="0.0"
     inkscape:pageshadow="2"
     inkscape:zoom="2.8"
     inkscape:cx="375"
     inkscape:cy="162.85714"
     inkscape:document-units="px"
     inkscape:current-layer="layer1"
     showgrid="false"
     width="480px"
     inkscape:window-width="1920"
     inkscape:window-height="1058"
     inkscape:window-x="1912"
     inkscape:window-y="-8"
     inkscape:window-maximized="1" />
  <metadata
     id="metadata7">
    <rdf:RDF>
      <cc:Work
         rdf:about="">
        <dc:format>image/svg+xml</dc:format>
        <dc:type
           rdf:resource="http://purl.org/dc/dcmitype/StillImage" />
        <dc:title></dc:title>
      </cc:Work>
    </rdf:RDF>
  </metadata>
  <g
     inkscape:label="Layer 1"
     inkscape:groupmode="layer"
     id="layer1"
     transform="translate(0,-572.3622)">
    <path
       style="fill:none;stroke:#000000;stroke-width:1px;stroke-linecap:butt;stroke-linejoin:miter;stroke-opacity:1"
       d="M 454.28571,16.428571 453.57143,461.42857 16.428571,460.71429 17.142857,262.85714 C 30.926109,-22.579986 9.8016908,29.165992 454.28571,16.428571 z"
       id="path2995"
       inkscape:connector-curvature="0"
       transform="translate(0,572.3622)"
       sodipodi:nodetypes="ccccc" />
    <path
       style="fill:none;stroke:#000000;stroke-width:1px;stroke-linecap:butt;stroke-linejoin:miter;stroke-opacity:1"
       d="M 430,37.857143 429.28571,429.28571 42.857143,428.57143 44.285715,257.85714 C 45.366139,128.74649 42.687641,72.535059 138.98002,49.566673 235.27239,26.598288 430.0018,36.869584 430,37.857143 z"
       id="path2997"
       inkscape:connector-curvature="0"
       transform="translate(0,572.3622)"
       sodipodi:nodetypes="sccsss" />
    <path
       style="fill:#000000;stroke:#000000;stroke-width:0.71428573"
       d="m 213.04161,460.32144 -195.886948,-0.18115 0.384842,-96.60586 c 0.383275,-96.21249 0.663118,-109.33975 3.53642,-165.89157 2.62812,-51.7262 4.946189,-74.80955 9.719381,-96.78572 C 37.640483,69.341394 50.06946,50.988844 72.304358,39.565129 86.254268,32.398027 105.5106,27.634462 131.8726,24.829344 c 28.18567,-2.999171 52.55491,-3.779827 146.34169,-4.687982 42.42857,-0.410843 99.1282,-1.227158 125.99919,-1.814033 26.87098,-0.586875 48.96463,-0.958746 49.09699,-0.826381 0.13237,0.132365 0.0312,99.941662 -0.2248,221.798432 l -0.46546,221.55776 -21.84582,-0.17728 c -12.0152,-0.0975 -109.99495,-0.2588 -217.73278,-0.35842 l 0,0 z M 430.23869,335.32143 c 0.26125,-52.15179 0.47514,-140.53852 0.4753,-196.41497 l 3e-4,-101.593529 -1.60715,-0.363013 c -8.4489,-1.908392 -93.84426,-3.501475 -137.32143,-2.561782 -77.76454,1.680762 -127.9692,7.021155 -164.4309,17.490922 C 87.428078,63.343791 65.396603,82.621812 54.618285,115.5251 48.134083,135.31961 45.48177,157.14775 44.301103,200.43396 43.706584,222.23054 42.104408,384.30363 42.13449,419.60463 l 0.0084,9.81891 98.75,0.18362 c 54.3125,0.101 141.52718,0.26284 193.81041,0.35966 l 95.06042,0.17604 0.475,-94.82143 z"
       id="path2999"
       inkscape:connector-curvature="0"
       transform="translate(0,572.3622)" />
    <path
       style="fill:none;stroke:#000000;stroke-width:1px;stroke-linecap:butt;stroke-linejoin:miter;stroke-opacity:1"
       d="m 403.57143,70 0.71428,341.42857 -341.428567,0 c 0,0 0.747593,-15.23445 0.714286,-22.85714 -0.02603,-5.95708 -0.724629,-11.90001 -0.714287,-17.85714 0.0095,-5.48136 0.693042,-10.94725 0.714287,-16.42857 0.02585,-6.67087 -0.59522,-13.33015 -0.714286,-20.00001 -0.135989,-7.61783 -0.930916,-15.29518 4e-6,-22.85714 1.679249,-13.64071 5.046315,-27.18009 9.999994,-40 3.993048,-10.33383 9.378174,-20.19803 15.714292,-29.28571 8.006522,-11.4835 17.186477,-22.367 27.857137,-31.42858 9.86886,-8.38069 21.20117,-15.0779 32.85714,-20.71428 12.27046,-5.93353 25.15981,-11.14255 38.57143,-13.57143 11.71655,-2.12189 23.87433,-1.97739 35.71429,-0.71428 9.24546,0.98632 18.53614,2.91066 27.14286,6.42857 12.35984,5.05195 23.41152,12.96574 34.28571,20.71428 7.57219,5.39567 15.32489,10.84313 21.42857,17.85714 6.80934,7.82492 16.42857,26.42858 16.42857,26.42858 17.07692,3.49726 9.48271,2.60845 27.14286,4.28571 l 15,0.71428 -1.42857,-156.428565 -15,0 0,-25.714285 z"
       id="path3001"
       inkscape:connector-curvature="0"
       transform="translate(0,572.3622)"
       sodipodi:nodetypes="cccaaaaaaaaaaaaaaccccccc" />
    <path
       style="fill:none;stroke:#000000;stroke-width:1px;stroke-linecap:butt;stroke-linejoin:miter;stroke-opacity:1"
       d="m 117.14286,393.57143 172.14285,0.71428 c 0,0 5.8612,-52.68234 -6.42857,-74.28571 -16.95692,-29.80743 -49.28376,-60.61304 -83.57143,-60 -31.90322,0.5704 -60.44636,30.55302 -75.71428,58.57143 -12.0062,22.03277 -6.42857,75 -6.42857,75 z"
       id="path3003"
       inkscape:connector-curvature="0"
       transform="translate(0,572.3622)"
       sodipodi:nodetypes="ccaaac" />
    <path
       style="fill:none;stroke:#000000;stroke-width:1px;stroke-linecap:butt;stroke-linejoin:miter;stroke-opacity:1"
       d="M 367.85714,61.428571 C 358.68358,58.847448 348.83032,51.416457 340,55 331.86094,58.303014 332.31144,71.343566 325.71429,77.142857 317.39558,84.455503 298.2969,80.65797 295.71428,91.428571 293.89317,99.023389 306.74521,102.90041 310,110 c 2.93843,6.40953 0.37144,14.84956 4.28571,20.71429 7.51543,11.26033 46.88419,25.31619 33.57143,22.85714 -25.10646,-4.63751 -25.17323,-5.82478 -35,-13.57143 -2.95644,-2.33062 -4.7653,-5.90846 -6.42857,-9.28571 -2.76124,-5.60665 -2.21113,-12.68155 -5.71428,-17.85715 C 296.7328,106.97486 291.38646,99.467037 284.28571,99.285714 272.71796,98.990323 266.55161,114.39425 256.42858,120 c -9.16718,5.07643 -18.80702,11.49198 -29.28572,11.42857 -12.07006,-0.073 -21.57502,-14.90473 -33.57143,-13.57143 -11.22473,1.24754 -16.57176,18.84836 -27.85714,19.28572 -6.61049,0.25619 -10.55916,-9.35267 -17.14286,-10 -7.26869,-0.71468 -13.41329,7.34301 -20.71429,7.14285 -6.939,-0.19023 -15.21414,-2.23502 -19.28571,-7.85714 -6.01971,-8.31215 -6.61774,-7.46404 -2.14286,-30.714285 1.21164,-6.29537 1.79123,13.021335 5,18.571425 1.85386,3.20656 4.2388,8.64862 7.85714,7.85715 6.69699,-1.46488 5.75168,-12.57304 7.14286,-19.28572 1.79036,-8.638811 -1.77151,-34.650122 1.42857,-26.428569 4.45301,11.440533 4.98163,18.406435 5.71429,27.857139 0.3869,4.99069 -2.33881,10.26528 -0.71429,15.00001 0.7124,2.07631 2.12049,4.63895 4.28572,4.99999 4.63202,0.77235 7.44706,-7.10229 12.14285,-7.14285 6.29017,-0.0543 10.16292,9.84316 16.42858,9.28571 10.77963,-0.95905 14.31315,-19.008 25,-20.71428 8.33921,-1.33145 16.59095,14.03841 23.57142,9.28571 4.32979,-2.94797 2.30545,-11.01082 1e-5,-15.714281 -5.30318,-10.819324 -24.97054,-10.644382 -28.57143,-22.142862 -2.61052,-8.336008 9.7373,-33.530465 7.85714,-25 -2.45678,11.146603 -3.17994,17.628691 0.71428,25 5.49489,10.401196 22.56478,10.599997 28.57143,20.714285 3.80011,6.398798 -3.06612,17.637268 2.85715,22.142858 5.35993,4.07708 13.91762,0.0336 20,-2.85714 C 253.32334,113.5266 262.49534,108.23223 264.28571,100 265.98662,92.17914 255.6081,85.837691 255,77.857142 c -0.74586,-9.788543 7.98932,-37.830734 7.14286,-28.571428 -1.73924,19.025344 -2.83721,17.626042 0,25.714286 2.01855,5.754446 5.59394,12.512205 11.42856,14.285714 4.53897,1.379675 9.12719,-2.626099 13.57144,-4.285714 7.29276,-2.723334 14.30747,-6.140745 21.42857,-9.285715 4.77673,-2.1096 10.05993,-3.360947 14.28571,-6.428571 8.59315,-6.238024 11.14127,-20.939598 21.42857,-23.571429 7.07585,-1.810237 14.33605,3.584385 20.71429,7.142857 5.91033,3.297422 1.01371,-7.644201 15.71429,12.857143 2.63249,3.671261 -8.50847,-3.062144 -12.85715,-4.285714 z"
       id="path3005"
       inkscape:connector-curvature="0"
       transform="translate(0,572.3622)"
       sodipodi:nodetypes="aaaaaasaaaaaaaaaaasaaasaaaaaaaaasaaaaaasaaaaaaasa" />
    <path
       style="fill:#000000;stroke:#000000;stroke-width:0.71428573"
       d="m 336.42857,150.41979 c -6.37607,-1.38455 -11.31707,-3.03558 -14.28571,-4.77353 -2.68187,-1.57007 -9.78006,-7.28976 -11.25149,-9.06641 -1.95598,-2.36171 -5.0742,-9.93703 -6.17788,-15.00842 -0.64123,-2.94643 -2.0882,-6.96917 -3.21548,-8.93942 -2.8222,-4.9326 -8.28965,-10.85237 -11.56772,-12.52472 -3.24985,-1.657945 -8.27684,-1.804585 -11.77383,-0.343446 -1.38157,0.577256 -6.76917,5.157616 -11.97244,10.178576 -8.48188,8.18469 -10.28049,9.55508 -17.38777,13.24802 -10.15923,5.27872 -15.20387,6.99455 -20.69678,7.03959 -5.22929,0.0429 -8.41601,-1.22587 -17.42717,-6.93841 -7.57139,-4.79981 -10.51551,-5.93301 -15.52219,-5.97456 -5.20323,-0.0432 -7.95992,1.5784 -15.15011,8.91175 -8.52214,8.69182 -12.45089,11.00486 -16.24307,9.56308 -0.99222,-0.37725 -4.19107,-2.60618 -7.10857,-4.95318 -4.88174,-3.92715 -5.58696,-4.26728 -8.84787,-4.26728 -2.79093,0 -4.94325,0.70329 -10.13619,3.31211 -5.62959,2.82818 -7.18561,3.30382 -10.64969,3.25537 -8.46261,-0.11837 -15.02668,-3.39665 -19.4323,-9.70505 -2.86203,-4.09813 -2.93619,-4.35211 -2.81549,-9.64285 0.0682,-2.98863 0.57375,-7.68387 1.12349,-10.43387 l 0.99954,-4.999997 1.2688,6.991177 c 1.31314,7.23552 3.46726,12.29602 6.6777,15.68739 3.24301,3.42578 7.32478,2.31968 9.45103,-2.56108 2.19273,-5.03338 3.82584,-20.189387 3.3607,-31.188916 -0.38439,-9.090015 -0.34692,-9.479052 0.65341,-6.785714 3.22492,8.682884 4.99123,22.4143 3.85089,29.93715 -0.96495,6.36583 -0.44003,9.79876 1.92876,12.6139 2.68356,3.18924 5.09142,2.82744 9.84743,-1.47962 2.29251,-2.07611 4.6218,-3.57143 5.56328,-3.57143 0.91973,0 3.90047,1.85904 6.89803,4.30219 2.90314,2.36621 6.03019,4.49087 6.94898,4.72147 4.84886,1.21699 9.29278,-1.71107 16.03091,-10.56265 5.69741,-7.48443 9.30032,-10.14298 13.07349,-9.64681 1.54022,0.20254 4.27236,1.41888 6.07143,2.70298 11.11578,7.93398 13.19467,8.58741 16.97518,5.33555 1.78876,-1.53862 1.98927,-2.15602 1.91379,-5.89286 -0.048,-2.37785 -0.7578,-5.93805 -1.64934,-8.27298 -1.96595,-5.148864 -5.26148,-7.957528 -14.43663,-12.30384 -11.57535,-5.483296 -14.88912,-8.706722 -14.88912,-14.483222 0,-3.133507 1.41894,-8.996104 3.39479,-14.026248 l 1.3528,-3.443941 2.7e-4,8.106609 c 4.4e-4,13.153979 2.50363,16.71675 16.76683,23.86405 9.27115,4.645778 13.83515,8.25606 14.67692,11.609952 0.24192,0.96389 0.24035,4.78977 -0.004,8.50197 -0.68337,10.40444 1.39622,13.77349 8.50193,13.77349 4.50606,0 9.73381,-1.75445 18.09452,-6.07259 C 260.1434,110.56782 265,104.93748 265,97.911033 c 0,-2.454002 -0.61923,-4.208159 -2.63098,-7.453053 -6.17253,-9.956102 -6.82085,-11.673064 -6.32238,-16.743694 0.4649,-4.729276 3.60776,-18.48091 4.39498,-19.230347 0.23832,-0.226881 0.18269,1.676775 -0.12362,4.230347 -1.37769,11.485335 0.54484,19.159551 6.71033,26.785714 4.64801,5.749178 7.94638,5.948187 18.91213,1.141072 15.46033,-6.777416 24.47374,-10.665358 30.11337,-12.989413 7.04968,-2.905131 10.79536,-6.254116 15.9078,-14.223088 6.63733,-10.34587 9.73293,-12.857143 15.8488,-12.857143 2.98028,0 4.89591,0.681902 11.19308,3.984374 5.42697,2.8461 8.07633,3.86418 9.27373,3.563651 1.41874,-0.35608 2.33667,0.376132 5.97444,4.765627 4.53428,5.471295 5.22601,6.793055 2.90494,5.550857 -3.95656,-2.117489 -25.12506,-10.097901 -28.59726,-10.781012 -4.92185,-0.968315 -9.09345,-0.01793 -12.17174,2.772996 -1.29255,1.17189 -3.39748,4.86909 -5.36208,9.418222 -4.78048,11.069412 -6.60093,12.575789 -18.5907,15.383367 C 298.04454,84.599202 295,86.630828 295,92.863816 c 0,3.276278 0.10496,3.426535 7.07165,10.123764 7.38671,7.10102 8.62407,9.25029 8.64279,15.01242 0.0166,5.12476 1.41648,10.97742 3.26281,13.64167 2.3635,3.41054 9.70213,8.499 21.07695,14.61437 4.88091,2.62407 9.0083,4.89353 9.17199,5.04322 0.59166,0.54106 -3.25261,0.10748 -7.79762,-0.87947 z"
       id="path3007"
       inkscape:connector-curvature="0"
       transform="translate(0,572.3622)" />
    <rect
       style="fill:#ffffff;stroke:#000000"
       id="rect3011"
       width="27.142857"
       height="15.714286"
       x="83.571426"
       y="377.85715"
       transform="translate(0,572.3622)" />
    <rect
       style="fill:#ffffff;stroke:#000000"
       id="rect3011-1"
       width="27.142857"
       height="15.714286"
       x="83.571434"
       y="928.07648" />
    <rect
       style="fill:#ffffff;stroke:#000000"
       id="rect3011-7"
       width="27.142857"
       height="15.714286"
       x="83.571426"
       y="905.93365" />
    <rect
       style="fill:#ffffff;stroke:#000000"
       id="rect3011-4"
       width="27.142857"
       height="15.714286"
       x="295.71429"
       y="949.50507" />
    <rect
       style="fill:#ffffff;stroke:#000000"
       id="rect3011-0"
       width="27.142857"
       height="15.714286"
       x="295.71429"
       y="928.07648" />
    <rect
       style="fill:#ffffff;stroke:#000000"
       id="rect3011-9"
       width="27.142857"
       height="15.714286"
       x="295.71429"
       y="905.93365" />
    <rect
       style="fill:#ffffff;stroke:#000000"
       id="rect3011-8"
       width="27.142857"
       height="15.714286"
       x="83.571426"
       y="883.79077" />
    <rect
       style="fill:#ffffff;stroke:#000000"
       id="rect3011-23"
       width="27.142857"
       height="15.714286"
       x="369.28571"
       y="667.36218" />
    <rect
       style="fill:#ffffff;stroke:#000000"
       id="rect3011-22"
       width="27.142857"
       height="15.714286"
       x="369.28571"
       y="688.07648" />
    <rect
       style="fill:#ffffff;stroke:#000000"
       id="rect3011-16"
       width="27.142857"
       height="15.714286"
       x="369.28571"
       y="708.79077" />
    <rect
       style="fill:#ffffff;stroke:#000000"
       id="rect3011-85"
       width="27.142857"
       height="15.714286"
       x="369.28571"
       y="730.2193" />
    <rect
       style="fill:#ffffff;stroke:#000000"
       id="rect3011-761"
       width="27.142857"
       height="15.714286"
       x="368.57144"
       y="751.64789" />
    <rect
       style="fill:#ffffff;stroke:#000000"
       id="rect3011-89"
       width="27.142857"
       height="15.714286"
       x="369.28571"
       y="773.07648" />
    <rect
       style="fill:#ffffff;stroke:#000000"
       id="rect3011-27"
       width="27.142857"
       height="15.714286"
       x="370"
       y="793.79077" />
    <rect
       style="fill:#ffffff;stroke:#000000"
       id="rect3011-95"
       width="27.142857"
       height="15.714286"
       x="370"
       y="815.93359" />
    <rect
       style="fill:#ffffff;stroke:#000000"
       id="rect3011-43"
       width="27.142857"
       height="15.714286"
       x="369.28571"
       y="836.64789" />
    <rect
       style="fill:#ffffff;stroke:#000000"
       id="rect3011-12"
       width="27.142857"
       height="15.714286"
       x="370.71429"
       y="857.36224" />
    <rect
       style="fill:#ffffff;stroke:#000000"
       id="rect3011-3"
       width="27.142857"
       height="15.714286"
       x="370.71429"
       y="878.79077" />
    <rect
       style="fill:#ffffff;stroke:#000000"
       id="rect3011-34"
       width="27.142857"
       height="15.714286"
       x="370.71429"
       y="900.93359" />
    <rect
       style="fill:#ffffff;stroke:#000000"
       id="rect3011-113"
       width="27.142857"
       height="15.714286"
       x="370.71429"
       y="922.36224" />
    <rect
       style="fill:#ffffff;stroke:#000000"
       id="rect3011-87"
       width="27.142857"
       height="15.714286"
       x="370.71429"
       y="943.07654" />
    <rect
       style="fill:#ffffff;stroke:#000000"
       id="rect3011-42"
       width="27.142857"
       height="15.714286"
       x="370"
       y="963.07648" />
    <rect
       style="fill:#ffffff;stroke:#000000"
       id="rect3011-77"
       width="27.142857"
       height="15.714286"
       x="337.85715"
       y="962.36218" />
    <rect
       style="fill:#ffffff;stroke:#000000"
       id="rect3011-93"
       width="27.142857"
       height="15.714286"
       x="338.57144"
       y="941.64789" />
    <rect
       style="fill:#ffffff;stroke:#000000"
       id="rect3011-19"
       width="27.142857"
       height="15.714286"
       x="337.85715"
       y="920.93365" />
    <rect
       style="fill:#ffffff;stroke:#000000"
       id="rect3011-86"
       width="27.142857"
       height="15.714286"
       x="337.85715"
       y="898.79077" />
    <rect
       style="fill:#ffffff;stroke:#000000"
       id="rect3011-50"
       width="27.142857"
       height="15.714286"
       x="337.85715"
       y="877.36218" />
    <rect
       style="fill:#ffffff;stroke:#000000"
       id="rect3011-28"
       width="27.142857"
       height="15.714286"
       x="337.14285"
       y="855.93359" />
    <rect
       style="fill:#ffffff;stroke:#000000"
       id="rect3011-6"
       width="27.142857"
       height="15.714286"
       x="336.42856"
       y="834.50507" />
    <rect
       style="fill:#ffffff;stroke:#000000"
       id="rect3011-02"
       width="27.142857"
       height="15.714286"
       x="305.71429"
       y="863.79077" />
    <rect
       style="fill:#ffffff;stroke:#000000"
       id="rect3011-61"
       width="27.142857"
       height="15.714286"
       x="188.57141"
       y="760.93359" />
    <rect
       style="fill:#ffffff;stroke:#000000"
       id="rect3011-38"
       width="27.142857"
       height="15.714286"
       x="155.71429"
       y="761.64789" />
    <rect
       style="fill:#ffffff;stroke:#000000"
       id="rect3011-934"
       width="27.142857"
       height="15.714286"
       x="188.57143"
       y="780.93365" />
    <rect
       style="fill:#ffffff;stroke:#000000"
       id="rect3011-46"
       width="27.142857"
       height="15.714286"
       x="155"
       y="781.64795" />
    <rect
       style="fill:#ffffff;stroke:#000000;stroke-width:1"
       id="rect3011-9-9"
       width="27.142857"
       height="15.714286"
       x="313.28229"
       y="879.41113"
       transform="matrix(0.99978929,0.02052749,-0.02052749,0.99978929,0,0)" />
    <rect
       style="fill:#ffffff;stroke:#000000"
       id="rect3011-9-6"
       width="27.142857"
       height="15.714286"
       x="370.71429"
       y="647.36218"
       inkscape:transform-center-x="180"
       inkscape:transform-center-y="-40.714286" />
    <rect
       style="fill:#ffffff;stroke:#000000;stroke-width:0.74675822"
       id="rect3011-9-3"
       width="14.896098"
       height="15.967527"
       x="352.73053"
       y="647.2356" />
    <rect
       style="fill:#ffffff;stroke:#000000;stroke-width:0.71745986"
       id="rect3011-9-7"
       width="29.568254"
       height="7.4253974"
       x="67.001587"
       y="971.50671" />
    <rect
       style="fill:#ffffff;stroke:#000000;stroke-width:0.71745986"
       id="rect3011-9-7-8"
       width="29.568254"
       height="7.4253974"
       x="100.93016"
       y="971.50671" />
    <rect
       style="fill:#ffffff;stroke:#000000;stroke-width:0.71745986"
       id="rect3011-9-7-82"
       width="29.568254"
       height="7.4253974"
       x="135.21587"
       y="971.50665" />
    <rect
       style="fill:#ffffff;stroke:#000000;stroke-width:0.71745986"
       id="rect3011-9-7-9"
       width="29.568254"
       height="7.4253974"
       x="169.50159"
       y="971.50665" />
    <rect
       style="fill:#ffffff;stroke:#000000;stroke-width:0.71745986"
       id="rect3011-9-7-1"
       width="29.568254"
       height="7.4253974"
       x="202.35873"
       y="972.22095" />
    <rect
       style="fill:#ffffff;stroke:#000000;stroke-width:0.71745986"
       id="rect3011-9-7-3"
       width="29.568254"
       height="7.4253974"
       x="235.93016"
       y="972.22095" />
    <rect
       style="fill:#ffffff;stroke:#000000;stroke-width:0.71745986"
       id="rect3011-9-7-5"
       width="29.568254"
       height="7.4253974"
       x="268.78729"
       y="971.50665" />
    <rect
       style="fill:#ffffff;stroke:#000000;stroke-width:0.71745986"
       id="rect3011-9-7-98"
       width="29.568254"
       height="7.4253974"
       x="303.07303"
       y="970.79236" />
    <rect
       style="fill:#ffffff;stroke:#000000"
       id="rect3011-8-6"
       width="27.142857"
       height="15.714286"
       x="70"
       y="863.07648" />
    <rect
       style="fill:#ffffff;stroke:#000000"
       id="rect3011-8-3"
       width="27.142857"
       height="15.714286"
       x="77.857147"
       y="843.07648" />
    <rect
       style="fill:#ffffff;stroke:#000000"
       id="rect3011-8-61"
       width="27.142857"
       height="15.714286"
       x="85.714287"
       y="821.64795" />
    <rect
       style="fill:#ffffff;stroke:#000000"
       id="rect3011-8-5"
       width="27.142857"
       height="15.714286"
       x="102.14286"
       y="801.64789" />
    <rect
       style="fill:#ffffff;stroke:#000000"
       id="rect3011-8-4"
       width="27.142857"
       height="15.714286"
       x="121.42857"
       y="782.36224" />
    <rect
       style="fill:#ffffff;stroke:#000000"
       id="rect3011-8-2"
       width="27.142857"
       height="15.714286"
       x="221.42857"
       y="760.93365" />
    <rect
       style="fill:#ffffff;stroke:#000000"
       id="rect3011-8-0"
       width="27.142857"
       height="15.714286"
       x="222.14287"
       y="780.93359" />
    <rect
       style="fill:#ffffff;stroke:#000000"
       id="rect3011-8-9"
       width="27.142857"
       height="15.714286"
       x="255"
       y="780.93359" />
    <rect
       style="fill:#ffffff;stroke:#000000"
       id="rect3011-8-7"
       width="27.142857"
       height="15.714286"
       x="267.85715"
       y="802.36218" />
    <rect
       style="fill:#ffffff;stroke:#000000;stroke-width:0.58304179"
       id="rect3011-8-37"
       width="8.9883862"
       height="16.131245"
       x="69.07724"
       y="883.58228" />
    <rect
       style="fill:#ffffff;stroke:#000000;stroke-width:0.58304179"
       id="rect3011-8-37-2"
       width="8.9883862"
       height="16.131245"
       x="68.362953"
       y="905.01086" />
    <rect
       style="fill:#ffffff;stroke:#000000;stroke-width:0.58304179"
       id="rect3011-8-37-6"
       width="8.9883862"
       height="16.131245"
       x="68.362946"
       y="927.15375" />
    <rect
       style="fill:#ffffff;stroke:#000000;stroke-width:0.58304179"
       id="rect3011-8-37-0"
       width="8.9883862"
       height="16.131245"
       x="68.362953"
       y="949.29657" />
    <rect
       style="fill:#ffffff;stroke:#000000;stroke-width:0.60070997"
       id="rect3011-8-37-0-1"
       width="6.8278608"
       height="22.542149"
       x="326.94324"
       y="942.16254" />
    <rect
       style="fill:#ffffff;stroke:#000000;stroke-width:0.60070997"
       id="rect3011-8-37-0-1-6"
       width="6.8278608"
       height="22.542149"
       x="327.30035"
       y="913.9483" />
    <rect
       style="fill:#ffffff;stroke:#000000;stroke-width:0.60070997"
       id="rect3011-8-37-0-1-5"
       width="6.8278608"
       height="22.542149"
       x="326.58606"
       y="886.09113" />
    <rect
       style="fill:#ffffff;stroke:#000000"
       id="rect3011-02-7"
       width="27.142857"
       height="15.714286"
       x="304.28574"
       y="840.93359" />
    <rect
       style="fill:#ffffff;stroke:#000000"
       id="rect3011-02-5"
       width="27.142857"
       height="15.714286"
       x="100.71429"
       y="863.07654" />
    <rect
       style="fill:#ffffff;stroke:#000000"
       id="rect3011-8-3-4"
       width="27.142857"
       height="15.714286"
       x="109.28571"
       y="842.36224" />
    <rect
       style="fill:#ffffff;stroke:#000000"
       id="rect3011-8-3-1"
       width="27.142857"
       height="15.714286"
       x="119.28571"
       y="821.64789" />
    <rect
       style="fill:#ffffff;stroke:#000000"
       id="rect3011-8-3-2"
       width="27.142857"
       height="15.714286"
       x="135"
       y="802.36224" />
    <rect
       style="fill:#ffffff;stroke:#000000"
       id="rect3011-8-3-0"
       width="27.142857"
       height="15.714286"
       x="168.57143"
       y="801.64789" />
    <rect
       style="fill:#ffffff;stroke:#000000"
       id="rect3011-8-3-01"
       width="27.142857"
       height="15.714286"
       x="201.42857"
       y="800.93365" />
    <rect
       style="fill:#ffffff;stroke:#000000"
       id="rect3011-8-3-46"
       width="27.142857"
       height="15.714286"
       x="234.28571"
       y="801.64789" />
    <rect
       style="fill:#ffffff;stroke:#000000"
       id="rect3011-8-3-07"
       width="27.142857"
       height="15.714286"
       x="281.42859"
       y="821.64789" />
    <rect
       style="fill:#ffffff;stroke:#000000"
       id="rect3011-8-3-17"
       width="27.142857"
       height="15.714286"
       x="248.57143"
       y="822.36218" />
    <rect
       style="fill:#ffffff;stroke:#000000"
       id="rect3011-8-3-7"
       width="27.142857"
       height="15.714286"
       x="270"
       y="842.36218" />
    <rect
       style="fill:#ffffff;stroke:#000000;stroke-width:0.80420852"
       id="rect3011-8-3-77"
       width="17.338648"
       height="15.910077"
       x="281.33066"
       y="862.97858" />
    <rect
       style="fill:#ffffff;stroke:#000000;stroke-width:0.57001001"
       id="rect3011-8-3-3"
       width="10.42999"
       height="13.287132"
       x="314.07074"
       y="823.57581" />
    <rect
       style="fill:#ffffff;stroke:#000000;stroke-width:0.57001001"
       id="rect3011-8-3-3-3"
       width="10.42999"
       height="13.287132"
       x="299.785"
       y="802.86151" />
    <rect
       style="fill:#ffffff;stroke:#000000;stroke-width:0.80014127"
       id="rect3011-8-3-3-5"
       width="20.914145"
       height="13.057001"
       x="152.04292"
       y="822.26221" />
    <rect
       style="fill:#ffffff;stroke:#000000;stroke-width:0.6224665"
       id="rect3011-8-3-3-5-9"
       width="51.09182"
       height="3.2346759"
       x="181.59695"
       y="752.88776" />
    <rect
       style="fill:#ffffff;stroke:#000000;stroke-width:0.42521539"
       id="rect3011-8-3-3-5-8"
       width="8.4319277"
       height="9.1462126"
       x="255.06975"
       y="767.07483" />
    <rect
       style="fill:#ffffff;stroke:#000000;stroke-width:0.42521539"
       id="rect3011-8-3-3-5-8-1"
       width="8.4319277"
       height="9.1462126"
       x="142.9269"
       y="767.07477" />
    <rect
       style="fill:#ffffff;stroke:#000000;stroke-width:0.70628446"
       id="rect3011-8-3-3-5-82"
       width="18.150858"
       height="11.722286"
       x="223.78172"
       y="822.21533" />
    <rect
       style="fill:#ffffff;stroke:#000000;stroke-width:0.42521539"
       id="rect3011-8-3-3-5-8-1-6"
       width="8.4319277"
       height="9.1462126"
       x="144.35547"
       y="841.36053" />
    <rect
       style="fill:#ffffff;stroke:#000000;stroke-width:0.42521539"
       id="rect3011-8-3-3-5-8-1-60"
       width="8.4319277"
       height="9.1462126"
       x="255.06976"
       y="843.50336" />
    <rect
       style="fill:#ffffff;stroke:#000000;stroke-width:0.42521539"
       id="rect3011-8-3-3-5-8-1-3"
       width="8.4319277"
       height="9.1462126"
       x="269.35547"
       y="862.07477" />
    <rect
       style="fill:#ffffff;stroke:#000000;stroke-width:0.42521539"
       id="rect3011-8-3-3-5-8-1-8"
       width="8.4319277"
       height="9.1462126"
       x="177.9269"
       y="821.36053" />
    <rect
       style="fill:#ffffff;stroke:#000000;stroke-width:0.39219877"
       id="rect3011-8-3-3-5-82-0"
       width="8.4649439"
       height="7.750658"
       x="190.41039"
       y="821.34399" />
    <rect
       style="fill:#ffffff;stroke:#000000;stroke-width:0.38927951"
       id="rect3011-8-3-3-5-82-0-1"
       width="9.1821489"
       height="7.0392914"
       x="203.26607"
       y="821.34259" />
    <rect
       style="fill:#ffffff;stroke:#000000;stroke-width:0.35598716"
       id="rect3011-8-3-3-5-82-0-2"
       width="6.3582978"
       height="8.5011549"
       x="214.67799"
       y="823.46881" />
    <path
       style="fill:#000000;stroke:#000000;stroke-width:0.71428573"
       d="m 63.944844,359.60641 c 0.01743,-54.89264 -0.04486,-53.78513 3.877138,-68.94069 3.005893,-11.61552 5.968183,-19.73133 10.749838,-29.45143 6.386086,-12.98158 6.378368,-12.97749 6.405463,-3.39286 L 85,265.85714 l 14.285714,0 14.285716,0 0,-8.57143 0,-8.57142 -13.999127,0 -13.999126,0 1.462181,-2.47822 c 2.479627,-4.20265 11.159666,-15.43098 16.813592,-21.74974 5.42312,-6.06081 12.54685,-12.65526 19.284,-17.85123 3.91794,-3.02168 17.5145,-11.49224 18.44683,-11.49224 0.30969,0 0.56308,2.08928 0.56308,4.64285 l 0,4.64286 5,0 5,0 0,-5 0,-5 -4.46429,-0.0365 -4.46428,-0.0365 6.9524,-3.53591 c 20.08901,-10.21702 38.08434,-14.95442 56.82575,-14.95978 31.8481,-0.009 46.82094,5.58021 80.50756,30.05335 15.61957,11.34753 20.31841,16.55975 29.4122,32.62568 2.61184,4.61433 4.93758,8.613 5.1683,8.88595 1.34637,1.59278 20.10826,4.36335 35.68875,5.27017 l 8.1264,0.47297 -0.45161,-53.83399 c -0.24838,-29.60872 -0.65024,-65.16437 -0.89302,-79.01258 l -0.44141,-25.178573 -7.41195,0 -7.41195,0 0,-12.142857 0,-12.142857 26.78572,0 26.78571,0 3.5e-4,88.035717 c 1.8e-4,48.41964 0.21401,124.91964 0.47515,170 l 0.47482,81.96428 -169.93945,-7.3e-4 -169.939439,-7.2e-4 0.01627,-51.24928 z m 168.912296,44.10788 0,-4.28572 -15.71428,0 -15.71429,0 0,4.28572 0,4.28571 15.71429,0 15.71428,0 0,-4.28571 z m 33.57143,0 0,-4.28572 -15.71428,0 -15.71429,0 0,4.28572 0,4.28571 15.71429,0 15.71428,0 0,-4.28571 z M 97.142857,403 l 0,-4.28571 -15.357143,0 -15.357143,0 0,4.28571 0,4.28571 15.357143,0 15.357143,0 0,-4.28571 z m 34.285713,0 0,-4.28571 -15.71428,0 -15.71429,0 0,4.28571 0,4.28571 15.71429,0 15.71428,0 0,-4.28571 z m 34.28572,0 0,-4.28571 -15.71429,0 -15.71429,0 0,4.28571 0,4.28571 15.71429,0 15.71429,0 0,-4.28571 z M 200,403 l 0,-4.28571 -15.71429,0 -15.71428,0 0,4.28571 0,4.28571 15.71428,0 15.71429,0 L 200,403 z m 99.28571,0 0,-4.28571 -15.71428,0 -15.71429,0 0,4.28571 0,4.28571 15.71429,0 15.71428,0 0,-4.28571 z m 98.57143,-4.28571 0,-8.57143 -14.28571,0 -14.28572,0 0,8.57143 0,8.57142 14.28572,0 14.28571,0 0,-8.57142 z m -64.28571,3.57142 0,-4.28571 -15.71429,0 -15.71428,0 0,4.28571 0,4.28572 15.71428,0 15.71429,0 0,-4.28572 z M 365.71429,398 l 0,-8.57143 -14.28572,0 -14.28571,0 0,8.57143 0,8.57143 14.28571,0 14.28572,0 0,-8.57143 z m -75.23472,-6.96429 c 0.3203,-2.25892 0.57414,-12.94642 0.56407,-23.75 -0.0199,-21.41397 -0.82097,-28.99382 -4.18943,-39.64285 -1.89457,-5.98947 -7.89459,-16.44872 -13.6021,-23.7112 l -3.25825,-4.14595 4.28878,-0.21265 4.28879,-0.21265 0,-4.96592 0,-4.96592 -5,0 -5,0 -0.0192,4.10714 -0.0192,4.10715 -6.94505,-7.26009 c -14.01268,-14.64827 -28.24179,-23.97989 -43.47851,-28.51368 -9.19622,-2.7364 -21.74125,-3.17688 -30.60944,-1.07475 -8.31183,1.97025 -20.31894,7.88064 -28.31641,13.93851 -15.23317,11.53872 -34.35658,35.93293 -39.15367,49.94524 -3.67755,10.74212 -5.42164,28.9021 -4.77804,49.75048 0.24861,8.05357 0.65674,15.84578 0.90694,17.31602 l 0.45491,2.67315 44.01456,0.18954 c 24.20802,0.10424 63.1968,0.26739 86.64174,0.36256 l 42.62718,0.17302 0.58236,-4.10715 z m -179.051,-5.17857 0,-8.57143 -14.285713,0 -14.285714,0 0,8.57143 0,8.57143 14.285714,0 14.285713,0 0,-8.57143 z m -33.571427,-0.71428 0,-8.57143 -5,0 -5,0 0,8.57143 0,8.57143 5,0 5,0 0,-8.57143 z m 245.714287,0 0,-8.57143 -14.28572,0 -14.28571,0 0,8.57143 0,8.57143 14.28571,0 14.28572,0 0,-8.57143 z m 10.71428,-3.92857 0,-11.78572 -3.92857,0 -3.92857,0 0,11.78572 0,11.78571 3.92857,0 3.92857,0 0,-11.78571 z m 64.28572,-2.5 0,-8.57143 -14.28572,0 -14.28571,0 0,8.57143 0,8.57142 14.28571,0 14.28572,0 0,-8.57142 z m -32.14286,-1.42858 0,-8.57142 -14.28571,0 -14.28572,0 0,8.57142 0,8.57143 14.28572,0 14.28571,0 0,-8.57143 z m -255,-13.57142 0,-8.57143 -14.285713,0 -14.285714,0 0,8.57143 0,8.57142 14.285714,0 14.285713,0 0,-8.57142 z m 212.14286,0 0,-8.57143 -14.28572,0 -14.28571,0 0,8.57143 0,8.57142 14.28571,0 14.28572,0 0,-8.57142 z M 77.857143,363 l 0,-8.57143 -5,0 -5,0 0,8.57143 0,8.57143 5,0 5,0 0,-8.57143 z m 320.714287,-5 0,-8.57143 -14.28572,0 -14.28571,0 0,8.57143 0,8.57143 14.28571,0 14.28572,0 0,-8.57143 z m -32.85714,-1.42857 0,-8.57143 -14.28572,0 -14.28571,0 0,8.57143 0,8.57143 14.28571,0 14.28572,0 0,-8.57143 z M 335,352.64286 l 0,-11.78572 -4.28571,0 -4.28572,0 0,11.78572 0,11.78571 4.28572,0 4.28571,0 0,-11.78571 z m -223.57143,-11.07143 0,-8.57143 -14.285713,0 -14.285714,0 0,8.57143 0,8.57143 14.285714,0 14.285713,0 0,-8.57143 z m 212.14286,0 0,-8.57143 -14.28572,0 -14.28571,0 0,8.57143 0,8.57143 14.28571,0 14.28572,0 0,-8.57143 z m -245.714287,-0.71429 0,-8.57143 -5,0 -5,0 0,8.57143 0,8.57143 5,0 5,0 0,-8.57143 z m 320.714287,-4.28571 0,-8.57143 -14.28572,0 -14.28571,0 0,8.57143 0,8.57143 14.28571,0 14.28572,0 0,-8.57143 z m -32.85714,-2.14286 0,-8.57143 -14.28572,0 -14.28571,0 0,8.57143 0,8.57143 14.28571,0 14.28572,0 0,-8.57143 z m -31.42858,-9.64286 0,-11.78571 -4.28571,0 -4.28571,0 0,11.78571 0,11.78572 4.28571,0 4.28571,0 0,-11.78572 z m -11.42857,-3.21428 0,-8.57143 -6.25,-0.004 c -3.4375,-10e-4 -9.86607,-0.21161 -14.28571,-0.46628 l -8.03572,-0.46303 0,9.03771 0,9.03771 14.28572,0 14.28571,0 0,-8.57143 0,3.2e-4 z m -244.285712,-2.14286 0,-8.57143 -5,0 -5,0 0,8.57143 0,8.57143 5,0 5,0 0,-8.57143 z m 32.857142,0 0,-8.57143 -14.285713,0 -14.285714,0 0,8.57143 0,8.57143 14.285714,0 14.285713,0 0,-8.57143 z m 287.14286,-5 0,-8.57143 -14.28572,0 -14.28571,0 0,8.57143 0,8.57143 14.28571,0 14.28572,0 0,-8.57143 z M 365.71429,313 l 0,-8.57143 -14.28572,0 -14.28571,0 0,8.57143 0,8.57143 14.28571,0 14.28572,0 0,-8.57143 z m -32.14286,-13.57143 0,-8.57143 -14.28572,0 -14.28571,0 0,8.57143 0,8.57143 14.28571,0 14.28572,0 0,-8.57143 z m -235.714287,-0.71428 0,-8.57143 -14.285715,0 -14.285714,0 0,8.57143 0,8.57142 14.285714,0 14.285715,0 0,-8.57142 z m 30.714287,0 0,-8.57143 -14.28572,0 -14.28571,0 0,8.57143 0,8.57142 14.28571,0 14.28572,0 0,-8.57142 z m 170.71428,0 0,-8.57143 -9.28571,0 -9.28571,0 0,8.57143 0,8.57142 9.28571,0 9.28571,0 0,-8.57142 z M 398.57143,293 l 0,-8.57143 -14.28572,0 -14.28571,0 0,8.57143 0,8.57143 14.28571,0 14.28572,0 0,-8.57143 z M 365,291.57143 365,283 l -14.28571,0 -14.28572,0 0,8.57143 0,8.57143 14.28572,0 14.28571,0 0,-8.57143 z m -259.28571,-12.85714 0,-8.57143 -14.285719,0 -14.285714,0 0,8.57143 0,8.57142 14.285714,0 14.285719,0 0,-8.57142 z M 137.14286,278 l 0,-8.57143 -14.28572,0 -14.28571,0 0,8.57143 0,8.57143 14.28571,0 14.28572,0 0,-8.57143 z m 160.71428,0 0,-8.57143 -14.28571,0 -14.28572,0 0,8.57143 0,8.57143 14.28572,0 14.28571,0 0,-8.57143 z m 34.28572,-1.42857 0,-8.57143 -14.28572,0 -14.28571,0 0,8.57143 0,8.57143 14.28571,0 14.28572,0 0,-8.57143 z m -67.85715,-0.71429 0,-5 -5,0 -5,0 0,5 0,5 5,0 5,0 0,-5 z m 132.85715,-3.57143 0,-8.57142 -14.28572,0 -14.28571,0 0,8.57142 0,8.57143 14.28571,0 14.28572,0 0,-8.57143 z m -243.57143,1.42858 0,-5 -5,0 -5,0 0,5 0,5 5,0 5,0 0,-5 z m 210.71428,-3.57143 0,-8.57143 -14.28571,0 -14.28571,0 0,8.57143 0,8.57143 14.28571,0 14.28571,0 0,-8.57143 z M 276.42857,258 l 0,-8.57143 -14.28571,0 -14.28572,0 0,8.57143 0,8.57143 14.28572,0 14.28571,0 0,-8.57143 z m -129.28571,-0.71429 0,-8.57142 -14.28572,0 -14.28571,0 0,8.57142 0,8.57143 14.28571,0 14.28572,0 0,-8.57143 z m 162.14285,0 0,-8.57142 -14.28571,0 -14.28571,0 0,8.57142 0,8.57143 14.28571,0 14.28571,0 0,-8.57143 z M 325,258 l 0,-7.14286 -5.71429,0 -5.71428,0 0,7.14286 0,7.14286 5.71428,0 5.71429,0 L 325,258 z m -151.42857,-1.42857 0,-7.14286 -11.07143,0 -11.07143,0 0,7.14286 0,7.14286 11.07143,0 11.07143,0 0,-7.14286 z m 69.28571,-0.71429 0,-6.42857 -10,0 -10,0 0,6.42857 0,6.42857 10,0 10,0 0,-6.42857 z M 221.42857,255.5 l 0,-4.64286 -3.57143,0 -3.57143,0 0,4.64286 0,4.64286 3.57143,0 3.57143,0 0,-4.64286 z m 176.42857,-3.92857 0,-8.57143 -14.28571,0 -14.28572,0 0,8.57143 0,8.57143 14.28572,0 14.28571,0 0,-8.57143 z m -210.71428,2.14286 0,-5 -5,0 -5,0 0,5 0,5 5,0 5,0 0,-5 z M 199.28571,253 l 0,-4.28571 -4.64285,0 -4.64286,0 0,4.28571 0,4.28571 4.64286,0 4.64285,0 0,-4.28571 z m 13.57143,-0.35714 0,-3.92857 -5,0 -5,0 0,3.92857 0,3.92857 5,0 5,0 0,-3.92857 z m -50,-14.64286 0,-8.57143 -14.28571,0 -14.28572,0 0,8.57143 0,8.57143 14.28572,0 14.28571,0 0,-8.57143 z m 132.85715,0 0,-8.57143 -14.28572,0 -14.28571,0 0,8.57143 0,8.57143 14.28571,0 14.28572,0 0,-8.57143 z M 130,237.28571 l 0,-8.57142 -14.28571,0 -14.28572,0 0,8.57142 0,8.57143 14.28572,0 14.28571,0 0,-8.57143 z m 66.42857,0 0,-8.57142 -14.28571,0 -14.28572,0 0,8.57142 0,8.57143 14.28572,0 14.28571,0 0,-8.57143 z m 65.71429,0 0,-8.57142 -14.28572,0 -14.28571,0 0,8.57142 0,8.57143 14.28571,0 14.28572,0 0,-8.57143 z m -32.85715,-0.71428 0,-8.57143 -14.28571,0 -14.28571,0 0,8.57143 0,8.57143 14.28571,0 14.28571,0 0,-8.57143 z m 81.42858,0.71428 0,-7.14285 -5.71429,0 -5.71429,0 0,7.14285 0,7.14286 5.71429,0 5.71429,0 0,-7.14286 z m 87.14285,-7.85714 0,-8.57143 -14.28571,0 -14.28572,0 0,8.57143 0,8.57143 14.28572,0 14.28571,0 0,-8.57143 z M 149.28571,218 l 0,-8.57143 -14.28571,0 -14.28571,0 0,8.57143 0,8.57143 14.28571,0 14.28571,0 0,-8.57143 z m 33.57143,-0.71429 0,-8.57142 -14.28571,0 -14.28572,0 0,8.57142 0,8.57143 14.28572,0 14.28571,0 0,-8.57143 z m 33.57143,-0.71428 0,-8.57143 -14.28571,0 -14.28572,0 0,8.57143 0,8.57143 14.28572,0 14.28571,0 0,-8.57143 z m 33.57143,0 0,-8.57143 -14.28571,0 -14.28572,0 0,8.57143 0,8.57143 14.28572,0 14.28571,0 0,-8.57143 z m 32.85714,0 0,-8.57143 -14.28571,0 -14.28572,0 0,8.57143 0,8.57143 14.28572,0 14.28571,0 0,-8.57143 z m 114.28572,-7.85714 0,-8.57143 -14.28572,0 -14.28571,0 0,8.57143 0,8.57142 14.28571,0 14.28572,0 0,-8.57142 z m -213.57143,-11.42858 0,-8.57142 -14.28572,0 -14.28571,0 0,8.57142 0,8.57143 14.28571,0 14.28572,0 0,-8.57143 z m 32.85714,-0.71428 0,-8.57143 -14.28571,0 -14.28572,0 0,8.57143 0,8.57143 14.28572,0 14.28571,0 0,-8.57143 z m 32.85714,0 0,-8.57143 -14.28571,0 -14.28571,0 0,8.57143 0,8.57143 14.28571,0 14.28571,0 0,-8.57143 z m 15,2.85714 0,-5 -5,0 -5,0 0,5 0,5 5,0 5,0 0,-5 z m 132.14286,-12.14286 0,-8.57142 -14.28571,0 -14.28572,0 0,8.57142 0,8.57143 14.28572,0 14.28571,0 0,-8.57143 z m -162.85714,-5 0,-2.14285 -26.42857,0 -26.42857,0 0,2.14285 0,2.14286 26.42857,0 26.42857,0 0,-2.14286 z m 163.57143,-16.42857 0,-8.57143 -14.28572,0 -14.28571,0 0,8.57143 0,8.57143 14.28571,0 14.28572,0 0,-8.57143 z m 0,-21.42857 0,-8.57143 -14.28572,0 -14.28571,0 0,8.57143 0,8.57143 14.28571,0 14.28572,0 0,-8.57143 z m 0,-20.71428 0,-8.57143 -14.28572,0 -14.28571,0 0,8.57143 0,8.57142 14.28571,0 14.28572,0 0,-8.57142 z m 0,-20.71429 0,-8.571429 -14.28572,0 -14.28571,0 0,8.571429 0,8.57143 14.28571,0 14.28572,0 0,-8.57143 z M 365,83 l 0,-8.571429 -6.42857,0 -6.42857,0 0,8.571429 0,8.571428 6.42857,0 6.42857,0 L 365,83 z m 33.57143,0 0,-8.571429 -14.28572,0 -14.28571,0 0,8.571429 0,8.571428 14.28571,0 14.28572,0 0,-8.571428 z"
       id="path3966"
       inkscape:connector-curvature="0"
       transform="translate(0,572.3622)" />
    <path
       style="fill:#000000;stroke:#000000;stroke-width:0.71428573"
       d=""
       id="path3980"
       inkscape:connector-curvature="0"
       transform="translate(0,572.3622)" />
    <path
       style="fill:#000000;stroke:#000000;stroke-width:0.71428573"
       d=""
       id="path3986"
       inkscape:connector-curvature="0"
       transform="translate(0,572.3622)" />
    <path
       style="fill:#000000;stroke:#000000;stroke-width:0.71428573"
       d=""
       id="path3988"
       inkscape:connector-curvature="0"
       transform="translate(0,572.3622)" />
    <rect
       style="fill:#000000;stroke:#000000"
       id="rect3996"
       width="22.142857"
       height="9.6428576"
       x="158.21428"
       y="192.5"
       transform="translate(0,572.3622)" />
    <rect
       style="fill:#000000;stroke:#000000;stroke-width:1.0170871"
       id="rect3996-5"
       width="22.125769"
       height="9.982913"
       x="157.50854"
       y="784.33502" />
    <rect
       style="fill:#000000;stroke:#000000"
       id="rect3996-0"
       width="22.142857"
       height="9.6428576"
       x="191.07143"
       y="783.96936" />
    <rect
       style="fill:#000000;stroke:#000000"
       id="rect3996-9"
       width="22.142857"
       height="9.6428576"
       x="191.07143"
       y="763.96936" />
    <rect
       style="fill:#000000;stroke:#000000"
       id="rect3996-4"
       width="22.142857"
       height="9.6428576"
       x="224.28571"
       y="763.96936" />
    <rect
       style="fill:#000000;stroke:#000000"
       id="rect3996-7"
       width="22.142857"
       height="9.6428576"
       x="224.64285"
       y="783.96936" />
    <rect
       style="fill:#000000;stroke:#000000"
       id="rect3996-8"
       width="22.142857"
       height="9.6428576"
       x="257.14285"
       y="783.96936" />
    <rect
       style="fill:#000000;stroke:#000000;stroke-width:1.0170871"
       id="rect3996-3"
       width="22.125769"
       height="9.982913"
       x="123.93712"
       y="785.40649" />
    <rect
       style="fill:#000000;stroke:#000000"
       id="rect3996-51"
       width="22.142857"
       height="9.6428576"
       x="104.64285"
       y="804.68365" />
    <rect
       style="fill:#000000;stroke:#000000;stroke-width:1.0170871"
       id="rect3996-2"
       width="22.125769"
       height="9.982913"
       x="137.50854"
       y="805.04932" />
    <rect
       style="fill:#000000;stroke:#000000"
       id="rect3996-01"
       width="22.142857"
       height="9.6428576"
       x="171.07143"
       y="804.68365" />
    <rect
       style="fill:#000000;stroke:#000000"
       id="rect3996-6"
       width="22.142857"
       height="9.6428576"
       x="203.57143"
       y="803.9693" />
    <rect
       style="fill:#000000;stroke:#000000"
       id="rect3996-40"
       width="22.142857"
       height="9.6428576"
       x="236.42856"
       y="804.68359" />
    <rect
       style="fill:#000000;stroke:#000000"
       id="rect3996-61"
       width="22.142857"
       height="9.6428576"
       x="270"
       y="805.75507" />
    <rect
       style="fill:#000000;stroke:#000000"
       id="rect3996-89"
       width="22.142857"
       height="9.6428576"
       x="372.14285"
       y="818.96936" />
    <rect
       style="fill:#000000;stroke:#000000"
       id="rect3996-84"
       width="22.142857"
       height="9.6428576"
       x="372.5"
       y="796.46936" />
    <rect
       style="fill:#000000;stroke:#000000"
       id="rect3996-1"
       width="22.142857"
       height="9.6428576"
       x="371.78571"
       y="776.11224" />
    <rect
       style="fill:#000000;stroke:#000000"
       id="rect3996-43"
       width="22.142857"
       height="9.6428576"
       x="371.07141"
       y="754.68359" />
    <rect
       style="fill:#000000;stroke:#000000"
       id="rect3996-98"
       width="22.142857"
       height="9.6428576"
       x="371.78571"
       y="733.61218" />
    <rect
       style="fill:#000000;stroke:#000000"
       id="rect3996-80"
       width="22.142857"
       height="9.6428576"
       x="372.14285"
       y="711.82648" />
    <rect
       style="fill:#000000;stroke:#000000"
       id="rect3996-87"
       width="22.142857"
       height="9.6428576"
       x="371.78571"
       y="839.32648" />
    <rect
       style="fill:#000000;stroke:#000000"
       id="rect3996-78"
       width="22.142857"
       height="9.6428576"
       x="373.21429"
       y="860.39795" />
    <rect
       style="fill:#000000;stroke:#000000"
       id="rect3996-38"
       width="22.142857"
       height="9.6428576"
       x="373.21429"
       y="881.46936" />
    <rect
       style="fill:#000000;stroke:#000000"
       id="rect3996-37"
       width="22.142857"
       height="9.6428576"
       x="373.21429"
       y="903.61218" />
    <rect
       style="fill:#000000;stroke:#000000"
       id="rect3996-10"
       width="22.142857"
       height="9.6428576"
       x="372.85715"
       y="925.39789" />
    <rect
       style="fill:#000000;stroke:#000000"
       id="rect3996-73"
       width="22.142857"
       height="9.6428576"
       x="372.5"
       y="946.11218" />
    <rect
       style="fill:#000000;stroke:#000000"
       id="rect3996-49"
       width="22.142857"
       height="9.6428576"
       x="372.5"
       y="966.11218" />
    <rect
       style="fill:#000000;stroke:#000000"
       id="rect3996-65"
       width="22.142857"
       height="9.6428576"
       x="340.35715"
       y="965.04077" />
    <rect
       style="fill:#000000;stroke:#000000"
       id="rect3996-109"
       width="22.142857"
       height="9.6428576"
       x="341.07144"
       y="944.68359" />
    <rect
       style="fill:#000000;stroke:#000000"
       id="rect3996-96"
       width="22.142857"
       height="9.6428576"
       x="340.35715"
       y="924.32648" />
    <rect
       style="fill:#000000;stroke:#000000"
       id="rect3996-83"
       width="22.142857"
       height="9.6428576"
       x="340.35715"
       y="902.18365" />
    <rect
       style="fill:#000000;stroke:#000000"
       id="rect3996-48"
       width="22.142857"
       height="9.6428576"
       x="340.35715"
       y="880.39789" />
    <rect
       style="fill:#000000;stroke:#000000"
       id="rect3996-499"
       width="22.142857"
       height="9.6428576"
       x="339.28571"
       y="858.96936" />
    <rect
       style="fill:#000000;stroke:#000000"
       id="rect3996-25"
       width="22.142857"
       height="9.6428576"
       x="338.92856"
       y="837.54077" />
    <rect
       style="fill:#000000;stroke:#000000"
       id="rect3996-53"
       width="22.142857"
       height="9.6428576"
       x="372.85715"
       y="650.04077" />
    <rect
       style="fill:#000000;stroke:#000000"
       id="rect3996-33"
       width="22.142857"
       height="9.6428576"
       x="372.5"
       y="670.04077" />
    <rect
       style="fill:#000000;stroke:#000000"
       id="rect3996-74"
       width="22.142857"
       height="9.6428576"
       x="372.14288"
       y="691.11224" />
    <rect
       style="fill:#000000;stroke:#000000;stroke-width:0.6751042"
       id="rect3996-380"
       width="8.5391808"
       height="11.396324"
       x="354.48041"
       y="649.16412" />
    <rect
       style="fill:#000000;stroke:#000000"
       id="rect3996-88"
       width="22.142857"
       height="9.6428576"
       x="250.71428"
       y="825.39789" />
    <rect
       style="fill:#000000;stroke:#000000"
       id="rect3996-06"
       width="22.142857"
       height="9.6428576"
       x="283.57144"
       y="824.68365" />
    <rect
       style="fill:#000000;stroke:#000000"
       id="rect3996-81"
       width="22.142857"
       height="9.6428576"
       x="272.5"
       y="845.39795" />
    <rect
       style="fill:#000000;stroke:#000000"
       id="rect3996-989"
       width="22.142857"
       height="9.6428576"
       x="306.78571"
       y="844.32648" />
    <rect
       style="fill:#000000;stroke:#000000;stroke-width:1.0170871"
       id="rect3996-72"
       width="22.125769"
       height="9.982913"
       x="308.22284"
       y="866.47791" />
    <rect
       style="fill:#000000;stroke:#000000;stroke-width:1.01619244"
       id="rect3996-28"
       width="22.12735"
       height="9.9646463"
       x="320.03784"
       y="880.08124"
       transform="matrix(0.99964485,0.02664895,-0.02491954,0.99968946,0,0)" />
    <rect
       style="fill:#000000;stroke:#000000"
       id="rect3996-289"
       width="22.142857"
       height="9.6428576"
       x="298.21429"
       y="908.9693" />
    <rect
       style="fill:#000000;stroke:#000000"
       id="rect3996-07"
       width="22.142857"
       height="9.6428576"
       x="297.85715"
       y="931.11218" />
    <rect
       style="fill:#000000;stroke:#000000"
       id="rect3996-815"
       width="22.142857"
       height="9.6428576"
       x="298.57141"
       y="952.54077" />
    <rect
       style="fill:#000000;stroke:#000000"
       id="rect3996-86"
       width="22.142857"
       height="9.6428576"
       x="121.78571"
       y="824.68365"
       inkscape:transform-center-x="-106.78571"
       inkscape:transform-center-y="20.714286" />
    <rect
       style="fill:#000000;stroke:#000000"
       id="rect3996-12"
       width="22.142857"
       height="9.6428576"
       x="112.14285"
       y="845.39789" />
    <rect
       style="fill:#000000;stroke:#000000"
       id="rect3996-42"
       width="22.142857"
       height="9.6428576"
       x="88.214287"
       y="824.68365" />
    <rect
       style="fill:#000000;stroke:#000000"
       id="rect3996-58"
       width="22.142857"
       height="9.6428576"
       x="80.35714"
       y="846.11218" />
    <rect
       style="fill:#000000;stroke:#000000"
       id="rect3996-62"
       width="22.142857"
       height="9.6428576"
       x="102.85714"
       y="866.11218" />
    <rect
       style="fill:#000000;stroke:#000000"
       id="rect3996-653"
       width="22.142857"
       height="9.6428576"
       x="72.14286"
       y="866.11218" />
    <rect
       style="fill:#000000;stroke:#000000"
       id="rect3996-92"
       width="22.142857"
       height="9.6428576"
       x="85.35714"
       y="886.82648" />
    <rect
       style="fill:#000000;stroke:#000000"
       id="rect3996-46"
       width="22.142857"
       height="9.6428576"
       x="86.071426"
       y="908.9693" />
    <rect
       style="fill:#000000;stroke:#000000"
       id="rect3996-18"
       width="22.142857"
       height="9.6428576"
       x="85.714279"
       y="931.11218" />
    <rect
       style="fill:#000000;stroke:#000000"
       id="rect3996-21"
       width="22.142857"
       height="9.6428576"
       x="85.714287"
       y="953.25507" />
    <rect
       style="fill:#000000;stroke:#000000;stroke-width:0.49465525"
       id="rect3996-92-1"
       width="5.1482015"
       height="10.148202"
       x="71.175903"
       y="886.57379" />
    <rect
       style="fill:#000000;stroke:#000000;stroke-width:0.49465525"
       id="rect3996-92-1-9"
       width="5.1482015"
       height="10.148202"
       x="70.283043"
       y="908.00238" />
    <rect
       style="fill:#000000;stroke:#000000;stroke-width:0.49465525"
       id="rect3996-92-1-7"
       width="5.1482015"
       height="10.148202"
       x="70.283043"
       y="930.50238" />
    <rect
       style="fill:#000000;stroke:#000000;stroke-width:0.49465525"
       id="rect3996-92-1-6"
       width="5.1482015"
       height="10.148202"
       x="70.283051"
       y="952.28815" />
    <rect
       style="fill:#000000;stroke:#000000;stroke-width:0.5434193"
       id="rect3996-92-1-2"
       width="3.3137231"
       height="19.028009"
       x="328.16458"
       y="888.02673" />
    <rect
       style="fill:#000000;stroke:#000000;stroke-width:0.5434193"
       id="rect3996-92-1-2-9"
       width="3.3137231"
       height="19.028009"
       x="329.05743"
       y="915.70532" />
    <rect
       style="fill:#000000;stroke:#000000;stroke-width:0.5434193"
       id="rect3996-92-1-2-5"
       width="3.3137231"
       height="19.028009"
       x="328.70029"
       y="943.91962" />
    <rect
       style="fill:#000000;stroke:#000000;stroke-width:0.66615194"
       id="rect3996-07-2"
       width="24.262421"
       height="3.905277"
       x="69.833076"
       y="973.08813" />
    <rect
       style="fill:#000000;stroke:#000000;stroke-width:0.65259713"
       id="rect3996-07-2-0"
       width="23.204546"
       height="3.9188318"
       x="104.11201"
       y="973.25995" />
    <rect
       style="fill:#000000;stroke:#000000;stroke-width:0.68370682"
       id="rect3996-07-2-03"
       width="25.673437"
       height="3.887722"
       x="137.34186"
       y="973.27551" />
    <rect
       style="fill:#000000;stroke:#000000;stroke-width:0.66615194"
       id="rect3996-07-2-03-9"
       width="24.262421"
       height="3.905277"
       x="171.79736"
       y="973.26672" />
    <rect
       style="fill:#000000;stroke:#000000;stroke-width:0.66615194"
       id="rect3996-07-2-03-1"
       width="24.262421"
       height="3.905277"
       x="204.6545"
       y="973.98096" />
    <rect
       style="fill:#000000;stroke:#000000;stroke-width:0.68370682"
       id="rect3996-07-2-03-8"
       width="25.673437"
       height="3.887722"
       x="237.87756"
       y="974.34692" />
    <rect
       style="fill:#000000;stroke:#000000;stroke-width:0.68370682"
       id="rect3996-07-2-03-19"
       width="25.673437"
       height="3.887722"
       x="270.73474"
       y="973.27551" />
    <rect
       style="fill:#000000;stroke:#000000;stroke-width:0.6793713"
       id="rect3996-07-2-03-5"
       width="25.320629"
       height="3.8920577"
       x="305.01825"
       y="972.55896" />
    <rect
       style="fill:#000000;stroke:#000000;stroke-width:0.77662635"
       id="rect3996-86-3"
       width="15.937658"
       height="8.0805168"
       x="154.17403"
       y="824.5719"
       inkscape:transform-center-x="-76.860636"
       inkscape:transform-center-y="17.358139" />
    <rect
       style="fill:#000000;stroke:#000000;stroke-width:0.71955585"
       id="rect3996-86-3-2"
       width="14.209015"
       height="7.7804446"
       x="225.57407"
       y="824.36481"
       inkscape:transform-center-x="-68.524114"
       inkscape:transform-center-y="16.713553" />
    <rect
       style="fill:#000000;stroke:#000000;stroke-width:0.80534518"
       id="rect3996-86-3-2-5"
       width="12.694654"
       height="10.908941"
       x="283.29553"
       y="865.3006"
       inkscape:transform-center-x="-61.220999"
       inkscape:transform-center-y="23.434042" />
    <rect
       style="fill:#000000;stroke:#000000;stroke-width:0.3835834"
       id="rect3996-86-3-2-5-2"
       width="5.2592735"
       height="5.9735603"
       x="270.58466"
       y="863.4826"
       inkscape:transform-center-x="-25.363276"
       inkscape:transform-center-y="12.832108" />
    <rect
       style="fill:#000000;stroke:#000000;stroke-width:0.3835834"
       id="rect3996-86-3-2-5-2-5"
       width="5.2592735"
       height="5.9735603"
       x="256.6561"
       y="845.44684"
       inkscape:transform-center-x="-25.363276"
       inkscape:transform-center-y="12.832108" />
    <rect
       style="fill:#000000;stroke:#000000;stroke-width:0.3835834"
       id="rect3996-86-3-2-5-2-8"
       width="5.2592735"
       height="5.9735603"
       x="145.9418"
       y="842.94684"
       inkscape:transform-center-x="-25.363276"
       inkscape:transform-center-y="12.832108" />
    <rect
       style="fill:#000000;stroke:#000000;stroke-width:0.3835834"
       id="rect3996-86-3-2-5-2-6"
       width="5.2592735"
       height="5.9735603"
       x="179.51321"
       y="822.94684"
       inkscape:transform-center-x="-25.363276"
       inkscape:transform-center-y="12.832108" />
    <rect
       style="fill:#000000;stroke:#000000;stroke-width:0.3835834"
       id="rect3996-86-3-2-5-2-7"
       width="5.2592735"
       height="5.9735603"
       x="144.51321"
       y="769.01831"
       inkscape:transform-center-x="-25.363276"
       inkscape:transform-center-y="12.832108" />
    <rect
       style="fill:#000000;stroke:#000000;stroke-width:0.3835834"
       id="rect3996-86-3-2-5-2-72"
       width="5.2592735"
       height="5.9735603"
       x="257.01321"
       y="768.66113"
       inkscape:transform-center-x="-25.363276"
       inkscape:transform-center-y="12.832108" />
    <rect
       style="fill:#000000;stroke:#000000;stroke-width:0.53616714"
       id="rect3996-86-3-2-5-2-2"
       width="6.5352612"
       height="9.3924055"
       x="301.73236"
       y="804.8089"
       inkscape:transform-center-x="-31.516833"
       inkscape:transform-center-y="20.176304" />
    <rect
       style="fill:#000000;stroke:#000000;stroke-width:0.54560679"
       id="rect3996-86-3-2-5-2-9"
       width="6.5258217"
       height="9.7401085"
       x="316.02283"
       y="825.52783"
       inkscape:transform-center-x="-31.47132"
       inkscape:transform-center-y="20.923203" />
    <rect
       style="fill:#000000;stroke:#000000;stroke-width:0.37118316"
       id="rect3996-86-3-2-5-2-4"
       width="5.9859595"
       height="4.9145317"
       x="191.64987"
       y="822.94061"
       inkscape:transform-center-x="-28.867783"
       inkscape:transform-center-y="10.55713" />
    <rect
       style="fill:#000000;stroke:#000000;stroke-width:0.36816007"
       id="rect3996-86-3-2-5-2-1"
       width="6.3461256"
       height="4.5604119"
       x="204.50552"
       y="822.58197"
       inkscape:transform-center-x="-30.604715"
       inkscape:transform-center-y="9.7964676" />
    <rect
       style="fill:#000000;stroke:#000000;stroke-width:0.28896633"
       id="rect3996-86-3-2-5-2-96"
       width="3.5681763"
       height="4.9967484"
       x="215.89449"
       y="825.3996"
       inkscape:transform-center-x="-17.207828"
       inkscape:transform-center-y="10.733827" />
    <rect
       style="fill:#000000;stroke:#000000;stroke-width:0.57152814"
       id="rect3996-86-3-2-5-2-98"
       width="46.499897"
       height="1.4999011"
       x="183.89291"
       y="753.75513"
       inkscape:transform-center-x="-224.24956"
       inkscape:transform-center-y="3.2220298" />
    <path
       style="fill:none;stroke:#000000;stroke-width:0.71428572999999995"
       d="M 216.56663,428.17858 43.490397,427.99709 43.912419,394.24855 C 44.144531,375.68684 44.654255,323.69643 45.045137,278.71429 45.824973,188.97212 46.36328,171.66533 49.021978,150.85714 54.398653,108.77681 66.108883,86.149213 91.071428,69.605255 120.78496,49.912578 176.66246,39.718485 272.5,36.506071 313.14563,35.143655 406.32869,36.31031 425.65352,38.423559 l 3.86782,0.42296 -0.47465,93.683881 c -0.26107,51.52614 -0.4748,139.24639 -0.47496,194.93389 l -3e-4,101.25 -19.46429,-0.17712 c -10.70535,-0.0974 -97.34858,-0.25878 -192.54051,-0.35859 l 0,0 z M 405,323.4755 c 0,-48.84562 -0.21383,-125.98848 -0.47516,-171.42857 l -0.47518,-82.618359 -28.09625,0 -28.09627,0 0,13.571429 0,13.571429 7.41374,0 7.41374,0 0.44777,52.678571 c 0.24628,28.97321 0.644,63.76786 0.88382,77.32143 l 0.43603,24.64286 -5.26183,-0.17533 c -8.96368,-0.29869 -20.64975,-1.60386 -28.28147,-3.15866 l -7.30535,-1.48831 -4.73585,-8.30314 c -6.2433,-10.94607 -11.90111,-18.76237 -16.72488,-23.10553 -2.16072,-1.94543 -8.92377,-7.18491 -15.02901,-11.64328 -29.31211,-21.40531 -42.78802,-26.96893 -70.03972,-28.91638 -24.98633,-1.78556 -44.41579,2.7527 -72.07413,16.83483 -16.88735,8.59812 -27.50266,16.35601 -39.64286,28.97185 -16.837748,17.49743 -28.57682,36.56862 -35.774807,58.11943 -6.859776,20.53821 -8.508194,33.08883 -7.600015,57.86452 0.360015,9.82142 0.59033,30.95535 0.511811,46.96428 l -0.142761,29.10714 171.324322,0 171.32431,0 0,-88.81021 z M 351.26128,153.53571 c -0.15749,-0.49107 -4.4432,-3.08352 -9.52381,-5.76102 -18.91955,-9.97063 -25.37324,-14.51133 -27.45005,-19.31333 -0.70638,-1.6333 -1.49853,-5.84435 -1.76637,-9.38993 -0.63997,-8.47176 -2.1221,-11.48122 -8.12814,-16.50424 -8.11139,-6.783762 -9.47347,-9.806935 -6.18128,-13.719479 2.21741,-2.635253 5.1924,-3.84352 14.28837,-5.80311 12.66659,-2.728825 15.28078,-4.798659 19.93104,-15.780747 6.10636,-14.420796 9.6922,-15.158276 31.14039,-6.404478 13.93357,5.686805 17.58896,6.932622 18.28853,6.233045 0.59559,-0.595591 -0.55146,-2.352223 -6.07337,-9.300973 -4.09806,-5.156966 -4.54974,-5.505734 -7.1303,-5.505734 -1.95053,0 -4.41965,-0.943078 -8.45507,-3.229394 -9.82473,-5.566328 -16.38671,-5.877564 -21.89796,-1.038627 -1.31303,1.152861 -4.86202,5.796429 -7.88662,10.319041 -6.05225,9.049755 -8.37907,11.072707 -16.40072,14.258919 -2.70196,1.073221 -10.73767,4.530344 -17.85714,7.682496 -17.53469,7.763497 -20.04782,8.690564 -22.13721,8.166161 -4.28825,-1.076281 -9.06263,-7.518899 -11.5796,-15.625659 -1.15272,-3.712737 -1.19398,-4.989772 -0.4269,-13.214286 C 262.4821,54.596964 262.85193,49.375 262.83691,48 l -0.0273,-2.5 -1.39792,1.677771 c -2.61327,3.1364 -7.126,21.421817 -7.126,28.874243 0,4.058281 0.91673,6.274674 5.97588,14.447986 1.45904,2.357143 2.84278,5.038048 3.075,5.957566 0.65795,2.605453 -1.02735,7.068434 -3.84825,10.190834 -5.81535,6.43691 -23.1464,14.7406 -29.13008,13.95686 -1.93594,-0.25356 -3.40572,-1.01313 -4.56233,-2.35777 -1.64407,-1.91133 -1.68925,-2.26444 -1.23883,-9.68055 0.55188,-9.086624 -0.0304,-11.043088 -4.48149,-15.059703 -1.64995,-1.488876 -6.69875,-4.526991 -11.21955,-6.751364 -12.85355,-6.324352 -16.11706,-10.533448 -16.10552,-20.772078 0.003,-3.016087 0.34235,-6.930224 0.75322,-8.698081 0.41087,-1.767857 0.75489,-4.459 0.76449,-5.980318 0.0147,-2.327063 -0.14572,-2.630599 -1.01081,-1.912645 -3.10145,2.573978 -8.36904,17.691508 -8.40863,24.132073 -0.0447,7.274377 1.99711,9.503083 14.57216,15.905795 10.28897,5.238734 12.92239,7.470521 14.82954,12.567841 2.05424,5.49044 1.94585,9.58535 -0.30981,11.70443 -1.69197,1.58952 -1.8974,1.6174 -4.46429,0.60565 -1.47988,-0.58329 -5.04335,-2.77924 -7.91881,-4.87988 -4.46446,-3.26146 -5.79636,-3.86647 -9.11835,-4.14195 -3.37034,-0.2795 -4.2665,-0.0618 -6.70578,1.62856 -1.54855,1.07315 -4.76113,4.46618 -7.13907,7.54007 -4.88644,6.31657 -9.30121,10.383 -11.78866,10.85851 -2.32321,0.44411 -5.15626,-0.90233 -8.9486,-4.25293 -6.64353,-5.86968 -9.26863,-6.01988 -15.28024,-0.87431 -2.45674,2.10283 -4.63682,3.43825 -5.23699,3.20794 -0.5655,-0.217 -1.15435,-0.39455 -1.30856,-0.39455 -0.15421,0 -0.79789,-1.00076 -1.43041,-2.22391 -0.96355,-1.8633 -1.0718,-3.68758 -0.66755,-11.25 0.54834,-10.257952 -0.54712,-18.994038 -3.56411,-28.423202 -2.08016,-6.501202 -2.76633,-7.757265 -3.86633,-7.077427 -0.54821,0.338812 -0.78827,4.915418 -0.76351,14.555796 0.0351,13.640973 -0.98538,24.211233 -2.7847,28.845673 -0.41146,1.05981 -1.5804,2.47226 -2.59763,3.13878 -1.7999,1.17934 -1.90677,1.15698 -3.98464,-0.83374 -3.27811,-3.14063 -5.49079,-8.51488 -6.74183,-16.37483 -1.2572,-7.898631 -2.22397,-10.917726 -3.17979,-9.930087 -0.96123,0.993226 -3.59371,16.510457 -3.59371,21.183227 0,4.73758 1.32821,7.83278 5.37489,12.52542 3.29611,3.82226 8.01406,6.25621 14.22271,7.33741 6.39022,1.1128 9.32427,0.5322 16.53845,-3.2727 8.60441,-4.53814 10.20714,-4.37046 17.43538,1.82414 4.79867,4.11246 6.40607,4.97545 9.26722,4.97545 3.85409,0 8.02524,-2.75554 15.0185,-9.92149 7.82092,-8.01405 10.7753,-9.72517 15.76987,-9.13365 3.82508,0.45303 7.67198,2.27822 16.01584,7.59885 11.7613,7.49982 18.46678,7.51552 33.57143,0.0786 10.71486,-5.27557 15.16463,-8.45879 21.40082,-15.3094 11.83631,-13.002525 18.11657,-14.233141 26.63299,-5.21874 4.87998,5.16532 7.22883,9.51637 9.09359,16.84508 2.21606,8.70941 4.9482,13.82163 9.65831,18.07208 7.15486,6.45661 12.03417,8.67964 25.48221,11.6098 8.91903,1.94334 13.35249,2.25713 12.92193,0.91458 l 0,0 z"
       id="path4743"
       inkscape:connector-curvature="0"
       transform="translate(0,572.3622)" />
    <path
       style="fill:none;stroke:#000000;stroke-width:0.50507629"
       d="m 161.28339,393.06239 -43.25336,-0.13193 -0.33864,-2.2582 c -0.69997,-4.66775 -1.15486,-25.96011 -0.74904,-35.06082 1.0101,-22.65176 3.84373,-32.25877 14.01863,-47.52818 6.02579,-9.04286 10.18829,-14.15643 17.50233,-21.50136 24.01565,-24.11706 47.47821,-31.00319 73.62385,-21.60819 19.21149,6.90334 39.74154,24.52031 54.72943,46.96371 7.28725,10.91219 9.65928,17.02668 11.56778,29.81883 1.52912,10.24928 1.79798,37.21628 0.48384,48.52817 l -0.36673,3.15673 -41.98236,-0.12341 c -23.0903,-0.0679 -61.44638,-0.18278 -85.23573,-0.25535 z"
       id="path4745"
       inkscape:connector-curvature="0"
       transform="translate(0,572.3622)" />
    <path
       style="fill:none;stroke:#000000;stroke-width:0.35714287"
       d="m 255.71429,216.5 0,-7.14286 12.85714,0 12.85714,0 0,7.14286 0,7.14286 -12.85714,0 -12.85714,0 0,-7.14286 z M 280,216.32143 l 0,-5.53572 -11.78571,0 -11.78572,0 0,5.53572 0,5.53571 11.78572,0 11.78571,0 0,-5.53571 z"
       id="path4747"
       inkscape:connector-curvature="0"
       transform="translate(0,572.3622)" />
    <path
       style="fill:none;stroke:#000000;stroke-width:0.35714287"
       d="m 255.35714,199.35714 0,-4.28571 3.92857,0 3.92858,0 0,4.28571 0,4.28572 -3.92858,0 -3.92857,0 0,-4.28572 z m 7.14286,-0.17857 0,-3.39286 -2.85714,0 -2.85715,0 0,3.39286 0,3.39286 2.85715,0 2.85714,0 0,-3.39286 z"
       id="path4749"
       inkscape:connector-curvature="0"
       transform="translate(0,572.3622)" />
    <path
       style="fill:none;stroke:#000000;stroke-width:0.35714287"
       d="m 222.14286,196.5 0,-7.14286 12.85714,0 12.85714,0 0,7.14286 0,7.14286 -12.85714,0 -12.85714,0 0,-7.14286 z m 25,-0.17857 0,-5.53572 -11.78572,0 -11.78571,0 0,5.53572 0,5.53571 11.78571,0 11.78572,0 0,-5.53571 z"
       id="path4751"
       inkscape:connector-curvature="0"
       transform="translate(0,572.3622)" />
    <path
       style="fill:none;stroke:#000000;stroke-width:0.35714287"
       d="m 232.22572,182.21429 c 0,-0.6875 0.0735,-0.96875 0.16332,-0.625 0.0898,0.34375 0.0898,0.90625 0,1.25 -0.0898,0.34375 -0.16332,0.0625 -0.16332,-0.625 z"
       id="path4753"
       inkscape:connector-curvature="0"
       transform="translate(0,572.3622)" />
    <path
       style="fill:none;stroke:#000000;stroke-width:0.35714287"
       d="m 189.28571,196.5 0,-7.14286 12.85715,0 12.85714,0 0,7.14286 0,7.14286 -12.85714,0 -12.85715,0 0,-7.14286 z m 24.64286,-0.17857 0,-5.53572 -11.78571,0 -11.78572,0 0,5.53572 0,5.53571 11.78572,0 11.78571,0 0,-5.53571 z"
       id="path4755"
       inkscape:connector-curvature="0"
       transform="translate(0,572.3622)" />
    <path
       style="fill:none;stroke:#000000;stroke-width:0.35714287"
       d="m 156.42857,197.21429 0,-7.14286 12.85714,0 12.85715,0 0,7.14286 0,7.14285 -12.85715,0 -12.85714,0 0,-7.14285 z m 24.64286,0.17857 0,-5.53572 -11.78572,0 -11.78571,0 0,5.53572 0,5.53571 11.78571,0 11.78572,0 0,-5.53571 z"
       id="path4757"
       inkscape:connector-curvature="0"
       transform="translate(0,572.3622)" />
    <path
       style="fill:none;stroke:#000000;stroke-width:0.35714287"
       d=""
       id="path4759"
       inkscape:connector-curvature="0"
       transform="translate(0,572.3622)" />
    <path
       style="fill:none;stroke:#000000;stroke-width:0.35714287"
       d="m 123.35803,217.92857 c 0,-3.04464 0.0548,-4.29018 0.12172,-2.76786 0.067,1.52233 0.067,4.0134 0,5.53572 -0.0669,1.52232 -0.12172,0.27678 -0.12172,-2.76786 z"
       id="path4761"
       inkscape:connector-curvature="0"
       transform="translate(0,572.3622)" />
    <path
       style="fill:none;stroke:#000000;stroke-width:0.35714287"
       d=""
       id="path4763"
       inkscape:connector-curvature="0"
       transform="translate(0,572.3622)" />
    <path
       style="fill:none;stroke:#000000;stroke-width:0.35714287"
       d="m 190.49998,216.32143 c 5e-4,-2.94643 0.0558,-4.10426 0.12292,-2.57296 0.0671,1.5313 0.0667,3.94201 -9.1e-4,5.35714 -0.0676,1.41513 -0.12251,0.16225 -0.12201,-2.78418 z"
       id="path4765"
       inkscape:connector-curvature="0"
       transform="translate(0,572.3622)" />
    <path
       style="fill:none;stroke:#000000;stroke-width:0.35714287"
       d="m 222.85714,216.5 0,-7.14286 12.85715,0 12.85714,0 0,7.14286 0,7.14286 -12.85714,0 -12.85715,0 0,-7.14286 z m 24.64286,-0.17857 0,-5.53572 -11.78571,0 -11.78572,0 0,5.53572 0,5.53571 11.78572,0 11.78571,0 0,-5.53571 z"
       id="path4767"
       inkscape:connector-curvature="0"
       transform="translate(0,572.3622)" />
    <path
       style="fill:none;stroke:#000000;stroke-width:0.35714287"
       d="m 241.69643,231.58993 c 3.19196,-0.0592 8.41518,-0.0592 11.60714,0 3.19197,0.0592 0.58036,0.10762 -5.80357,0.10762 -6.38393,0 -8.99554,-0.0484 -5.80357,-0.10762 z"
       id="path4769"
       inkscape:connector-curvature="0"
       transform="translate(0,572.3622)" />
    <path
       style="fill:none;stroke:#000000;stroke-width:0.35714287"
       d="m 275.26786,232.66136 c 3.19196,-0.0592 8.41518,-0.0592 11.60714,0 3.19196,0.0592 0.58036,0.10762 -5.80357,0.10762 -6.38393,0 -8.99554,-0.0484 -5.80357,-0.10762 z"
       id="path4771"
       inkscape:connector-curvature="0"
       transform="translate(0,572.3622)" />
    <path
       style="fill:none;stroke:#000000;stroke-width:0.35714287"
       d="m 300.35714,237.03571 0,-6.25 4.64286,0 4.64286,0 0,6.25 0,6.25 -4.64286,0 -4.64286,0 0,-6.25 z m 8.21429,0 0,-5.17857 -3.57143,0 -3.57143,0 0,5.17857 0,5.17858 3.57143,0 3.57143,0 0,-5.17858 z"
       id="path4773"
       inkscape:connector-curvature="0"
       transform="translate(0,572.3622)" />
    <path
       style="fill:none;stroke:#000000;stroke-width:0.35714287"
       d="m 288.83929,251.58993 c 3.19196,-0.0592 8.41517,-0.0592 11.60714,0 3.19196,0.0592 0.58036,0.10762 -5.80357,0.10762 -6.38393,0 -8.99554,-0.0484 -5.80357,-0.10762 z"
       id="path4775"
       inkscape:connector-curvature="0"
       transform="translate(0,572.3622)" />
    <path
       style="fill:none;stroke:#000000;stroke-width:0.35714287"
       d="m 312.05357,271.23278 c 3.19197,-0.0592 8.41518,-0.0592 11.60714,0 3.19197,0.0592 0.58036,0.10762 -5.80357,0.10762 -6.38393,0 -8.99553,-0.0484 -5.80357,-0.10762 z"
       id="path4777"
       inkscape:connector-curvature="0"
       transform="translate(0,572.3622)" />
    <path
       style="fill:none;stroke:#000000;stroke-width:0.35714287"
       d="m 338.57143,269.89286 0,-5.17857 11.42857,0 11.42857,0 0,5.17857 0,5.17857 -11.42857,0 -11.42857,0 0,-5.17857 z"
       id="path4779"
       inkscape:connector-curvature="0"
       transform="translate(0,572.3622)" />
    <path
       style="fill:none;stroke:#000000;stroke-width:0.35714287"
       d="m 338.92857,291.32143 0,-5.17857 11.42857,0 11.42857,0 0,5.17857 0,5.17857 -11.42857,0 -11.42857,0 0,-5.17857 z"
       id="path4781"
       inkscape:connector-curvature="0"
       transform="translate(0,572.3622)" />
    <path
       style="fill:none;stroke:#000000;stroke-width:0.35714287"
       d="m 372.85714,292.75 0,-5.17857 11.42857,0 11.42858,0 0,5.17857 0,5.17857 -11.42858,0 -11.42857,0 0,-5.17857 z"
       id="path4783"
       inkscape:connector-curvature="0"
       transform="translate(0,572.3622)" />
    <path
       style="fill:none;stroke:#000000;stroke-width:0.35714287"
       d="m 370,272.21429 0,-7.14286 12.85714,0 12.85715,0 0,7.14286 0,7.14285 -12.85715,0 -12.85714,0 0,-7.14285 z m 24.64286,-0.53572 0,-5.53571 -11.78572,0 -11.78571,0 0,5.53571 0,5.53572 11.78571,0 11.78572,0 0,-5.53572 z"
       id="path4785"
       inkscape:connector-curvature="0"
       transform="translate(0,572.3622)" />
    <path
       style="fill:none;stroke:#000000;stroke-width:0.35714287"
       d="m 371.57141,251.32143 c 5e-4,-2.94643 0.0558,-4.10426 0.12292,-2.57296 0.0671,1.5313 0.0667,3.94201 -9.1e-4,5.35714 -0.0676,1.41513 -0.12251,0.16225 -0.12201,-2.78418 z"
       id="path4787"
       inkscape:connector-curvature="0"
       transform="translate(0,572.3622)" />
    <path
       style="fill:none;stroke:#000000;stroke-width:0.35714287"
       d="m 371.92855,228.82143 c 5e-4,-2.94643 0.0558,-4.10426 0.12293,-2.57296 0.0671,1.5313 0.0667,3.94201 -9.1e-4,5.35714 -0.0676,1.41513 -0.12252,0.16225 -0.12202,-2.78418 z"
       id="path4789"
       inkscape:connector-curvature="0"
       transform="translate(0,572.3622)" />
    <path
       style="fill:none;stroke:#000000;stroke-width:0.35714287"
       d="m 371.21426,208.46429 c 5.1e-4,-2.94643 0.0558,-4.10427 0.12293,-2.57297 0.0671,1.5313 0.0667,3.94202 -9.1e-4,5.35715 -0.0676,1.41513 -0.12252,0.16224 -0.12202,-2.78418 z"
       id="path4791"
       inkscape:connector-curvature="0"
       transform="translate(0,572.3622)" />
    <path
       style="fill:none;stroke:#000000;stroke-width:0.35714287"
       d="m 370.71429,187.03571 0,-5.17857 11.42857,0 11.42857,0 0,5.17857 0,5.17858 -11.42857,0 -11.42857,0 0,-5.17858 z"
       id="path4793"
       inkscape:connector-curvature="0"
       transform="translate(0,572.3622)" />
    <path
       style="fill:none;stroke:#000000;stroke-width:0.35714287"
       d="m 370,165.78571 0,-7.14285 12.85714,0 12.85715,0 0,7.14285 0,7.14286 -12.85715,0 -12.85714,0 0,-7.14286 z m 24.64286,0.17858 0,-5.53572 -11.78572,0 -11.78571,0 0,5.53572 0,5.53571 11.78571,0 11.78572,0 0,-5.53571 z"
       id="path4795"
       inkscape:connector-curvature="0"
       transform="translate(0,572.3622)" />
    <path
       style="fill:none;stroke:#000000;stroke-width:0.35714287"
       d="m 353.21429,82.928571 0,-7.5 5.71428,0 5.71429,0 0,7.5 0,7.5 -5.71429,0 -5.71428,0 0,-7.5 z m 10.35714,-0.535714 0,-6.25 -4.82143,0 -4.82143,0 0,6.25 0,6.25 4.82143,0 4.82143,0 0,-6.25 z"
       id="path4797"
       inkscape:connector-curvature="0"
       transform="translate(0,572.3622)" />
    <path
       style="fill:none;stroke:#000000;stroke-width:0.35714287"
       d="m 372.28569,82.392857 c 5e-4,-2.946429 0.0558,-4.104262 0.12293,-2.572962 0.0671,1.531299 0.0667,3.942013 -9.1e-4,5.357143 -0.0676,1.415129 -0.12252,0.162248 -0.12202,-2.784181 z"
       id="path4799"
       inkscape:connector-curvature="0"
       transform="translate(0,572.3622)" />
    <path
       style="fill:none;stroke:#000000;stroke-width:0.35714287"
       d="m 371.92855,102.39286 c 5e-4,-2.946432 0.0558,-4.104265 0.12293,-2.572965 0.0671,1.531295 0.0667,3.942015 -9.1e-4,5.357145 -0.0676,1.41513 -0.12252,0.16225 -0.12202,-2.78418 z"
       id="path4801"
       inkscape:connector-curvature="0"
       transform="translate(0,572.3622)" />
    <path
       style="fill:none;stroke:#000000;stroke-width:0.35714287"
       d="m 370,123.64286 0,-7.14286 12.85714,0 12.85715,0 0,7.14286 0,7.14285 -12.85715,0 -12.85714,0 0,-7.14285 z m 25,-0.17857 0,-5.53572 -11.78571,0 -11.78572,0 0,5.53572 0,5.53571 11.78572,0 11.78571,0 0,-5.53571 z"
       id="path4803"
       inkscape:connector-curvature="0"
       transform="translate(0,572.3622)" />
    <path
       style="fill:none;stroke:#000000;stroke-width:0.35714287"
       d="m 370,144.35714 0,-7.14285 12.85714,0 12.85715,0 0,7.14285 0,7.14286 -12.85715,0 -12.85714,0 0,-7.14286 z m 25,-0.17857 0,-5.53571 -11.78571,0 -11.78572,0 0,5.53571 0,5.53572 11.78572,0 11.78571,0 0,-5.53572 z"
       id="path4805"
       inkscape:connector-curvature="0"
       transform="translate(0,572.3622)" />
    <path
       style="fill:none;stroke:#000000;stroke-width:0.35714287"
       d="m 371.42857,292.92857 0,-7.14286 12.85714,0 12.85715,0 0,7.14286 0,7.14286 -12.85715,0 -12.85714,0 0,-7.14286 z m 24.64286,-0.17857 0,-5.53571 -11.78572,0 -11.78571,0 0,5.53571 0,5.53571 11.78571,0 11.78572,0 0,-5.53571 z"
       id="path4807"
       inkscape:connector-curvature="0"
       transform="translate(0,572.3622)" />
    <path
       style="fill:none;stroke:#000000;stroke-width:0.35714287"
       d="m 371.42857,314.35714 0,-7.14285 12.85714,0 12.85715,0 0,7.14285 0,7.14286 -12.85715,0 -12.85714,0 0,-7.14286 z m 24.64286,-0.53571 0,-5.53572 -11.78572,0 -11.78571,0 0,5.53572 0,5.53571 11.78571,0 11.78572,0 0,-5.53571 z"
       id="path4809"
       inkscape:connector-curvature="0"
       transform="translate(0,572.3622)" />
    <path
       style="fill:none;stroke:#000000;stroke-width:0.35714287"
       d="m 372.64284,335.96429 c 5e-4,-2.94643 0.0558,-4.10427 0.12292,-2.57297 0.0671,1.5313 0.0667,3.94202 -9.1e-4,5.35715 -0.0676,1.41513 -0.12251,0.16224 -0.12201,-2.78418 z"
       id="path4811"
       inkscape:connector-curvature="0"
       transform="translate(0,572.3622)" />
    <path
       style="fill:none;stroke:#000000;stroke-width:0.35714287"
       d="m 371.42857,357.92857 0,-7.14286 12.85714,0 12.85715,0 0,7.14286 0,7.14286 -12.85715,0 -12.85714,0 0,-7.14286 z m 24.28572,-0.17857 0,-5.53571 -11.78572,0 -11.78571,0 0,5.53571 0,5.53571 11.78571,0 11.78572,0 0,-5.53571 z"
       id="path4813"
       inkscape:connector-curvature="0"
       transform="translate(0,572.3622)" />
    <path
       style="fill:none;stroke:#000000;stroke-width:0.35714287"
       d="m 371.42857,378.64286 0,-7.14286 12.85714,0 12.85715,0 0,7.14286 0,7.14285 -12.85715,0 -12.85714,0 0,-7.14285 z m 23.92857,-0.17857 0,-5.53572 -11.78571,0 -11.78572,0 0,5.53572 0,5.53571 11.78572,0 11.78571,0 0,-5.53571 z"
       id="path4815"
       inkscape:connector-curvature="0"
       transform="translate(0,572.3622)" />
    <path
       style="fill:none;stroke:#000000;stroke-width:0.35714287"
       d="m 370.71429,398.64286 0,-7.14286 12.85714,0 12.85714,0 0,7.14286 0,7.14285 -12.85714,0 -12.85714,0 0,-7.14285 z m 24.64285,-0.17857 0,-5.53572 -11.78571,0 -11.78572,0 0,5.53572 0,5.53571 11.78572,0 11.78571,0 0,-5.53571 z"
       id="path4817"
       inkscape:connector-curvature="0"
       transform="translate(0,572.3622)" />
    <path
       style="fill:none;stroke:#000000;stroke-width:0.35714287"
       d="m 338.57143,397.92857 0,-7.14286 12.85714,0 12.85714,0 0,7.14286 0,7.14286 -12.85714,0 -12.85714,0 0,-7.14286 z m 24.64286,-0.53571 0,-5.53572 -11.78572,0 -11.78571,0 0,5.53572 0,5.53571 11.78571,0 11.78572,0 0,-5.53571 z"
       id="path4819"
       inkscape:connector-curvature="0"
       transform="translate(0,572.3622)" />
    <path
       style="fill:none;stroke:#000000;stroke-width:0.35714287"
       d="m 339.28571,377.21429 0,-7.14286 12.85715,0 12.85714,0 0,7.14286 0,7.14285 -12.85714,0 -12.85715,0 0,-7.14285 z m 24.64286,-0.17858 0,-5.53571 -11.78571,0 -11.78572,0 0,5.53571 0,5.53572 11.78572,0 11.78571,0 0,-5.53572 z"
       id="path4821"
       inkscape:connector-curvature="0"
       transform="translate(0,572.3622)" />
    <path
       style="fill:none;stroke:#000000;stroke-width:0.35714287"
       d="m 338.57143,356.5 0,-7.14286 12.85714,0 12.85714,0 0,7.14286 0,7.14286 -12.85714,0 -12.85714,0 0,-7.14286 z m 24.64286,0.17857 0,-5.53571 -11.78572,0 -11.78571,0 0,5.53571 0,5.53572 11.78571,0 11.78572,0 0,-5.53572 z"
       id="path4823"
       inkscape:connector-curvature="0"
       transform="translate(0,572.3622)" />
    <path
       style="fill:none;stroke:#000000;stroke-width:0.35714287"
       d="m 340,334.53571 0,-5.17857 11.42857,0 11.42857,0 0,5.17857 0,5.17858 -11.42857,0 -11.42857,0 0,-5.17858 z"
       id="path4825"
       inkscape:connector-curvature="0"
       transform="translate(0,572.3622)" />
    <path
       style="fill:none;stroke:#000000;stroke-width:0.35714287"
       d="m 338.57143,312.92857 0,-7.14286 12.85714,0 12.85714,0 0,7.14286 0,7.14286 -12.85714,0 -12.85714,0 0,-7.14286 z m 24.64286,-0.17857 0,-5.53571 -11.78572,0 -11.78571,0 0,5.53571 0,5.53571 11.78571,0 11.78572,0 0,-5.53571 z"
       id="path4827"
       inkscape:connector-curvature="0"
       transform="translate(0,572.3622)" />
    <path
       style="fill:none;stroke:#000000;stroke-width:0.35714287"
       d="m 333.01567,325.07143 c 0,-5.99107 0.0489,-8.44197 0.10861,-5.44643 0.0597,2.99554 0.0597,7.89732 0,10.89286 -0.0597,2.99553 -0.10861,0.54464 -0.10861,-5.44643 z"
       id="path4831"
       inkscape:connector-curvature="0"
       transform="translate(0,572.3622)" />
    <path
       style="fill:none;stroke:#000000;stroke-width:0.35714287"
       d="m 327.85714,352.92857 0,-10.71428 2.85715,0 2.85714,0 0,10.71428 0,10.71429 -2.85714,0 -2.85715,0 0,-10.71429 z m 5,0 0,-10 -2.14285,0 -2.14286,0 0,10 0,10 2.14286,0 2.14285,0 0,-10 z"
       id="path4835"
       inkscape:connector-curvature="0"
       transform="translate(0,572.3622)" />
    <path
       style="fill:none;stroke:#000000;stroke-width:0.35714287"
       d="m 328.37096,381.14286 c 0,-5.40179 0.0496,-7.61161 0.11031,-4.91072 0.0607,2.7009 0.0607,7.12054 0,9.82143 -0.0607,2.70089 -0.11031,0.49107 -0.11031,-4.91071 z"
       id="path4837"
       inkscape:connector-curvature="0"
       transform="translate(0,572.3622)" />
    <path
       style="fill:none;stroke:#000000;stroke-width:0.35714287"
       d="m 297.85714,341.32143 0,-5.17857 11.42857,0 11.42858,0 0,5.17857 0,5.17857 -11.42858,0 -11.42857,0 0,-5.17857 z"
       id="path4839"
       inkscape:connector-curvature="0"
       transform="translate(0,572.3622)" />
    <path
       style="fill:none;stroke:#000000;stroke-width:0.35714287"
       d="m 297.5,363.46429 0,-5.17858 11.42857,0 11.42857,0 0,5.17858 0,5.17857 -11.42857,0 -11.42857,0 0,-5.17857 z"
       id="path4841"
       inkscape:connector-curvature="0"
       transform="translate(0,572.3622)" />
    <path
       style="fill:none;stroke:#000000;stroke-width:0.35714287"
       d="m 296.42857,385.07143 0,-7.14286 12.85714,0 12.85715,0 0,7.14286 0,7.14286 -12.85715,0 -12.85714,0 0,-7.14286 z m 25,-0.17857 0,-5.53572 -11.78571,0 -11.78572,0 0,5.53572 0,5.53571 11.78572,0 11.78571,0 0,-5.53571 z"
       id="path4843"
       inkscape:connector-curvature="0"
       transform="translate(0,572.3622)" />
    <path
       style="fill:none;stroke:#000000;stroke-width:0.35714287"
       d="m 304.75717,402.21429 c 0,-1.27679 0.0648,-1.79911 0.14404,-1.16072 0.0792,0.63839 0.0792,1.68304 0,2.32143 -0.0792,0.63839 -0.14404,0.11607 -0.14404,-1.16071 z"
       id="path4845"
       inkscape:connector-curvature="0"
       transform="translate(0,572.3622)" />
    <path
       style="fill:none;stroke:#000000;stroke-width:0.35714287"
       d="m 269.28571,402.92857 0,-3.21428 14.28572,0 14.28571,0 0,3.21428 0,3.21429 -14.28571,0 -14.28572,0 0,-3.21429 z m 27.5,0 0,-2.5 -13.21428,0 -13.21429,0 0,2.5 0,2.5 13.21429,0 13.21428,0 0,-2.5 z"
       id="path4847"
       inkscape:connector-curvature="0"
       transform="translate(0,572.3622)" />
    <path
       style="fill:none;stroke:#000000;stroke-width:0.35714287"
       d="m 237.85714,404 0,-2.14286 12.85715,0 12.85714,0 0,2.14286 0,2.14286 -12.85714,0 -12.85715,0 0,-2.14286 z"
       id="path4849"
       inkscape:connector-curvature="0"
       transform="translate(0,572.3622)" />
    <path
       style="fill:none;stroke:#000000;stroke-width:0.35714287"
       d="m 202.85714,403.64286 0,-3.21429 14.28572,0 14.28571,0 0,3.21429 0,3.21428 -14.28571,0 -14.28572,0 0,-3.21428 z m 26.42857,0 0,-2.5 -12.5,0 -12.5,0 0,2.5 0,2.5 12.5,0 12.5,0 0,-2.5 z"
       id="path4851"
       inkscape:connector-curvature="0"
       transform="translate(0,572.3622)" />
    <path
       style="fill:none;stroke:#000000;stroke-width:0.35714287"
       d="m 170,402.92857 0,-3.21428 14.28571,0 14.28572,0 0,3.21428 0,3.21429 -14.28572,0 -14.28571,0 0,-3.21429 z m 26.42857,0 0,-2.5 -12.5,0 -12.5,0 0,2.5 0,2.5 12.5,0 12.5,0 0,-2.5 z"
       id="path4853"
       inkscape:connector-curvature="0"
       transform="translate(0,572.3622)" />
    <path
       style="fill:none;stroke:#000000;stroke-width:0.35714287"
       d="m 135.71429,402.92857 0,-3.21428 14.28571,0 14.28571,0 0,3.21428 0,3.21429 -14.28571,0 -14.28571,0 0,-3.21429 z m 27.85714,0 0,-2.5 -13.39286,0 -13.39286,0 0,2.5 0,2.5 13.39286,0 13.39286,0 0,-2.5 z"
       id="path4855"
       inkscape:connector-curvature="0"
       transform="translate(0,572.3622)" />
    <path
       style="fill:none;stroke:#000000;stroke-width:0.35714287"
       d="m 101.42857,402.92857 0,-3.21428 14.28572,0 14.28571,0 0,3.21428 0,3.21429 -14.28571,0 -14.28572,0 0,-3.21429 z m 26.42857,0 0,-2.5 -12.14285,0 -12.14286,0 0,2.5 0,2.5 12.14286,0 12.14285,0 0,-2.5 z"
       id="path4857"
       inkscape:connector-curvature="0"
       transform="translate(0,572.3622)" />
    <path
       style="fill:none;stroke:#000000;stroke-width:0.35714287"
       d="m 67.5,402.92857 0,-3.21428 14.285714,0 14.285714,0 0,3.21428 0,3.21429 -14.285714,0 -14.285714,0 0,-3.21429 z m 27.142857,-0.35714 0,-2.5 -12.678572,0 -12.678571,0 0,2.5 0,2.5 12.678571,0 12.678572,0 0,-2.5 z"
       id="path4859"
       inkscape:connector-curvature="0"
       transform="translate(0,572.3622)" />
    <path
       style="fill:none;stroke:#000000;stroke-width:0.35714287"
       d="m 85.142836,385.60714 c 5e-4,-2.94643 0.05582,-4.10426 0.122925,-2.57296 0.06711,1.5313 0.0667,3.94201 -9.1e-4,5.35714 -0.06761,1.41513 -0.122516,0.16225 -0.122015,-2.78418 z"
       id="path4861"
       inkscape:connector-curvature="0"
       transform="translate(0,572.3622)" />
    <path
       style="fill:none;stroke:#000000;stroke-width:0.35714287"
       d="m 84.285714,363.64286 0,-7.14286 12.857143,0 12.857143,0 0,7.14286 0,7.14285 -12.857143,0 -12.857143,0 0,-7.14285 z m 24.285716,-0.17857 0,-5.53572 -11.785716,0 -11.785714,0 0,5.53572 0,5.53571 11.785714,0 11.785716,0 0,-5.53571 z"
       id="path4863"
       inkscape:connector-curvature="0"
       transform="translate(0,572.3622)" />
    <path
       style="fill:none;stroke:#000000;stroke-width:0.35714287"
       d="m 110.15064,341.5 c 0,-4.02679 0.0521,-5.67411 0.11575,-3.66071 0.0637,2.01339 0.0637,5.30803 0,7.32142 -0.0637,2.0134 -0.11575,0.36608 -0.11575,-3.66071 z"
       id="path4865"
       inkscape:connector-curvature="0"
       transform="translate(0,572.3622)" />
    <path
       style="fill:none;stroke:#000000;stroke-width:0.35714287"
       d="m 84.285714,319.35714 0,-7.14285 12.857143,0 12.857143,0 0,7.14285 0,7.14286 -12.857143,0 -12.857143,0 0,-7.14286 z m 23.928576,-0.17857 0,-5.53571 -11.785719,0 -11.785714,0 0,5.53571 0,5.53572 11.785714,0 11.785719,0 0,-5.53572 z"
       id="path4867"
       inkscape:connector-curvature="0"
       transform="translate(0,572.3622)" />
    <path
       style="fill:none;stroke:#000000;stroke-width:0.35714287"
       d="m 101.42857,298.64286 0,-7.14286 12.85714,0 12.85715,0 0,7.14286 0,7.14285 -12.85715,0 -12.85714,0 0,-7.14285 z m 24.28572,-0.17857 0,-5.53572 -11.78572,0 -11.78571,0 0,5.53572 0,5.53571 11.78571,0 11.78572,0 0,-5.53571 z"
       id="path4871"
       inkscape:connector-curvature="0"
       transform="translate(0,572.3622)" />
    <path
       style="fill:none;stroke:#000000;stroke-width:0.35714287"
       d="m 110,277.92857 0,-7.14286 12.85714,0 12.85715,0 0,7.14286 0,7.14286 -12.85715,0 -12.85714,0 0,-7.14286 z m 25,-0.17857 0,-5.53571 -11.78571,0 -11.78572,0 0,5.53571 0,5.53571 11.78572,0 11.78571,0 0,-5.53571 z"
       id="path4873"
       inkscape:connector-curvature="0"
       transform="translate(0,572.3622)" />
    <path
       style="fill:none;stroke:#000000;stroke-width:0.35714287"
       d="m 121.21426,257.03571 c 5e-4,-2.94642 0.0558,-4.10426 0.12293,-2.57296 0.0671,1.5313 0.0667,3.94202 -9.1e-4,5.35715 -0.0676,1.41512 -0.12252,0.16224 -0.12202,-2.78419 z"
       id="path4875"
       inkscape:connector-curvature="0"
       transform="translate(0,572.3622)" />
    <path
       style="fill:none;stroke:#000000;stroke-width:0.35714287"
       d="m 135.71429,237.92857 0,-7.14286 12.85714,0 12.85714,0 0,7.14286 0,7.14286 -12.85714,0 -12.85714,0 0,-7.14286 z m 24.64285,-0.35714 0,-5.71429 -11.78571,0 -11.78572,0 0,5.71429 0,5.71428 11.78572,0 11.78571,0 0,-5.71428 z"
       id="path4877"
       inkscape:connector-curvature="0"
       transform="translate(0,572.3622)" />
    <path
       style="fill:none;stroke:#000000;stroke-width:0.35714287"
       d="m 122.14286,217.92857 0,-7.14286 12.85714,0 12.85714,0 0,7.14286 0,7.14286 -12.85714,0 -12.85714,0 0,-7.14286 z m 24.64285,0 0,-5.71428 -11.74854,0 -11.74854,0 -0.25292,2.85714 c -0.1391,1.57143 -0.1391,4.14286 0,5.71428 l 0.25292,2.85715 11.74854,0 11.74854,0 0,-5.71429 z"
       id="path4879"
       inkscape:connector-curvature="0"
       transform="translate(0,572.3622)" />
    <path
       style="fill:none;stroke:#000000;stroke-width:0.35714287"
       d="m 143.21429,199.35714 0,-4.28571 3.92857,0 3.92857,0 0,4.28571 0,4.28572 -3.92857,0 -3.92857,0 0,-4.28572 z m 6.78571,0.17857 0,-3.39285 -2.85714,0 -2.85715,0 0,3.39285 0,3.39286 2.85715,0 2.85714,0 0,-3.39286 z"
       id="path4881"
       inkscape:connector-curvature="0"
       transform="translate(0,572.3622)" />
    <path
       style="fill:none;stroke:#000000;stroke-width:0.35714287"
       d="m 102.85714,237.21429 0,-7.14286 12.85715,0 12.85714,0 0,7.14286 0,7.14285 -12.85714,0 -12.85715,0 0,-7.14285 z m 24.64286,-0.17858 0,-5.53571 -11.78571,0 -11.78572,0 0,5.53571 0,5.53572 11.78572,0 11.78571,0 0,-5.53572 z"
       id="path4883"
       inkscape:connector-curvature="0"
       transform="translate(0,572.3622)" />
    <path
       style="fill:none;stroke:#000000;stroke-width:0.35714287"
       d="m 87.642836,257.03571 c 5e-4,-2.94642 0.05582,-4.10426 0.122925,-2.57296 0.06711,1.5313 0.0667,3.94202 -9.1e-4,5.35715 -0.06761,1.41512 -0.122516,0.16224 -0.122015,-2.78419 z"
       id="path4885"
       inkscape:connector-curvature="0"
       transform="translate(0,572.3622)" />
    <path
       style="fill:none;stroke:#000000;stroke-width:0.35714287"
       d="m 79.785693,278.46429 c 5e-4,-2.94643 0.05582,-4.10427 0.122925,-2.57297 0.06711,1.5313 0.0667,3.94202 -9.1e-4,5.35715 -0.06761,1.41513 -0.122516,0.16224 -0.122015,-2.78418 z"
       id="path4887"
       inkscape:connector-curvature="0"
       transform="translate(0,572.3622)" />
    <path
       style="fill:none;stroke:#000000;stroke-width:0.35714287"
       d="m 96.579212,298.64286 c 0,-4.02679 0.05209,-5.67411 0.115745,-3.66072 0.06366,2.0134 0.06366,5.30804 0,7.32143 -0.06366,2.01339 -0.115745,0.36607 -0.115745,-3.66071 z"
       id="path4889"
       inkscape:connector-curvature="0"
       transform="translate(0,572.3622)" />
    <path
       style="fill:none;stroke:#000000;stroke-width:0.35714287"
       d="m 69.642857,319.35714 0,-7.5 3.928571,0 3.928572,0 0,7.5 0,7.5 -3.928572,0 -3.928571,0 0,-7.5 z m 7.142857,-0.17857 0,-5.53571 -3.035714,0 -3.035715,0 0,5.53571 0,5.53572 3.035715,0 3.035714,0 0,-5.53572 z"
       id="path4891"
       inkscape:connector-curvature="0"
       transform="translate(0,572.3622)" />
    <path
       style="fill:none;stroke:#000000;stroke-width:0.35714287"
       d="m 68.928571,340.78571 0,-7.5 3.928571,0 3.928572,0 0,7.5 0,7.5 -3.928572,0 -3.928571,0 0,-7.5 z m 6.785714,-0.17857 0,-5.53571 -2.857143,0 -2.857142,0 0,5.53571 0,5.53572 2.857142,0 2.857143,0 0,-5.53572 z"
       id="path4893"
       inkscape:connector-curvature="0"
       transform="translate(0,572.3622)" />
    <path
       style="fill:none;stroke:#000000;stroke-width:0.35714287"
       d=""
       id="path4895"
       inkscape:connector-curvature="0"
       transform="translate(0,572.3622)" />
    <path
       style="fill:none;stroke:#000000;stroke-width:0.35714287"
       d="m 70.141926,363.28571 c 0,-2.84821 0.05546,-4.01339 0.123254,-2.58928 0.06779,1.42411 0.06779,3.75446 0,5.17857 -0.06779,1.42411 -0.123254,0.25893 -0.123254,-2.58929 z"
       id="path4897"
       inkscape:connector-curvature="0"
       transform="translate(0,572.3622)" />
    <path
       style="fill:none;stroke:#000000;stroke-width:0.35714287"
       d="m 70.141926,385.07143 c 0,-2.84822 0.05546,-4.01339 0.123254,-2.58929 0.06779,1.42411 0.06779,3.75447 0,5.17857 -0.06779,1.42411 -0.123254,0.25893 -0.123254,-2.58928 z"
       id="path4899"
       inkscape:connector-curvature="0"
       transform="translate(0,572.3622)" />
    <path
       style="fill:none;stroke:#000000;stroke-width:0.35714287"
       d="m 68.928571,362.92857 0,-7.5 3.928571,0 3.928572,0 0,7.5 0,7.5 -3.928572,0 -3.928571,0 0,-7.5 z m 6.785714,0.17857 0,-5.53571 -2.811027,0 -2.811026,0 -0.252089,2.8899 c -0.13865,1.58944 -0.14052,4.08052 -0.0042,5.53571 l 0.247933,2.64582 2.815183,0 2.815183,0 0,-5.53572 z"
       id="path4901"
       inkscape:connector-curvature="0"
       transform="translate(0,572.3622)" />
    <path
       style="fill:none;stroke:#000000;stroke-width:0.35714287"
       d="m 68.928571,385.07143 0,-7.5 3.928571,0 3.928572,0 0,7.5 0,7.5 -3.928572,0 -3.928571,0 0,-7.5 z m 6.785714,-0.17857 0,-5.53572 -2.811027,0 -2.811026,0 -0.252089,2.8899 c -0.13865,1.58945 -0.14052,4.08052 -0.0042,5.53572 l 0.247933,2.64581 2.815183,0 2.815183,0 0,-5.53571 z"
       id="path4903"
       inkscape:connector-curvature="0"
       transform="translate(0,572.3622)" />
  </g>
</svg>
