<?xml version="1.0" encoding="UTF-8" standalone="no"?>
<!-- Created with Inkscape (http://www.inkscape.org/) -->

<svg
   xmlns:dc="http://purl.org/dc/elements/1.1/"
   xmlns:cc="http://creativecommons.org/ns#"
   xmlns:rdf="http://www.w3.org/1999/02/22-rdf-syntax-ns#"
   xmlns:svg="http://www.w3.org/2000/svg"
   xmlns="http://www.w3.org/2000/svg"
   xmlns:sodipodi="http://sodipodi.sourceforge.net/DTD/sodipodi-0.dtd"
   xmlns:inkscape="http://www.inkscape.org/namespaces/inkscape"
   width="800"
   height="200"
   id="svg2"
   version="1.1"
   inkscape:version="0.48.4 r9939"
   sodipodi:docname="SecondaryLogo.svg">
  <defs
     id="defs4" />
  <sodipodi:namedview
     id="base"
     pagecolor="#ffffff"
     bordercolor="#666666"
     borderopacity="1.0"
     inkscape:pageopacity="0"
     inkscape:pageshadow="2"
     inkscape:zoom="1.4"
     inkscape:cx="510.65848"
     inkscape:cy="6.5553499"
     inkscape:document-units="px"
     inkscape:current-layer="layer1"
     showgrid="false"
     width="800px"
     inkscape:window-width="1920"
     inkscape:window-height="1058"
     inkscape:window-x="1912"
     inkscape:window-y="-8"
     inkscape:window-maximized="1" />
  <metadata
     id="metadata7">
    <rdf:RDF>
      <cc:Work
         rdf:about="">
        <dc:format>image/svg+xml</dc:format>
        <dc:type
           rdf:resource="http://purl.org/dc/dcmitype/StillImage" />
        <dc:title></dc:title>
      </cc:Work>
    </rdf:RDF>
  </metadata>
  <g
     inkscape:label="Layer 1"
     inkscape:groupmode="layer"
     id="layer1"
     transform="translate(0,-852.36218)">
    <path
       style="fill:#000000;stroke:#000000;stroke-width:0.71428573"
       d="M 695.3125 18.65625 L 359.9375 19.09375 C 175.49107 19.324218 24.547833 19.550037 24.5 19.59375 C 24.452168 19.637464 24.262015 54.116599 24.0625 96.25 L 23.6875 172.875 L 287.71875 173.0625 C 432.93038 173.16176 599.25024 173.30855 657.3125 173.40625 L 762.875 173.59375 L 762.375 131.625 L 761.875 89.65625 L 756.09375 83.46875 C 752.91482 80.069581 737.9375 64.093763 722.8125 47.96875 L 695.3125 18.65625 z M 65.5625 40.28125 C 70.029387 40.281351 72.249966 41.567436 72.25 44.125 C 72.249966 45.566688 71.872354 46.591054 71.09375 47.21875 C 70.315081 47.846634 69.021879 48.156343 67.21875 48.15625 C 63.36652 48.156343 61.437477 49.474422 61.4375 52.125 C 61.437477 53.101651 61.695706 54.292497 62.1875 55.6875 L 82.71875 116.71875 L 83.5 118.34375 L 84.1875 116.875 L 103.34375 54.84375 C 103.83546 53.216234 104.09368 51.977396 104.09375 51.09375 C 104.09368 49.001208 102.50895 47.826358 99.3125 47.59375 C 97.591243 47.407832 96.384118 47.090124 95.6875 46.625 C 94.990768 46.160065 94.624944 45.175691 94.625 43.6875 C 94.624944 42.804042 94.980009 42.026141 95.65625 41.375 C 96.332377 40.724059 97.335071 40.406351 98.6875 40.40625 C 99.834904 40.406351 101.4304 40.668069 103.5 41.15625 C 105.56947 41.644631 107.70294 41.875099 109.875 41.875 C 111.39122 41.875099 113.00824 41.644631 114.75 41.15625 C 116.49161 40.668069 118.03228 40.406351 119.34375 40.40625 C 120.778 40.406351 121.87753 40.779304 122.65625 41.5 C 123.4348 42.220895 123.84366 43.134026 123.84375 44.25 C 123.84366 45.784694 123.29493 46.793063 122.25 47.28125 C 121.2049 47.769625 119.87942 48.031343 118.28125 48.03125 C 116.31409 48.031343 114.56796 48.753999 113.03125 50.21875 C 111.49439 51.683683 110.13561 54.40708 108.90625 58.40625 L 84.0625 138.96875 C 83.980493 139.24777 83.8191 139.91444 83.59375 140.9375 C 83.36831 141.96056 83.066015 142.65922 82.65625 143.03125 C 82.246397 143.40327 81.72994 143.59375 81.15625 143.59375 C 80.664437 143.59375 80.211508 143.34003 79.78125 142.875 C 79.35091 142.40997 78.984057 141.62407 78.65625 140.53125 C 78.328363 139.43843 78.113172 138.79502 78.03125 138.5625 L 50.5 55.28125 C 48.901734 50.538037 46.465965 48.156343 43.1875 48.15625 C 41.302376 48.156343 39.85854 47.743397 38.875 46.90625 C 37.891459 46.069291 37.406251 44.957686 37.40625 43.5625 C 37.406251 41.562971 38.742491 40.562601 41.40625 40.5625 C 43.250386 40.562601 45.492484 40.87231 48.15625 41.5 C 50.819997 42.127889 52.598406 42.437599 53.5 42.4375 C 54.360583 42.437599 56.407981 42.064645 59.625 41.34375 C 62.841977 40.623054 64.824818 40.281351 65.5625 40.28125 z M 463.75 40.5625 L 511.09375 40.5625 C 512.69195 40.562601 513.69362 40.793069 514.0625 41.28125 C 514.43127 41.769631 514.70129 42.785999 514.90625 44.34375 C 515.1111 45.901695 515.33705 47.394253 515.5625 48.8125 C 515.78784 50.230932 515.90619 51.397783 515.90625 52.28125 C 515.90619 55.071515 514.88301 56.468835 512.875 56.46875 C 512.38318 56.468835 511.93025 56.207116 511.5 55.71875 C 511.06965 55.230555 510.51988 53.912476 509.84375 51.75 C 509.16752 49.587703 508.48864 48.182385 507.8125 47.53125 C 507.13627 46.880303 506.38207 46.562595 505.5625 46.5625 L 488.71875 46.5625 C 485.80908 46.562595 483.90156 46.999536 483 47.90625 C 482.0984 48.81315 481.65623 50.186475 481.65625 52 L 481.65625 66.71875 C 481.65623 69.834521 482.03384 72.041736 482.8125 73.34375 C 483.59111 74.6459 485.47712 75.281316 488.46875 75.28125 L 504.8125 75.28125 C 506.12384 75.281316 507.14703 74.669895 507.84375 73.4375 C 508.54038 72.20524 508.87495 70.783925 508.875 69.15625 C 508.87495 68.365772 509.11166 67.746353 509.5625 67.28125 C 510.01324 66.816295 510.563 66.562575 511.21875 66.5625 C 511.91537 66.562575 512.50818 66.856287 513 67.4375 C 513.49172 68.01886 513.74995 68.820757 513.75 69.84375 C 513.74995 70.820383 513.68539 72.225701 513.5625 74.0625 C 513.4395 75.899433 513.37495 77.399989 513.375 78.5625 C 513.37495 80.329674 513.48254 82.203184 513.6875 84.15625 C 513.89235 86.10943 513.99995 87.300277 514 87.71875 C 513.99995 88.741868 513.75248 89.559761 513.28125 90.1875 C 512.80992 90.815341 512.22787 91.12505 511.53125 91.125 C 510.79354 91.12505 510.16846 90.720103 509.65625 89.90625 C 509.14394 89.0925 508.87495 87.988893 508.875 86.59375 C 508.87495 83.245593 507.11806 81.56256 503.59375 81.5625 L 487.3125 81.5625 C 485.26343 81.56256 483.88415 81.927515 483.1875 82.625 C 482.4908 83.322603 482.15623 84.33897 482.15625 85.6875 L 482.15625 127.25 C 482.15623 129.06363 482.5446 130.65942 483.34375 132.03125 C 484.14285 133.4031 485.77063 134.4987 488.25 135.3125 C 490.72931 136.12631 492.23771 136.85696 492.75 137.53125 C 493.26223 138.20555 493.53122 138.99145 493.53125 139.875 C 493.53122 141.4561 492.68018 142.25 491 142.25 C 490.18035 142.25 488.59664 141.86905 486.28125 141.125 C 483.9658 140.38095 481.71295 140.03125 479.5 140.03125 C 475.6068 140.03125 472.40607 140.4282 469.90625 141.21875 C 467.40641 142.0093 465.80015 142.40625 465.0625 142.40625 C 462.52168 142.40625 461.25 141.2154 461.25 138.84375 C 461.25 138.23921 461.4447 137.68378 461.875 137.21875 C 462.3053 136.75372 463.60926 136.23754 465.78125 135.65625 C 467.95323 135.07497 469.40782 134.25708 470.125 133.1875 C 470.84215 132.11794 471.18749 130.84785 471.1875 129.40625 L 471.1875 65.59375 C 471.18749 59.129918 471.07886 54.691493 470.8125 52.25 C 470.54611 49.808685 470.00711 48.252883 469.1875 47.625 C 468.36787 46.997304 466.85948 46.687594 464.6875 46.6875 C 463.21218 46.687594 462.08037 46.393882 461.28125 45.8125 C 460.48212 45.231309 460.0625 44.508653 460.0625 43.625 C 460.0625 42.788045 460.42832 42.073388 461.125 41.46875 C 461.82167 40.864312 462.68449 40.562601 463.75 40.5625 z M 260.96875 41.59375 C 261.41951 41.59385 262.39965 41.705085 263.875 41.9375 C 265.35027 42.170114 266.53588 42.281349 267.4375 42.28125 C 269.32258 42.281349 270.9396 42.217361 272.3125 42.03125 C 273.68531 41.845337 274.52559 41.750099 274.8125 41.75 C 276.28776 41.750099 277.25818 42.203038 277.75 43.15625 C 278.24172 44.109658 278.49995 45.450988 278.5 47.125 C 278.49995 50.194288 278.52147 52.639969 278.5625 54.5 C 278.60343 56.360204 278.62495 58.027241 278.625 59.46875 L 278.625 126.15625 C 278.62495 128.43491 279.02408 130.49164 279.84375 132.375 C 280.66331 134.25838 282.15019 135.6317 284.28125 136.46875 C 286.4122 137.30581 287.64084 137.90923 287.96875 138.28125 C 288.29654 138.65328 288.43744 139.06622 288.4375 139.53125 C 288.43744 141.53088 287.51006 142.53125 285.625 142.53125 C 285.01023 142.53125 284.13768 142.34077 283.03125 141.96875 C 281.92471 141.59673 280.51213 141.40625 278.75 141.40625 C 277.5615 141.40625 276.25754 141.59673 274.84375 141.96875 C 273.42986 142.34077 272.52503 142.53125 272.15625 142.53125 C 271.37757 142.53125 270.72021 142.21354 270.1875 141.5625 C 269.65471 140.91146 269.37393 140.2288 269.3125 139.53125 C 269.25099 138.83371 269.11111 138.5 268.90625 138.5 L 267.90625 138.96875 C 261.67712 142.968 256.44948 144.96875 252.1875 144.96875 C 246.12231 144.96875 240.66872 142.34859 235.8125 137.09375 C 230.95626 131.83892 228.5 125.8207 228.5 119.03125 C 228.5 111.26528 230.95729 104.86611 235.875 99.84375 C 240.79269 94.821474 246.51527 92.312549 253.03125 92.3125 C 255.77694 92.312549 258.62157 93.098448 261.53125 94.65625 C 264.44086 96.214145 265.87496 97.937171 265.875 99.84375 C 265.87496 100.44833 265.70178 100.95651 265.3125 101.375 C 264.92314 101.79357 264.46048 102.00004 263.96875 102 C 263.354 102.00004 261.95217 101.45186 259.71875 100.3125 C 257.48526 99.173219 255.41634 98.593793 253.53125 98.59375 C 249.39216 98.593793 245.89989 100.53129 243.03125 104.4375 C 240.16257 108.34378 238.71874 113.01193 238.71875 118.40625 C 238.71874 123.01006 240.0227 127.55172 242.625 132.0625 C 245.22727 136.57329 248.77333 138.84375 253.28125 138.84375 C 255.69909 138.84375 258.48993 138.07385 261.625 136.5625 C 264.76 135.05116 266.76436 133.01842 267.625 130.4375 C 268.48556 127.8566 268.90621 123.94235 268.90625 118.6875 L 268.90625 58.6875 C 268.90621 54.827839 268.33492 52.144434 267.1875 50.65625 C 266.04 49.168247 264.35945 48.056641 262.1875 47.3125 C 260.01548 46.568547 258.71049 46.028369 258.21875 45.65625 C 257.72695 45.284322 257.46872 44.6809 257.46875 43.84375 C 257.46872 43.239309 257.76026 42.691877 258.375 42.25 C 258.98968 41.808321 259.86223 41.59385 260.96875 41.59375 z M 138.71875 69.84375 C 140.60385 69.843821 142.22087 70.629721 143.59375 72.1875 C 144.96659 73.745417 145.65623 75.579678 145.65625 77.71875 C 145.65623 79.625434 144.97735 81.268475 143.625 82.59375 C 142.27261 83.919142 140.65662 84.562557 138.8125 84.5625 C 136.96835 84.562557 135.39437 83.839901 134.0625 82.375 C 132.73061 80.910216 132.06249 79.139943 132.0625 77.09375 C 132.06249 75.140691 132.73061 73.44166 134.0625 72 C 135.39437 70.558478 136.95656 69.843821 138.71875 69.84375 z M 210.5 69.84375 C 212.3851 69.843821 214.00212 70.629721 215.375 72.1875 C 216.74784 73.745417 217.43748 75.579678 217.4375 77.71875 C 217.43748 79.625434 216.7586 81.268475 215.40625 82.59375 C 214.05386 83.919142 212.46912 84.562557 210.625 84.5625 C 208.78085 84.562557 207.20687 83.839901 205.875 82.375 C 204.54311 80.910216 203.87499 79.139943 203.875 77.09375 C 203.87499 75.140691 204.54311 73.44166 205.875 72 C 207.20687 70.558478 208.73781 69.843821 210.5 69.84375 z M 305.65625 69.84375 C 307.54135 69.843821 309.18962 70.629721 310.5625 72.1875 C 311.93534 73.745417 312.59373 75.579678 312.59375 77.71875 C 312.59373 79.625434 311.9461 81.268475 310.59375 82.59375 C 309.24136 83.919142 307.62537 84.562557 305.78125 84.5625 C 303.9371 84.562557 302.36312 83.839901 301.03125 82.375 C 299.69936 80.910216 299.03124 79.139943 299.03125 77.09375 C 299.03124 75.140691 299.69936 73.44166 301.03125 72 C 302.36312 70.558478 303.89406 69.843821 305.65625 69.84375 z M 656.28125 77.3125 C 658.61711 77.312564 659.81245 78.693887 659.8125 81.4375 C 659.81245 83.065162 659.20992 84.375243 658.0625 85.375 C 656.91499 86.374869 655.45936 86.875054 653.65625 86.875 C 653.2464 86.875054 652.73967 86.795813 652.125 86.65625 C 651.51025 86.516796 650.97227 86.437555 650.5625 86.4375 C 648.5544 86.437555 646.88358 87.088224 645.53125 88.34375 C 644.17885 89.599382 643.49997 90.425274 643.5 90.84375 C 643.49997 91.30883 643.77971 91.5313 644.3125 91.53125 C 649.23017 92.228844 653.15281 94.181594 656.0625 97.34375 C 658.9721 100.50599 660.4062 104.46023 660.40625 109.25 C 660.4062 114.31885 658.39108 118.47882 654.375 121.6875 L 653.96875 122.3125 L 654.15625 122.59375 C 658.21331 124.82591 661.46886 127.97025 663.96875 132.0625 C 666.46853 136.15477 667.71869 140.5532 667.71875 145.25 C 667.71869 152.41145 664.90531 158.29444 659.25 162.875 C 653.59459 167.45552 646.91339 169.74997 639.25 169.75 C 631.38165 169.74997 624.69942 167.37628 619.1875 162.65625 C 613.67556 157.93618 610.9375 151.75148 610.9375 144.125 C 610.9375 139.66072 612.2307 135.50001 614.8125 131.59375 C 617.39429 127.68751 620.75744 124.71839 624.9375 122.71875 L 625.3125 122.25 L 624.8125 121.53125 C 622.76344 120.08968 621.16794 118.19217 620 115.84375 C 618.83204 113.49538 618.24999 110.94646 618.25 108.15625 C 618.24999 103.6455 619.9746 99.89048 623.4375 96.9375 C 626.90037 93.984608 631.29746 92.150347 636.625 91.40625 C 637.28067 91.313294 637.74436 90.932342 638.03125 90.28125 C 638.89182 88.04916 640.34642 85.611477 642.375 82.9375 C 644.40352 80.26364 646.23573 78.659847 647.875 78.125 C 649.5142 77.590279 652.30606 77.312564 656.28125 77.3125 z M 350.96875 90.5625 C 356.33721 90.562551 360.65899 92.087102 363.9375 95.15625 C 367.21593 98.22549 368.8437 101.89327 368.84375 106.125 L 368.84375 129.5625 C 368.8437 132.91072 370.81578 135.22917 374.75 136.53125 C 375.73349 136.85678 376.46617 137.23773 376.9375 137.65625 C 377.40872 138.07478 377.65619 138.86868 377.65625 140.03125 C 377.65619 140.63579 377.32265 141.15197 376.6875 141.59375 C 376.05224 142.03553 375.3626 142.25 374.625 142.25 C 373.84631 142.25 372.80058 142.04353 371.46875 141.625 C 370.13682 141.20647 369.06957 141 368.25 141 C 367.30739 141 366.12179 141.20647 364.6875 141.625 C 363.25313 142.04353 362.27298 142.25 361.78125 142.25 C 361.20748 142.25 360.64695 142.02753 360.09375 141.5625 C 359.54047 141.09747 359.24996 140.62128 359.25 140.15625 C 359.24996 139.4122 359.06602 139.03125 358.65625 139.03125 C 358.36935 139.03125 357.982 139.20573 357.53125 139.53125 C 352.90038 142.78646 347.89972 144.40625 342.53125 144.40625 C 339.99042 144.40625 337.16627 143.67559 334.03125 142.1875 C 330.8962 140.69941 328.38512 138.40495 326.5 135.3125 C 324.61488 132.22006 323.65625 128.40105 323.65625 123.84375 C 323.65625 119.00746 325.70365 114.72026 329.78125 111 C 333.85884 107.2798 339.12848 105.43754 345.5625 105.4375 C 347.73446 105.43754 350.11643 106.09695 352.71875 107.46875 C 355.321 108.84062 356.62497 110.24594 356.625 111.6875 C 356.62497 112.38507 356.34522 112.9565 355.8125 113.375 C 355.27971 113.79355 354.62235 114.00003 353.84375 114 C 353.31097 114.00003 352.27599 113.57908 350.71875 112.71875 C 349.16145 111.85847 347.57671 111.43753 345.9375 111.4375 C 342.57705 111.43753 339.77545 112.55713 337.5625 114.8125 C 335.34952 117.06792 334.24999 120.07703 334.25 123.84375 C 334.24999 128.21504 335.52167 131.55786 338.0625 133.90625 C 340.6033 136.25466 343.52428 137.4375 346.84375 137.4375 C 349.83533 137.4375 352.60464 136.3259 355.125 134.09375 C 357.64529 131.86162 358.90621 128.8765 358.90625 125.15625 L 358.90625 106.25 C 358.90621 103.41336 358.06594 101.1109 356.40625 99.34375 C 354.74649 97.57668 352.53667 96.718794 349.75 96.71875 C 346.18464 96.718794 342.70416 97.973629 339.34375 100.53125 C 338.19627 101.41485 337.40979 101.87504 337 101.875 C 336.01644 101.87504 335.19666 101.58133 334.5 101 C 333.80331 100.41875 333.43749 99.648851 333.4375 98.71875 C 333.43749 96.440149 335.2697 94.518648 338.9375 92.9375 C 342.60527 91.356448 346.62475 90.562551 350.96875 90.5625 z M 188.6875 90.71875 C 190.08082 90.7188 191.12655 90.973264 191.84375 91.53125 C 192.56088 92.089335 192.93746 92.740004 192.9375 93.4375 C 192.93746 94.646624 192.67923 95.591749 192.1875 96.3125 C 191.69569 97.03334 190.82314 97.930475 189.59375 99 C 184.38915 103.51083 180.6279 109.00487 178.3125 115.46875 C 175.99706 121.93268 174.84373 127.31549 174.84375 131.59375 C 174.84373 133.59339 175.0912 134.93546 175.5625 135.65625 C 176.03376 136.37705 177.16557 136.98047 178.96875 137.46875 C 180.77188 137.95703 181.93597 138.47322 182.46875 139.03125 C 183.00147 139.58929 183.28122 140.25595 183.28125 141 C 183.28122 142.34859 182.5593 143.03125 181.125 143.03125 C 179.97751 143.03125 178.37228 142.78553 176.34375 142.34375 C 174.31518 141.90197 172.14839 141.6875 169.8125 141.6875 C 168.25521 141.6875 166.66074 141.90197 165.0625 142.34375 C 163.46424 142.78553 162.45078 143.03125 162 143.03125 C 160.85253 143.03125 159.94667 142.76953 159.25 142.28125 C 158.55332 141.79297 158.1875 141.18155 158.1875 140.4375 C 158.1875 139.87947 158.39193 139.37928 158.78125 138.9375 C 159.17056 138.49572 160.25933 137.9163 162.0625 137.21875 C 163.86565 136.52121 164.96518 135.82255 165.375 135.125 C 165.7848 134.42746 165.99999 132.26749 166 128.59375 L 166 107.3125 C 165.99999 105.96395 165.70948 104.7571 165.15625 103.6875 C 164.603 102.61797 163.50347 101.80008 161.84375 101.21875 C 160.18402 100.6375 159.2136 100.13732 158.90625 99.71875 C 158.59889 99.300265 158.4375 98.824075 158.4375 98.3125 C 158.4375 96.777946 159.38639 96.000045 161.3125 96 C 161.84524 96.000045 162.75007 96.11128 164 96.34375 C 165.24991 96.576309 166.13322 96.718794 166.625 96.71875 C 167.0348 96.718794 167.70292 96.623556 168.625 96.4375 C 169.54706 96.251533 170.63583 96.156295 171.90625 96.15625 C 174.1192 96.156295 175.21873 98.80845 175.21875 104.15625 L 175.21875 107.59375 L 175.46875 109.53125 C 175.67363 109.53128 176.62253 107.32407 178.34375 102.90625 C 180.06492 98.48851 181.78851 95.360165 183.46875 93.5 C 185.14894 91.63993 186.88431 90.7188 188.6875 90.71875 z M 604.46875 90.71875 C 605.86207 90.7188 606.9078 90.973264 607.625 91.53125 C 608.34213 92.089335 608.71871 92.740004 608.71875 93.4375 C 608.71871 94.646624 608.46048 95.591749 607.96875 96.3125 C 607.47694 97.03334 606.63564 97.930475 605.40625 99 C 600.20165 103.51083 596.4404 109.00487 594.125 115.46875 C 591.80956 121.93268 590.65623 127.31549 590.65625 131.59375 C 590.65623 133.59339 590.87245 134.93546 591.34375 135.65625 C 591.81501 136.37705 592.94682 136.98047 594.75 137.46875 C 596.55313 137.95703 597.71722 138.47322 598.25 139.03125 C 598.78272 139.58929 599.06247 140.25595 599.0625 141 C 599.06247 142.34859 598.34055 143.03125 596.90625 143.03125 C 595.75876 143.03125 594.18478 142.78553 592.15625 142.34375 C 590.12768 141.90197 587.92964 141.6875 585.59375 141.6875 C 584.03646 141.6875 582.47324 141.90197 580.875 142.34375 C 579.27674 142.78553 578.23203 143.03125 577.78125 143.03125 C 576.63378 143.03125 575.72792 142.76953 575.03125 142.28125 C 574.33457 141.79297 573.96875 141.18155 573.96875 140.4375 C 573.96875 139.87947 574.17318 139.37928 574.5625 138.9375 C 574.95181 138.49572 576.04058 137.9163 577.84375 137.21875 C 579.6469 136.52121 580.77768 135.82255 581.1875 135.125 C 581.5973 134.42746 581.78124 132.26749 581.78125 128.59375 L 581.78125 107.3125 C 581.78124 105.96395 581.52198 104.7571 580.96875 103.6875 C 580.4155 102.61797 579.28472 101.80008 577.625 101.21875 C 575.96527 100.6375 574.99485 100.13732 574.6875 99.71875 C 574.38014 99.300265 574.21875 98.824075 574.21875 98.3125 C 574.21875 96.777946 575.19889 96.000045 577.125 96 C 577.65774 96.000045 578.53132 96.11128 579.78125 96.34375 C 581.03116 96.576309 581.91447 96.718794 582.40625 96.71875 C 582.81605 96.718794 583.48417 96.623556 584.40625 96.4375 C 585.32831 96.251533 586.41708 96.156295 587.6875 96.15625 C 589.90045 96.156295 590.99998 98.80845 591 104.15625 L 591 107.59375 L 591.25 109.53125 C 591.45488 109.53128 592.43503 107.32407 594.15625 102.90625 C 595.87742 98.48851 597.56976 95.360165 599.25 93.5 C 600.93019 91.63993 602.66556 90.7188 604.46875 90.71875 z M 543.625 91 C 550.4278 91.00005 556.34507 93.636208 561.40625 98.9375 C 566.46734 104.23888 568.99995 110.35234 569 117.28125 C 568.99995 125.04726 566.5857 131.3672 561.75 136.25 C 556.91421 141.13281 550.42668 143.59375 542.3125 143.59375 C 535.91946 143.59375 530.19586 141.10082 525.09375 136.125 C 519.99162 131.14919 517.4375 124.95649 517.4375 117.5625 C 517.4375 110.49408 519.66884 104.29338 524.15625 98.96875 C 528.64365 93.644206 535.14193 91.00005 543.625 91 z M 698.40625 91.125 C 706.97122 91.12505 713.39419 93.617979 717.65625 98.59375 C 721.91821 103.56961 724.0312 109.50859 724.03125 116.4375 C 724.0312 117.92562 723.71814 118.83875 723.0625 119.1875 C 722.40675 119.53629 721.19963 119.71877 719.4375 119.71875 L 691.21875 119.71875 C 688.9238 119.71877 687.78123 118.78164 687.78125 116.875 C 687.78123 115.06141 688.96684 114.15628 691.34375 114.15625 L 710.9375 114.15625 C 711.88002 114.15628 712.51586 113.9658 712.84375 113.59375 C 713.17155 113.22175 713.34371 112.53909 713.34375 111.5625 C 713.34371 107.9818 712.12582 104.64699 709.6875 101.53125 C 707.2491 98.415593 703.57393 96.843794 698.65625 96.84375 C 695.25481 96.843794 691.72054 98.670057 688.09375 102.34375 C 684.46693 106.01752 682.65624 111.22585 682.65625 117.96875 C 682.65624 122.89808 684.57452 127.35176 688.40625 131.28125 C 692.23794 135.21076 696.52744 137.15625 701.28125 137.15625 C 704.88754 137.15625 708.78866 135.87017 712.96875 133.3125 C 714.56696 132.33595 715.60193 131.87501 716.09375 131.875 C 716.83136 131.87501 717.4134 132.09748 717.84375 132.5625 C 718.274 133.02754 718.49995 133.61496 718.5 134.3125 C 718.49995 135.98661 716.24709 138.02735 711.71875 140.46875 C 707.19032 142.91015 702.51348 144.125 697.71875 144.125 C 690.62903 144.125 684.67948 141.3936 679.84375 135.90625 C 675.008 130.41891 672.59375 123.8925 672.59375 116.3125 C 672.59375 109.38359 675.22422 103.4606 680.53125 98.53125 C 685.83826 93.601982 691.8083 91.12505 698.40625 91.125 z M 419.3125 92.71875 C 421.44347 92.718798 423.28643 93.330219 424.84375 94.5625 C 426.40098 95.794874 427.45644 97.358675 427.96875 99.21875 C 428.48096 101.07891 428.7187 103.69907 428.71875 107.09375 L 428.65625 111.5625 L 428.65625 131.71875 C 428.6562 133.71839 428.96823 135.02847 429.5625 135.65625 C 430.15667 136.28405 431.21316 136.79223 432.75 137.1875 C 434.28673 137.58278 435.06244 138.33668 435.0625 139.40625 C 435.06244 140.84784 434.29749 141.5625 432.78125 141.5625 C 432.49433 141.5625 431.26569 141.48326 429.09375 141.34375 C 426.92172 141.20424 425.10027 141.125 423.625 141.125 C 421.1661 141.125 419.08643 141.29948 417.40625 141.625 C 415.726 141.95052 414.64799 142.125 414.15625 142.125 C 413.41856 142.125 412.72892 141.83929 412.09375 141.28125 C 411.45851 140.72321 411.15622 140.04055 411.15625 139.25 C 411.15622 138.64546 411.40472 138.06604 411.9375 137.53125 C 412.47022 136.99647 413.08454 136.75 413.78125 136.75 C 415.0926 136.75 416.25669 136.32906 417.28125 135.46875 C 418.30573 134.60845 418.84371 133.31437 418.84375 131.59375 C 418.84371 120.38655 418.87702 113.42395 419 110.75 C 419.1229 108.07611 419.18746 106.57556 419.1875 106.25 C 419.18746 102.62281 417.73184 100.81254 414.78125 100.8125 C 413.51081 100.81254 411.70012 101.91615 409.34375 104.125 C 406.98732 106.33393 405.29602 107.43753 404.3125 107.4375 C 403.98463 107.43753 403.62854 107.21506 403.21875 106.75 C 402.80892 106.28501 402.59373 105.79282 402.59375 105.28125 C 402.59373 103.65368 404.47973 101.15276 408.25 97.78125 C 412.02021 94.409831 415.70614 92.718798 419.3125 92.71875 z M 129.25 93.4375 C 129.94667 93.437548 130.92784 93.580777 132.21875 93.90625 C 133.50964 94.231818 134.44777 94.406297 135.0625 94.40625 C 135.75916 94.406297 136.8469 94.295062 138.28125 94.0625 C 139.71556 93.830032 140.77206 93.718797 141.46875 93.71875 C 142.98502 93.718797 143.74998 95.148111 143.75 98.03125 C 143.74998 98.496322 143.72846 99.107743 143.6875 99.875 C 143.6465 100.64234 143.62498 101.15852 143.625 101.4375 L 143.625 130.53125 C 143.62498 132.8099 143.98107 134.30246 144.71875 135 C 145.45638 135.69755 146.45805 136.16574 147.6875 136.375 C 148.9169 136.58427 149.76896 136.84673 150.28125 137.21875 C 150.79348 137.59078 151.06247 138.36868 151.0625 139.53125 C 151.06247 141.06585 149.87687 141.84375 147.5 141.84375 C 146.47545 141.84375 144.92402 141.68527 142.875 141.40625 C 140.82594 141.12723 139.32728 141 138.34375 141 C 137.36019 141 135.91636 141.19048 134.03125 141.5625 C 132.14612 141.93452 130.7238 142.125 129.78125 142.125 C 128.83868 142.125 128.05118 141.82329 127.375 141.21875 C 126.69881 140.61421 126.34375 139.82031 126.34375 138.84375 C 126.34375 138.23921 126.53742 137.72303 126.90625 137.28125 C 127.27507 136.83948 128.20245 136.46652 129.71875 136.1875 C 131.23503 135.90849 132.31202 135.33706 132.90625 134.5 C 133.50046 133.66295 133.78124 131.64622 133.78125 128.4375 L 133.78125 104.875 C 133.78124 102.87541 133.42515 101.52608 132.6875 100.875 C 131.94983 100.224 130.87182 99.763062 129.4375 99.4375 C 128.00316 99.112021 127.09833 98.667825 126.75 98.15625 C 126.40166 97.644761 126.21875 97.025342 126.21875 96.28125 C 126.21875 95.444242 126.53077 94.753581 127.125 94.21875 C 127.71922 93.684013 128.43038 93.437548 129.25 93.4375 z M 201.03125 93.4375 C 201.72792 93.437548 202.74034 93.580777 204.03125 93.90625 C 205.32214 94.231818 206.26027 94.406297 206.875 94.40625 C 207.57166 94.406297 208.62815 94.295062 210.0625 94.0625 C 211.49681 93.830032 212.58456 93.718797 213.28125 93.71875 C 214.79752 93.718797 215.53123 95.148111 215.53125 98.03125 C 215.53123 98.496322 215.50971 99.107743 215.46875 99.875 C 215.42775 100.64234 215.40623 101.15852 215.40625 101.4375 L 215.40625 130.53125 C 215.40623 132.8099 215.79357 134.30246 216.53125 135 C 217.26888 135.69755 218.2393 136.16574 219.46875 136.375 C 220.69815 136.58427 221.58146 136.84673 222.09375 137.21875 C 222.60598 137.59078 222.84372 138.36868 222.84375 139.53125 C 222.84372 141.06585 221.65812 141.84375 219.28125 141.84375 C 218.2567 141.84375 216.73652 141.68527 214.6875 141.40625 C 212.63844 141.12723 211.10853 141 210.125 141 C 209.14144 141 207.72886 141.19048 205.84375 141.5625 C 203.95862 141.93452 202.5363 142.125 201.59375 142.125 C 200.65118 142.125 199.83243 141.82329 199.15625 141.21875 C 198.48006 140.61421 198.15625 139.82031 198.15625 138.84375 C 198.15625 138.23921 198.31867 137.72303 198.6875 137.28125 C 199.05632 136.83948 200.01495 136.46652 201.53125 136.1875 C 203.04753 135.90849 204.09327 135.33706 204.6875 134.5 C 205.28171 133.66295 205.59374 131.64622 205.59375 128.4375 L 205.59375 104.875 C 205.59374 102.87541 205.2064 101.52608 204.46875 100.875 C 203.73108 100.224 202.65307 99.763062 201.21875 99.4375 C 199.78441 99.112021 198.87958 98.667825 198.53125 98.15625 C 198.18291 97.644761 198.03125 97.025342 198.03125 96.28125 C 198.03125 95.444242 198.31202 94.753581 198.90625 94.21875 C 199.50047 93.684013 200.21163 93.437548 201.03125 93.4375 z M 296.1875 93.4375 C 296.88417 93.437548 297.89659 93.580777 299.1875 93.90625 C 300.47839 94.231818 301.41652 94.406297 302.03125 94.40625 C 302.72791 94.406297 303.7844 94.295062 305.21875 94.0625 C 306.65306 93.830032 307.74081 93.718797 308.4375 93.71875 C 309.95377 93.718797 310.68748 95.148111 310.6875 98.03125 C 310.68748 98.496322 310.66596 99.107743 310.625 99.875 C 310.584 100.64234 310.59373 101.15852 310.59375 101.4375 L 310.59375 130.53125 C 310.59373 132.8099 310.94982 134.30246 311.6875 135 C 312.42513 135.69755 313.39555 136.16574 314.625 136.375 C 315.8544 136.58427 316.73771 136.84673 317.25 137.21875 C 317.76223 137.59078 318.03122 138.36868 318.03125 139.53125 C 318.03122 141.06585 316.81437 141.84375 314.4375 141.84375 C 313.41295 141.84375 311.89277 141.68527 309.84375 141.40625 C 307.79469 141.12723 306.26478 141 305.28125 141 C 304.29769 141 302.88511 141.19048 301 141.5625 C 299.11487 141.93452 297.69255 142.125 296.75 142.125 C 295.80743 142.125 294.98868 141.82329 294.3125 141.21875 C 293.63631 140.61421 293.3125 139.82031 293.3125 138.84375 C 293.3125 138.23921 293.47492 137.72303 293.84375 137.28125 C 294.21257 136.83948 295.1712 136.46652 296.6875 136.1875 C 298.20378 135.90849 299.24952 135.33706 299.84375 134.5 C 300.43796 133.66295 300.74999 131.64622 300.75 128.4375 L 300.75 104.875 C 300.74999 102.87541 300.36265 101.52608 299.625 100.875 C 298.88733 100.224 297.80932 99.763062 296.375 99.4375 C 294.94066 99.112021 294.06708 98.667825 293.71875 98.15625 C 293.37041 97.644761 293.1875 97.025342 293.1875 96.28125 C 293.1875 95.444242 293.46827 94.753581 294.0625 94.21875 C 294.65672 93.684013 295.36788 93.437548 296.1875 93.4375 z M 387.125 93.4375 C 387.57578 93.437548 388.34177 93.580777 389.46875 93.90625 C 390.59571 94.231818 391.54358 94.406297 392.28125 94.40625 C 392.73203 94.406297 393.75624 94.279065 395.375 94 C 396.99373 93.72103 397.99642 93.562548 398.40625 93.5625 C 399.22585 93.562548 399.82838 93.951498 400.15625 94.71875 C 400.48408 95.486095 400.6465 97.018645 400.6875 99.34375 C 400.76944 103.20354 400.81248 107.31625 400.8125 111.6875 L 400.4375 131.59375 C 400.43748 133.03535 400.54507 133.89324 400.75 134.21875 C 400.95488 134.54428 401.42933 134.98847 402.1875 135.5 C 402.94562 136.01154 403.93653 136.40849 405.125 136.6875 C 406.31342 136.96652 407.07838 137.32422 407.40625 137.8125 C 407.73407 138.30078 407.87497 138.88021 407.875 139.53125 C 407.87497 141.06585 406.81848 141.84375 404.6875 141.84375 C 403.21216 141.84375 401.7135 141.68527 400.15625 141.40625 C 398.59896 141.12723 397.04753 141 395.53125 141 C 394.30181 141 392.72783 141.11124 390.78125 141.34375 C 388.83465 141.57626 387.38005 141.6875 386.4375 141.6875 C 384.34747 141.6875 383.3125 140.84561 383.3125 139.125 C 383.3125 138.38096 383.47492 137.77753 383.84375 137.3125 C 384.21257 136.84747 385.02057 136.56176 386.25 136.46875 C 387.64334 136.37575 388.51589 136.15328 388.84375 135.78125 C 389.7863 134.66518 390.3791 133.68081 390.625 132.84375 C 390.87087 132.00671 390.96874 130.29168 390.96875 127.6875 L 390.96875 104.875 C 390.96874 103.15443 390.68796 101.86034 390.09375 101 C 389.49952 100.13974 388.26011 99.528315 386.375 99.15625 C 384.48987 98.784269 383.53125 97.815892 383.53125 96.28125 C 383.53125 95.630254 383.87555 95.002836 384.53125 94.375 C 385.18694 93.747257 386.05949 93.437548 387.125 93.4375 z M 543.25 97.125 C 538.49619 97.125044 534.81026 98.943308 532.1875 102.59375 C 529.56471 106.24427 528.24999 110.95241 528.25 116.71875 C 528.24999 123.08968 529.71534 128.15477 532.625 131.875 C 535.53462 135.59524 539.24208 137.4375 543.75 137.4375 C 548.46277 137.4375 552.22402 135.516 555.03125 131.65625 C 557.8384 127.79652 559.21871 122.9059 559.21875 117 C 559.21871 111.18716 557.7308 106.43902 554.71875 102.71875 C 551.70662 98.998554 547.88081 97.125044 543.25 97.125 z M 642.09375 97.1875 C 641.80685 97.187544 641.61318 97.394017 641.53125 97.8125 C 641.03945 99.951678 640.00448 101.03129 638.40625 101.03125 C 636.97189 101.03129 636.24997 100.12616 636.25 98.3125 C 636.24997 97.801011 636.0563 97.531294 635.6875 97.53125 C 635.11374 97.531294 634.15409 97.936241 632.78125 98.75 C 631.40837 99.563844 630.24428 100.92917 629.28125 102.8125 C 628.31818 104.69591 627.84373 106.79989 627.84375 109.125 C 627.84373 112.42674 629.05086 115.22938 631.46875 117.53125 C 633.8866 119.83317 636.63542 120.96877 639.75 120.96875 C 642.94648 120.96877 645.67276 119.73793 647.90625 117.25 C 650.13967 114.76212 651.24996 111.769 651.25 108.28125 C 651.24996 106.37466 650.72171 104.49315 649.65625 102.65625 C 648.59071 100.81942 647.20067 99.46935 645.5 98.5625 C 643.79926 97.655735 642.66745 97.187544 642.09375 97.1875 z M 639.25 126.40625 C 633.34873 126.40626 628.78921 128.0973 625.53125 131.46875 C 622.27326 134.84022 620.62499 139.43713 620.625 145.25 C 620.62499 150.83035 622.55403 155.33202 626.40625 158.75 C 630.25844 162.16795 634.52538 163.87498 639.15625 163.875 C 644.48373 163.87498 648.93565 162.14395 652.5625 158.65625 C 656.18926 155.16851 657.99995 150.5956 658 144.96875 C 657.99995 139.29539 656.2323 134.78572 652.6875 131.4375 C 649.14261 128.0893 644.65945 126.40626 639.25 126.40625 z "
       id="path3003"
       transform="translate(0,852.36218)" />
    <path
       style="fill:none;stroke:#000000;stroke-width:1px;stroke-linecap:butt;stroke-linejoin:miter;stroke-opacity:1"
       d="M 23.571429,18.571428 22.857143,173.57143 763.57143,174.28571 762.85714,89.285714 695.71429,17.857143 z"
       id="path2989"
       inkscape:connector-curvature="0"
       transform="translate(0,852.36218)" />
    <text
       xml:space="preserve"
       style="font-size:40px;font-style:normal;font-weight:normal;line-height:125%;letter-spacing:0px;word-spacing:0px;fill:#000000;fill-opacity:1;stroke:none;font-family:Sans"
       x="41.42857"
       y="117.14286"
       id="text2991"
       sodipodi:linespacing="125%"
       transform="translate(0,852.36218)"><tspan
         sodipodi:role="line"
         id="tspan2993"
         x="41.42857"
         y="117.14286" /></text>
    <path
       style="fill:none;stroke:#000000;stroke-width:0.71428573"
       d="M 79.62287,140.55179 C 79.093375,139.27501 72.479451,119.42679 64.92526,96.44465 57.371067,73.462507 50.547557,53.485956 49.761903,52.052314 48.227998,49.253282 47.094628,48.512436 42.087052,47.035518 39.393268,46.241022 38.836104,45.768765 38.646359,44.11916 c -0.316929,-2.755318 0.984063,-3.040224 9.052234,-1.982363 5.815374,0.762484 7.760563,0.739333 12.486756,-0.148612 6.151818,-1.155789 9.564716,-0.813515 10.75845,1.078948 1.29315,2.050068 -0.369132,3.652071 -4.627447,4.459644 -3.013828,0.571561 -4.06053,1.136793 -4.910992,2.651997 -1.03496,1.84391 -0.618838,3.313417 9.806622,34.631462 5.988095,17.988214 11.188612,33.178674 11.556705,33.756584 0.368094,0.57791 0.889347,0.83066 1.15834,0.56167 0.601307,-0.60131 19.933603,-62.991467 20.570373,-66.385744 0.61837,-3.296182 -0.59626,-4.736977 -4.924144,-5.84103 -3.252959,-0.829838 -3.557632,-1.087076 -3.557632,-3.003742 0,-2.076914 0.03611,-2.09525 3.928571,-1.994885 5.664365,0.146054 14.093185,0.153961 18.129715,0.01701 2.63033,-0.08924 3.68219,0.18875 4.28206,1.131696 1.2921,2.031093 -0.32364,3.666604 -4.27287,4.325133 -4.39416,0.732721 -6.95635,3.090511 -8.84558,8.139898 -0.78378,2.094865 -5.94776,18.50883 -11.475505,36.475479 -15.141835,49.215035 -15.68063,50.880915 -16.456412,50.880915 -0.396009,0 -1.15324,-1.04464 -1.682733,-2.32143 z"
       id="path3108"
       inkscape:connector-curvature="0"
       transform="translate(0,852.36218)" />
    <path
       style="fill:none;stroke:#000000;stroke-width:0.71428573"
       d="m 127.85907,140.44278 c -1.19711,-1.44243 -0.495,-3.28384 1.25209,-3.28384 0.74507,0 2.20158,-0.66619 3.23671,-1.48042 l 1.88204,-1.48041 0,-16.32571 c 0,-18.037116 0.075,-17.72787 -4.67699,-19.296158 -2.00467,-0.661601 -2.5005,-1.168293 -2.32796,-2.378977 0.209,-1.466517 0.56935,-1.536331 7.71924,-1.495525 l 7.5,0.0428 0.35714,19.67051 c 0.38997,21.47874 0.3593,21.33019 4.69999,22.76274 3.66756,1.21041 3.1752,4.23195 -0.59269,3.63721 -2.11534,-0.33389 -12.20683,-0.16758 -14.86252,0.24493 -2.53544,0.39384 -3.46126,0.25738 -4.18705,-0.61715 l 0,0 z"
       id="path3110"
       inkscape:connector-curvature="0"
       transform="translate(0,852.36218)" />
    <path
       style="fill:none;stroke:#000000;stroke-width:0.71428573"
       d="m 134.65055,81.389846 c -2.36331,-2.808632 -2.36331,-5.653188 0,-8.461821 3.02578,-3.595937 7.63329,-2.610167 9.56183,2.045741 2.68426,6.480379 -5.10805,11.709097 -9.56183,6.41608 z"
       id="path3112"
       inkscape:connector-curvature="0"
       transform="translate(0,852.36218)" />
    <path
       style="fill:none;stroke:#000000;stroke-width:0.71428573"
       d="m 159.46729,141.03298 c -0.27192,-0.7086 -0.1955,-1.39361 0.16983,-1.52224 0.36532,-0.12862 1.94993,-0.96146 3.52136,-1.85075 l 2.85714,-1.61688 0.19255,-15.98831 c 0.18594,-15.43895 0.14056,-16.04366 -1.32055,-17.59894 -0.83221,-0.88585 -2.44564,-1.9969 -3.58541,-2.469006 -2.07884,-0.861083 -2.85202,-2.763378 -1.17944,-2.901823 0.49107,-0.04065 3.46428,-0.01928 6.60714,0.04747 6.87886,0.146115 7.47093,0.675539 7.5712,6.770099 0.14078,8.55716 0.70769,8.62348 4.23928,0.49587 3.67728,-8.462877 6.23622,-11.932339 9.29658,-12.604507 2.35096,-0.516358 4.25008,0.526458 4.25008,2.33374 0,0.59376 -2.21439,3.410748 -4.92088,6.259977 -7.43757,7.82983 -12.93626,20.80444 -12.93626,30.52417 0,4.62488 0.79562,5.88721 4.6347,7.35337 2.27795,0.86995 3.22244,1.6336 3.22244,2.60544 0,1.28144 -0.35157,1.33712 -5.17857,0.82002 -6.33674,-0.67883 -7.65213,-0.67312 -12.8484,0.0558 -3.60347,0.50547 -4.1581,0.41931 -4.59279,-0.71348 l 0,0 z"
       id="path3114"
       inkscape:connector-curvature="0"
       transform="translate(0,852.36218)" />
    <path
       style="fill:none;stroke:#000000;stroke-width:0.71428573"
       d="m 206.69744,81.834261 c -3.71685,-3.716854 -1.05915,-11.103897 3.99495,-11.103897 2.72678,0 5.68038,3.573717 5.68038,6.872986 0,3.214944 -2.64433,5.984157 -5.71429,5.984157 -1.39169,0 -2.85587,-0.648077 -3.96104,-1.753246 z"
       id="path3116"
       inkscape:connector-curvature="0"
       transform="translate(0,852.36218)" />
    <path
       style="fill:none;stroke:#000000;stroke-width:0.71428573"
       d="m 200.05249,140.81241 c -1.64871,-1.04483 -0.59116,-3.12775 2.03456,-4.00723 3.98816,-1.33581 4.26346,-2.5792 4.27519,-19.30874 0.0116,-16.56068 -0.24356,-17.666297 -4.28202,-18.55329 -2.49731,-0.548503 -4.01189,-2.68776 -2.65673,-3.752489 1.39821,-1.098554 14.11809,-0.569211 14.87044,0.61884 0.34562,0.545761 0.63331,9.368359 0.63933,19.605769 0.008,13.79837 0.24191,18.90558 0.90379,19.74262 0.49107,0.62102 2.09822,1.51095 3.57143,1.97763 2.85508,0.9044 3.47932,2.42061 1.42857,3.46983 -0.6875,0.35175 -3.38261,0.40839 -5.98914,0.12588 -2.60653,-0.2825 -6.30296,-0.25672 -8.21429,0.0573 -4.56193,0.74952 -5.43112,0.75267 -6.58113,0.0239 l 0,0 z"
       id="path3118"
       inkscape:connector-curvature="0"
       transform="translate(0,852.36218)" />
    <path
       style="fill:none;stroke:#000000;stroke-width:0.71428573"
       d="m 246.53119,143.29396 c -7.21889,-2.35335 -14.45485,-10.46344 -16.46765,-18.45698 -1.50955,-5.99495 -0.64729,-13.25517 2.23614,-18.82828 3.63425,-7.024303 12.46794,-12.586223 20.04889,-12.623294 6.83356,-0.03341 13.56365,3.792044 12.32949,7.008224 -0.30047,0.78302 -1.2793,0.61321 -4.86572,-0.844078 -8.44664,-3.432176 -14.72465,-0.874986 -19.06371,7.765118 -2.09181,4.16528 -2.41734,5.53222 -2.46652,10.35714 -0.0901,8.83663 3.47988,16.85349 9.00512,20.22238 3.22394,1.96572 8.74655,1.8554 13.55422,-0.27078 5.15764,-2.28096 7.42241,-5.13456 8.15757,-10.27853 0.32342,-2.26298 0.58803,-19.92143 0.58803,-39.240994 0,-40.33662 0.49179,-37.439648 -6.9962,-41.212623 -3.75933,-1.894219 -5.31824,-3.902968 -3.18237,-4.100699 4.28847,-0.397011 16.61002,0.206528 17.38738,0.851675 0.7847,0.651242 1.00029,8.830957 1.16295,44.122359 0.22635,49.112242 -0.15012,46.090552 6.15756,49.422282 5.71754,3.02003 4.59691,3.89228 -5.08236,3.95592 -8.22962,0.0541 -8.41915,0.0196 -8.82744,-1.60714 -0.22948,-0.91435 -0.66527,-1.66244 -0.96842,-1.66244 -0.30315,0 -3.12317,1.30502 -6.26671,2.90004 -6.55642,3.3267 -11.5971,4.09957 -16.44025,2.5207 l 0,0 z"
       id="path3120"
       inkscape:connector-curvature="0"
       transform="translate(0,852.36218)" />
    <path
       style="fill:none;stroke:#000000;stroke-width:0.71428573"
       d="m 294.98218,140.41899 c -1.31124,-1.57995 -0.47267,-3.05107 2.05572,-3.6064 4.11036,-0.90279 4.33487,-1.90465 4.33487,-19.34474 0,-17.40475 0.0617,-17.15664 -4.64286,-18.66809 -1.5999,-0.514007 -2.14286,-1.125822 -2.14286,-2.414634 0,-1.710317 0.0657,-1.72619 7.14286,-1.72619 3.93586,0 7.37847,0.320699 7.66763,0.714285 0.28863,0.392858 0.5297,9.289539 0.53572,19.770409 0.0121,21.02728 -0.11135,20.44267 4.64726,22.01315 1.70977,0.56428 2.50653,1.26373 2.50653,2.20041 0,1.49965 -0.43945,1.58952 -6.42857,1.31469 -6.02754,-0.27659 -6.50627,-0.2628 -10.77496,0.31042 -3.18862,0.42817 -4.17231,0.31512 -4.90134,-0.56331 z"
       id="path3122"
       inkscape:connector-curvature="0"
       transform="translate(0,852.36218)" />
    <path
       style="fill:none;stroke:#000000;stroke-width:0.71428573"
       d="m 301.82731,81.70439 c -2.59186,-2.591862 -2.59186,-6.499047 0,-9.090909 5.59333,-5.593323 13.4059,3.558411 7.97381,9.340606 -2.13761,2.275383 -5.55577,2.168344 -7.97381,-0.249697 z"
       id="path3124"
       inkscape:connector-curvature="0"
       transform="translate(0,852.36218)" />
    <path
       style="fill:none;stroke:#000000;stroke-width:0.71428573"
       d="m 336.08251,142.19636 c -11.23594,-4.52934 -15.2236,-18.54618 -7.97641,-28.03754 6.18835,-8.10464 19.48554,-10.28005 26.30238,-4.30304 3.06128,2.68413 0.61737,3.87401 -3.99697,1.94601 -3.51102,-1.467 -6.59646,-1.34381 -10.21486,0.40783 -3.83887,1.85836 -5.94972,5.21292 -6.47348,10.28759 -0.51469,4.98695 1.10346,9.49764 4.4664,12.45035 5.9217,5.19932 16.32122,3.28006 20.14823,-3.7184 1.0586,-1.93586 1.24925,-4.2467 1.24925,-15.14165 0,-10.02855 -0.23571,-13.31444 -1.07143,-14.93576 -2.88662,-5.600178 -9.56121,-6.58201 -17.40296,-2.559979 -4.73553,2.428849 -6.88275,2.473359 -6.88275,0.142664 0,-4.899292 14.34184,-8.952173 23.08627,-6.523982 1.50102,0.416809 3.95905,1.868998 5.46229,3.227085 4.68383,4.231556 5.0178,5.600752 5.06318,20.757922 0.0495,16.51659 0.37491,17.72903 5.4954,20.4731 5.61865,3.01102 4.47916,5.58908 -1.84254,4.16868 -1.72565,-0.38772 -4.2867,-0.3924 -6.32533,-0.0115 -3.88674,0.72612 -5.22498,0.43303 -5.22498,-1.14435 0,-1.60592 -1.38943,-1.35632 -6.40703,1.15101 -5.86313,2.92984 -12.31881,3.43432 -17.45466,1.364 l 0,0 z"
       id="path3126"
       inkscape:connector-curvature="0"
       transform="translate(0,852.36218)" />
    <path
       style="fill:none;stroke:#000000;stroke-width:0.71428573"
       d="m 403.98791,140.96456 c -0.17859,-0.1786 -4.61685,-0.38471 -9.86279,-0.45803 -9.01744,-0.12603 -9.53807,-0.21129 -9.53807,-1.56188 0,-1.02459 0.55103,-1.49206 1.94857,-1.65307 1.07172,-0.12348 2.5985,-1.05075 3.39286,-2.06061 1.34913,-1.71515 1.44429,-2.86125 1.44429,-17.39566 0,-8.55774 -0.20712,-16.09928 -0.46027,-16.75897 -0.25315,-0.65969 -1.86029,-1.799557 -3.57143,-2.533037 -3.1772,-1.361907 -3.80528,-2.293105 -2.2183,-3.288846 0.64319,-0.40357 12.71736,-0.933366 14.25772,-0.625607 0.0828,0.01655 0.3239,9.18639 0.53572,20.37742 l 0.38513,20.34734 3.39286,1.61001 c 3.53754,1.67867 4.37943,3.34213 2.00564,3.96289 -0.76296,0.19952 -1.53333,0.21664 -1.71193,0.038 l 0,0 z"
       id="path3128"
       inkscape:connector-curvature="0"
       transform="translate(0,852.36218)" />
    <path
       style="fill:none;stroke:#000000;stroke-width:0.71428573"
       d="m 412.97991,140.9981 c -0.49107,-0.21273 -0.89286,-0.99047 -0.89286,-1.7283 0,-0.95973 0.80966,-1.55953 2.845,-2.10759 1.65432,-0.44546 3.19522,-1.42049 3.68183,-2.32972 0.93376,-1.74476 1.82737,-27.73874 1.05885,-30.80077 -0.60028,-2.3917 -3.49322,-4.301281 -5.68346,-3.75156 -0.92379,0.23185 -3.30251,1.71371 -5.28603,3.29302 -3.98302,3.17133 -5.18762,3.53163 -5.18762,1.55163 0,-1.72064 7.80004,-9.145031 11.02213,-10.491306 3.5791,-1.495445 7.02106,-1.30997 9.32525,0.502503 3.59229,2.825701 3.93834,4.807546 3.93834,22.555343 0,17.85368 0.1279,18.45965 4.25726,20.17009 1.19422,0.49466 2.17131,1.34253 2.17131,1.88415 0,0.77913 -1.69674,0.98477 -8.125,0.98477 -4.46875,0 -9.04911,0.14727 -10.17857,0.32726 -1.12947,0.17999 -2.45536,0.15321 -2.94643,-0.0595 l 0,0 z"
       id="path3130"
       inkscape:connector-curvature="0"
       transform="translate(0,852.36218)" />
    <path
       style="fill:none;stroke:#000000;stroke-width:0.71428573"
       d="m 462.34536,140.37322 c -0.71984,-1.87587 0.19239,-2.82374 4.00053,-4.15683 6.15543,-2.1548 5.91785,-0.20585 5.63138,-46.195292 -0.28394,-45.583525 0.0643,-43.154269 -6.30671,-43.999408 -4.08737,-0.542209 -5.67944,-1.840827 -4.29779,-3.505611 0.7601,-0.915865 4.60145,-1.071429 26.45684,-1.071429 l 25.56764,0 0.77347,3.606586 c 0.9816,4.577032 0.99554,9.743291 0.0279,10.341323 -1.13901,0.703947 -2.66069,-0.917255 -3.59158,-3.826475 -0.46134,-1.441788 -1.4981,-3.344648 -2.30391,-4.228577 -1.38765,-1.52219 -2.00035,-1.607143 -11.59114,-1.607143 -5.56933,0 -11.13119,0.350394 -12.35969,0.778653 -2.89104,1.007823 -3.68456,3.776393 -3.68983,12.873854 -0.005,8.318768 1.01556,14.245944 2.66351,15.471565 0.89898,0.668602 4.25096,0.857958 12.64424,0.714285 12.73451,-0.217985 11.99388,0.100523 13.74219,-5.909785 0.34283,-1.178572 1.09773,-2.142857 1.67756,-2.142857 0.86363,0 1.12243,1.872491 1.43147,10.357142 0.41071,11.275698 0.3257,12.142858 -1.19037,12.142858 -1.09592,0 -1.22671,-0.261335 -2.37062,-4.736728 -1.08547,-4.246784 -2.67905,-4.705575 -15.36791,-4.424404 -9.50745,0.210674 -10.5929,0.366487 -11.53421,1.655683 -0.87,1.191543 -1.00568,5.276712 -0.83375,25.10454 0.23446,27.04111 -0.14317,25.46232 6.83531,28.57656 3.87865,1.73089 5.20893,3.34258 3.86678,4.68473 -0.54295,0.54295 -2.11298,0.4256 -5.42021,-0.40515 -5.67975,-1.42671 -10.8351,-1.45288 -16.50512,-0.0838 -5.48347,1.32403 -7.44377,1.32051 -7.95598,-0.0143 z"
       id="path3132"
       inkscape:connector-curvature="0"
       transform="translate(0,852.36218)" />
    <path
       style="fill:none;stroke:#000000;stroke-width:0.71428573"
       d="m 535.94155,141.86022 c -6.70734,-2.09931 -13.51617,-8.61114 -16.05939,-15.35889 -2.17367,-5.76725 -1.70791,-15.19067 1.03334,-20.90679 2.6634,-5.5538 8.60173,-10.921068 13.73363,-12.412953 4.72529,-1.37368 12.02814,-1.502761 15.75683,-0.278509 5.76398,1.892505 12.19597,7.550232 15.13676,13.314652 4.41264,8.64949 2.89629,21.0976 -3.45053,28.32623 -5.95383,6.78103 -17.52101,10.01723 -26.15064,7.31626 z m 16.22648,-6.50861 c 8.67004,-6.13107 10.40956,-23.26209 3.30572,-32.5551 -6.4186,-8.3966 -18.50615,-8.502998 -23.99839,-0.21124 -2.92871,4.42155 -3.9376,9.24042 -3.48205,16.63169 0.54996,8.92301 3.27575,14.15033 9.00163,17.26266 4.04584,2.19914 11.22262,1.66559 15.17309,-1.12801 l 0,0 z"
       id="path3134"
       inkscape:connector-curvature="0"
       transform="translate(0,852.36218)" />
    <path
       style="fill:none;stroke:#000000;stroke-width:0.71428573"
       d="m 575.17713,141.02141 c -0.26947,-0.70224 -0.19105,-1.38204 0.17427,-1.51067 0.36532,-0.12862 1.94986,-0.96165 3.52118,-1.85117 2.6863,-1.5207 2.89063,-1.87197 3.42062,-5.8804 0.31001,-2.3447 0.47062,-9.40595 0.35691,-15.69166 -0.23146,-12.79483 -0.54055,-13.77155 -4.99364,-15.77961 -2.60675,-1.175487 -3.67582,-3.069208 -1.81942,-3.222869 3.55881,-0.294575 12.48657,0.341402 13.21429,0.941331 0.52033,0.428956 0.92256,2.562218 0.96406,5.112888 0.0392,2.40726 0.31289,5.1804 0.6083,6.16254 0.4757,1.58157 0.91966,0.97293 3.88333,-5.32375 4.12401,-8.76197 6.19725,-11.558772 9.02952,-12.180843 2.36413,-0.519251 4.26479,0.51764 4.26479,2.326629 0,0.591626 -2.0381,3.236174 -4.52911,5.876774 -2.491,2.6406 -5.5129,6.53683 -6.71532,8.65828 -4.15541,7.33146 -7.53208,21.16835 -6.33232,25.94855 0.35305,1.40668 1.45585,2.30719 4.44361,3.62852 2.40341,1.0629 3.85207,2.11485 3.66545,2.66167 -0.31537,0.92413 -1.82038,1.00764 -9.46088,0.52499 -2.35715,-0.1489 -6.29271,-0.0128 -8.7457,0.30243 -3.9372,0.50598 -4.51741,0.4235 -4.94994,-0.70363 z"
       id="path3136"
       inkscape:connector-curvature="0"
       transform="translate(0,852.36218)" />
    <path
       style="fill:none;stroke:#000000;stroke-width:0.71428573"
       d="m 634.15156,168.53063 c -9.08652,-1.31753 -17.78478,-7.86006 -20.67516,-15.55114 -3.98413,-10.60148 -0.24502,-21.83153 9.33603,-28.03984 3.01286,-1.95227 3.39982,-2.46028 2.77018,-3.63676 -0.40252,-0.75213 -1.17862,-1.53894 -1.72466,-1.74848 -0.54603,-0.20953 -1.81072,-2.02234 -2.81041,-4.02847 -2.06635,-4.14661 -2.394,-9.21251 -0.83137,-12.85423 1.98653,-4.629662 8.33298,-8.968713 14.88051,-10.173785 2.27391,-0.418511 2.96406,-1.040264 4.83545,-4.356179 1.20063,-2.127394 3.43593,-5.120964 4.96735,-6.652378 2.32531,-2.325313 3.42906,-2.864935 6.69445,-3.272919 6.37292,-0.796244 8.68202,0.86517 6.83538,4.918108 -0.97283,2.13513 -2.7707,2.889252 -6.41469,2.690657 -3.11237,-0.169622 -5.80013,0.777712 -7.75619,2.733769 -2.29618,2.296184 -1.76109,3.152896 2.80783,4.495504 7.68378,2.257932 12.29476,8.040473 12.33965,15.474893 0.028,4.63824 -1.44845,8.59648 -4.05043,10.85887 -1.76576,1.53531 -2.52881,4.19926 -1.20282,4.19926 1.81053,0 8.08649,6.91951 10.23398,11.28341 2.03805,4.14149 2.33809,5.46122 2.30347,10.13201 -0.0282,3.80543 -0.4636,6.30691 -1.49417,8.58458 -4.85727,10.73503 -17.63804,16.88701 -31.04438,14.94312 l 0,0 z m 14.22282,-5.92659 c 3.80974,-1.9942 7.80188,-6.6277 9.11405,-10.57829 1.77467,-5.34303 1.15007,-12.95566 -1.42328,-17.34673 -4.5525,-7.76828 -15.48621,-11.03683 -25.00547,-7.47522 -7.40022,2.76878 -11.67551,10.41502 -10.94084,19.56741 0.58806,7.32599 4.60167,12.9568 11.56437,16.22396 3.68402,1.72869 13.06125,1.50895 16.69117,-0.39113 l 0,0 z m -3.4798,-42.20516 c 8.84178,-4.57226 9.35491,-17.61141 0.88051,-22.374294 -3.58187,-2.013125 -4.28371,-1.984899 -5.11661,0.205778 -0.84381,2.219406 -3.57143,2.492166 -3.57143,0.357143 0,-2.332457 -3.31663,-1.826224 -6.06923,0.926374 -3.47195,3.471949 -4.83822,9.442739 -3.1689,13.848559 2.48607,6.56145 11.09331,10.11452 17.04566,7.03644 z"
       id="path3138"
       inkscape:connector-curvature="0"
       transform="translate(0,852.36218)" />
    <path
       style="fill:none;stroke:#000000;stroke-width:0.71428573"
       d="m 693.3175,142.84562 c -6.84119,-1.15046 -14.01325,-7.23474 -17.50179,-14.84729 -2.68668,-5.86277 -3.02334,-13.93138 -0.82459,-19.7627 1.92279,-5.09947 7.67704,-11.188678 13.16736,-13.933837 3.13042,-1.56521 4.49755,-1.785458 11.07143,-1.783636 6.13254,0.0017 8.08605,0.276623 10.71429,1.507851 6.58968,3.087018 11.32956,9.708862 12.81564,17.904062 0.89884,4.95679 0.57504,6.34707 -1.61505,6.93444 -0.85676,0.22978 -8.00523,0.42217 -15.8855,0.42753 -15.03149,0.0102 -17.53844,-0.46025 -16.525,-3.10124 0.39319,-1.02464 1.96137,-1.17472 12.27423,-1.17472 l 11.82345,0 0.79439,-1.74351 c 0.58912,-1.29297 0.5744,-2.63117 -0.057,-5.17857 -1.89851,-7.66013 -6.72164,-11.602828 -14.23154,-11.633663 -4.86602,-0.01998 -7.79364,1.389241 -11.81294,5.686193 -4.02903,4.30737 -5.71732,9.51454 -5.30058,16.34858 0.35394,5.8043 2.01915,9.42882 6.31233,13.73953 6.23526,6.26071 13.97469,7.16734 23.03678,2.69862 3.71426,-1.83159 4.97661,-2.16846 5.64,-1.50507 1.90567,1.90567 -5.7096,7.07023 -13.36566,9.06438 -4.56039,1.18783 -5.3991,1.21595 -10.53029,0.35305 l 0,0 z"
       id="path3140"
       inkscape:connector-curvature="0"
       transform="translate(0,852.36218)" />
    <path
       style="fill:#008000;stroke:#000000;stroke-width:0.71428573"
       d="m 356.01562,173.58751 c 85.35976,-0.28814 61.98131,-0.4006 -112.08117,-0.53918 L 23.996132,172.87322 24.445581,96.707329 C 24.692777,54.816087 24.987884,20.44858 25.101374,20.335091 25.214863,20.221601 125.75271,19.862324 248.51882,19.536698 l 223.21109,-0.592048 -132.5,-0.359977 -132.5,-0.359978 142.14286,-0.07438 c 78.17857,-0.04091 140.85714,0.155828 139.28571,0.437188 -1.57143,0.28136 44.41011,0.557176 102.1812,0.612925 l 105.03834,0.101361 32.8188,35.036065 32.8188,35.036063 0.45136,9.428222 c 0.24822,5.185521 0.55979,15.856801 0.69236,23.713941 l 0.241,14.28571 0.401,-15 0.401,-15 0.0629,18.21429 c 0.0364,10.64909 -0.17636,17.17593 -0.51265,15.71428 -0.32835,-1.42688 -0.49728,5.01182 -0.39357,15 l 0.18164,17.5 -139.33381,-0.018 c -76.63382,-0.01 -121.9769,0.15498 -100.76261,0.36645 21.21428,0.21146 -31.82143,0.38185 -117.85715,0.37863 -145.26118,-0.006 -148.72868,-0.0319 -48.57143,-0.36993 z M 647.5512,169.0197 c 8.73423,-2.32557 16.87177,-9.20091 19.20524,-16.22636 1.75971,-5.29796 1.18582,-13.51478 -1.29855,-18.59266 -1.97036,-4.02727 -5.19525,-7.88582 -8.63828,-10.33564 l -2.05316,-1.46089 2.55957,-3.35321 c 2.91578,-3.81987 3.68585,-6.83307 3.1279,-12.23905 -0.73806,-7.151083 -5.17414,-12.478161 -12.08114,-14.507654 -2.27749,-0.6692 -4.14133,-1.434472 -4.14188,-1.7006 -5.5e-4,-0.266129 0.84593,-1.150057 1.88105,-1.964286 1.4067,-1.106504 2.91583,-1.480414 5.9751,-1.480414 5.41098,0 7.85715,-1.767942 7.85715,-5.678668 0,-3.838084 -1.18271,-4.536795 -7.1123,-4.201744 -6.61885,0.374 -8.96953,2.196374 -14.67342,11.375626 -1.11798,1.799157 -2.24696,2.505329 -5.19275,3.248021 -5.02583,1.267122 -7.55956,2.651936 -10.82293,5.915308 -5.40371,5.403711 -5.50978,14.401351 -0.25099,21.290741 2.37729,3.11442 2.46156,3.39379 1.23364,4.0896 -0.72488,0.41076 -2.85829,2.15323 -4.74092,3.87216 -12.3811,11.30456 -9.29608,31.61997 5.99177,39.45691 6.68762,3.42824 15.92851,4.42224 23.1749,2.49281 l 0,0 z M 263.37635,141.92589 c 5.9384,-2.98646 5.85356,-2.96269 5.85356,-1.64013 0,2.06734 1.94885,2.76245 5.87643,2.096 2.07153,-0.3515 5.21286,-0.37905 6.98071,-0.0612 4.6504,0.83608 6.43085,0.24257 6.41828,-2.13951 -0.008,-1.60035 -0.65836,-2.30816 -3.61885,-3.94123 -2.47837,-1.36712 -3.92004,-2.73604 -4.60308,-4.37078 -0.80395,-1.92412 -1.03439,-10.58969 -1.20258,-45.221661 -0.16253,-33.468423 -0.4077,-43.081858 -1.12055,-43.94036 -1.27251,-1.532486 -18.94827,-1.649686 -20.2062,-0.133978 -1.36052,1.639332 -0.23052,3.039368 4.13036,5.117358 7.03499,3.352228 6.69314,1.039704 6.46797,43.754261 -0.18529,35.14838 -0.2575,36.91261 -1.62249,39.63656 -1.64676,3.28627 -5.32971,5.63175 -10.7724,6.86038 -3.20824,0.72422 -4.01506,0.6488 -6.95075,-0.6498 -7.19884,-3.18438 -11.65754,-15.49333 -9.10394,-25.13285 0.98865,-3.73204 4.36947,-9.03729 7.02473,-11.02335 2.77377,-2.074704 8.3422,-2.282761 12.54015,-0.46853 4.34154,1.87628 5.97027,1.88331 6.55902,0.0283 1.21613,-3.831653 -6.13225,-8.517089 -13.37716,-8.529474 -8.87629,-0.01521 -17.15341,5.440685 -21.43353,14.127914 -2.02351,4.10707 -2.37582,5.63584 -2.58186,11.20344 -0.19466,5.26029 0.045,7.20387 1.30188,10.55602 2.63596,7.03042 9.03325,13.74564 15.36529,16.12888 1.17857,0.44358 4.55357,0.70781 7.5,0.58717 4.49202,-0.18392 6.19977,-0.64311 10.57501,-2.84345 l 0,-2e-5 z m 84.68481,2.01929 c 1.5179,-0.24909 4.44619,-1.27997 6.50731,-2.29083 l 3.74748,-1.83794 1.45704,1.45703 c 1.29508,1.29509 1.83221,1.37702 4.83224,0.73718 2.16543,-0.46184 4.58531,-0.48059 6.75134,-0.0523 4.34898,0.8599 6.44477,0.10884 6.44477,-2.30958 0,-1.34411 -0.61934,-2.17082 -2.29147,-3.05873 -1.2603,-0.66923 -3.18887,-2.07598 -4.28571,-3.12612 l -1.99425,-1.90937 0,-14.20041 c 0,-13.92539 -0.0366,-14.27389 -1.89059,-17.99433 -4.44226,-8.914457 -17.26122,-11.678298 -29.07653,-6.269071 -4.49855,2.059507 -6.12977,4.939035 -4.28772,7.568931 1.41843,2.02509 2.31769,1.90977 7.8039,-1.000724 5.26815,-2.794807 9.21988,-3.223579 12.39945,-1.345365 3.69332,2.181689 3.96297,3.252779 4.20501,16.702509 0.2159,11.99756 0.15697,12.62768 -1.46624,15.67661 -1.91381,3.59476 -6.4377,6.46625 -10.18728,6.46625 -3.50537,0 -8.33814,-2.91151 -10.16682,-6.12502 -2.12865,-3.74064 -2.22268,-10.37594 -0.19418,-13.70294 2.93881,-4.82004 8.89249,-6.45885 14.67977,-4.04077 4.68453,1.95732 7.85812,-0.7401 4.64779,-3.95043 -6.62426,-6.62426 -20.59564,-5.02824 -27.79869,3.17558 -3.58823,4.08678 -4.54633,7.098 -4.21339,13.24237 0.51706,9.54213 5.38934,15.7481 14.24998,18.15059 2.08755,0.56602 4.59911,0.90777 5.58125,0.75944 0.98215,-0.14833 3.02764,-0.47349 4.54554,-0.72258 z m 359.10182,-1.00574 c 1.41676,-0.43503 4.55069,-2.06732 6.96429,-3.6273 3.79743,-2.4544 4.38835,-3.13 4.38835,-5.01719 0,-3.24855 -1.67939,-3.40916 -7.05988,-0.67519 -8.69075,4.416 -16.07812,3.62972 -22.19361,-2.36222 -4.13551,-4.05195 -5.99955,-8.33789 -5.97643,-13.74146 0.0343,-8.00766 3.01655,-14.11372 8.74478,-17.904494 8.81762,-5.835222 20.69269,0.628554 20.75517,11.297354 l 0.0157,2.67857 -11.11839,0 c -6.29823,0 -11.71735,0.32055 -12.5,0.73941 -1.71233,0.91642 -1.89008,4.62692 -0.25176,5.25559 0.62141,0.23847 8.45706,0.43357 17.41253,0.43357 19.00118,0 18.27586,0.27506 17.71453,-6.7179 -0.66468,-8.28054 -5.48508,-16.066766 -11.98643,-19.361244 -4.31969,-2.188957 -11.86224,-3.493579 -16.70191,-2.8889 -8.00074,0.999628 -17.03986,7.33095 -20.41232,14.297524 -5.56854,11.50308 -1.59087,27.04894 8.83706,34.53771 5.11421,3.67276 7.84456,4.43766 14.72097,4.12404 3.33929,-0.1523 7.2306,-0.63283 8.64736,-1.06787 l 0,0 z m -624.093949,0.0785 c 0.193601,-0.31326 6.338524,-20.00076 13.655386,-43.750003 7.316853,-23.749248 14.061503,-44.477952 14.988103,-46.063788 1.89525,-3.243636 3.6433,-4.32721 8.06242,-4.997674 4.59588,-0.697283 6.14035,-4.910325 2.6407,-7.203381 -1.608,-1.053605 -2.35917,-1.085823 -6.60714,-0.283388 -6.12525,1.157052 -7.27442,1.159041 -13.5485,0.02346 -4.768569,-0.863092 -5.29829,-0.835078 -6.607148,0.349422 -1.441601,1.304628 -1.834913,3.598828 -0.875464,5.1066 0.289079,0.454291 2.293086,1.257863 4.453343,1.785715 3.278449,0.801078 3.968089,1.245254 4.171739,2.686924 0.2642,1.870411 -19.144906,65.772803 -19.977222,65.772803 -0.749354,0 -21.338196,-62.176267 -21.338196,-64.439243 0,-2.227275 1.705039,-3.417898 4.894623,-3.417898 3.068964,0 4.412981,-0.678858 5.142415,-2.597418 1.057357,-2.781059 -0.288679,-5.108199 -3.279115,-5.669208 -2.498729,-0.468765 -11.839844,0.721273 -15.15078,1.930175 -0.883928,0.322744 -1.607143,0.328948 -1.607143,0.01378 0,-0.82746 -10.952571,-2.383122 -12.568097,-1.785125 -4.509357,1.669168 -1.952442,8.107791 3.219777,8.107791 2.426137,0 4.778409,1.664223 6.178143,4.371011 0.609058,1.177788 7.690066,22.051133 15.735573,46.385211 13.952259,42.199374 14.707589,44.243784 16.346387,44.243784 0.945007,0 1.876595,-0.2563 2.070196,-0.56955 l 0,0 z m 85.089449,-0.58015 c 2.35714,-0.22561 6.35238,-0.0678 8.87831,0.35072 5.09768,0.84461 6.70621,0.24718 6.33473,-2.3528 -0.14353,-1.00459 -1.41432,-2.04997 -3.89492,-3.20407 -4.26174,-1.98277 -4.84269,-3.42036 -3.84916,-9.52486 1.80335,-11.08021 5.75417,-19.40764 12.95579,-27.30789 2.71282,-2.975981 4.93239,-5.747124 4.93239,-6.158096 0,-3.941057 -5.97735,-4.935871 -9.58082,-1.594543 -1.13642,1.05375 -3.44783,4.830536 -5.13647,8.392859 l -3.07026,6.47695 -0.0348,-3.28627 c -0.0349,-3.28885 -1.19245,-7.699296 -2.06897,-7.88256 -0.2562,-0.05357 -3.60102,-0.190793 -7.43292,-0.304936 -5.93282,-0.176721 -7.0584,-0.02971 -7.58206,0.990257 -0.93081,1.813008 -0.24469,2.877443 2.88336,4.473259 4.52824,2.31013 5.06371,4.43037 4.75526,18.82879 -0.17226,8.04089 -0.5677,12.72694 -1.16339,13.78627 -0.49632,0.88265 -2.19305,2.26324 -3.77048,3.06798 -1.57744,0.80475 -3.06672,1.98087 -3.30952,2.61359 -0.60691,1.5816 2.47583,4.00835 4.39864,3.46263 0.80826,-0.22939 3.39814,-0.60167 5.75528,-0.82728 l -1e-5,0 z m 386.78572,-1.10714 c 8.95468,-4.2098 14.25552,-13.01085 14.27723,-23.70466 0.012,-5.90367 -1.73675,-11.19835 -5.29508,-16.03201 -5.66756,-7.698829 -13.59393,-11.3693 -23.01353,-10.6569 -9.39334,0.710421 -16.41145,5.127479 -20.33234,12.79679 -7.47656,14.62424 -2.35401,30.97077 11.86372,37.85821 4.01033,1.94271 4.74467,2.06035 11.42857,1.8308 5.86233,-0.20134 7.84715,-0.57642 11.07143,-2.09223 l 0,0 z m 27.07909,1.29514 c 3.62058,-0.69074 5.63906,-0.68861 9.64286,0.0102 6.29837,1.09927 7.72108,0.75668 7.42672,-1.78838 -0.17525,-1.51513 -0.98439,-2.25834 -3.9701,-3.64659 l -3.75,-1.74362 0,-4.64809 c 0,-5.41159 2.62595,-14.82936 5.8118,-20.84361 1.15925,-2.18843 4.15612,-6.10956 6.65971,-8.71365 4.99085,-5.191161 5.85982,-6.872447 4.68579,-9.066147 -0.601,-1.122964 -1.49079,-1.45555 -3.89415,-1.45555 -2.69654,0 -3.4262,0.35425 -5.42972,2.636143 -1.27302,1.449878 -3.53186,5.226664 -5.01966,8.392854 l -2.70509,5.75672 -0.0543,-3.28627 c -0.0694,-4.19317 -1.26825,-7.641247 -2.79262,-8.031597 -0.65466,-0.167643 -4.08316,-0.261129 -7.61887,-0.207757 -6.42428,0.09698 -6.42872,0.09833 -6.65103,2.024428 -0.18746,1.624222 0.2301,2.158256 2.65469,3.395196 1.58243,0.80729 3.20932,2.08848 3.61531,2.84708 0.43714,0.8168 0.73817,7.17915 0.73817,15.60125 0,15.69032 0.1742,15.05893 -4.85818,17.60888 -3.12897,1.58548 -3.65313,3.14877 -1.61037,4.8029 0.89475,0.72452 1.83228,1.29749 2.0834,1.27327 0.25112,-0.0242 2.51717,-0.43717 5.03567,-0.91765 l 2e-5,-3e-5 z m -112.79338,-0.82402 c 4.81899,-1.29347 12.60543,-1.35495 17.85714,-0.14101 5.4302,1.2552 6.42857,0.93728 6.42857,-2.04711 0,-2.30806 -0.24846,-2.55317 -4.57801,-4.51628 -2.51791,-1.14168 -4.9457,-2.76279 -5.39508,-3.60247 -1.11546,-2.08424 -1.04188,-47.041589 0.0792,-48.392402 0.58546,-0.705427 3.49615,-0.943582 11.53226,-0.943582 11.92982,0 13.36164,0.476148 13.36164,4.443378 0,4.038093 2.86596,6.379772 4.83373,3.949479 0.9307,-1.149472 0.90587,-22.015544 -0.0276,-23.214286 -0.38241,-0.491071 -1.43785,-0.892857 -2.34542,-0.892857 -1.67756,0 -1.94131,0.454596 -2.83579,4.887669 -0.72952,3.615492 -3.10006,4.245498 -14.06757,3.738658 -12.13622,-0.560851 -11.56503,0.111534 -11.85685,-13.957442 -0.30454,-14.681805 -1.01911,-13.954599 13.7121,-13.954599 7.9535,0 11.18973,0.247935 11.72977,0.898644 0.41019,0.494254 1.37383,2.503183 2.14143,4.464286 1.10998,2.835866 1.76945,3.61095 3.22218,3.787021 2.95104,0.357667 3.61621,-1.785103 2.69491,-8.681262 -0.53864,-4.031761 -1.15999,-6.108552 -2.01771,-6.743899 -0.96793,-0.716972 -6.84029,-0.873431 -26.80928,-0.714286 -27.72898,0.220989 -27.18713,0.137356 -26.77317,4.132353 0.186,1.795043 0.74153,2.040011 7.43509,3.278629 0.96194,0.178004 1.83983,1.153174 2.34956,2.609922 1.20604,3.446771 1.06656,81.090546 -0.14832,82.562266 -0.48393,0.58624 -2.56736,1.81343 -4.62986,2.7271 -3.60083,1.59513 -4.08115,2.17077 -3.78524,4.53637 0.14867,1.18846 2.0328,2.86183 3.20747,2.84866 0.41599,-0.005 2.5242,-0.48299 4.68491,-1.06295 l 0,0 z m -318.35697,-1.15291 c 1.08933,-1.72709 0.14353,-3.32119 -2.66733,-4.49565 -4.51352,-1.88587 -4.35134,-1.05233 -4.13112,-21.23152 0.13413,-12.29016 -0.0578,-18.969374 -0.57272,-19.93151 -0.67409,-1.25955 -1.39437,-1.426671 -5.55886,-1.289757 -2.63144,0.08651 -5.77625,-0.07816 -6.98848,-0.365936 -1.66581,-0.395457 -2.6189,-0.1873 -3.90288,0.852407 -1.50868,1.22165 -1.60265,1.586736 -0.83956,3.261536 0.56123,1.231786 1.62203,2.03845 3.0584,2.325721 4.02443,0.804889 4.36789,2.211069 4.27568,17.504949 -0.0456,7.57306 -0.27417,14.53077 -0.50779,15.46157 -0.28415,1.13214 -1.45771,2.13515 -3.54513,3.02993 -2.41183,1.03382 -3.12038,1.71636 -3.12038,3.00579 0,0.91753 0.33443,2.00267 0.74318,2.41142 0.45705,0.45706 5.03335,0.71831 11.8865,0.67857 9.43212,-0.0547 11.25497,-0.24165 11.87049,-1.21752 l 0,0 z m 71.89703,0.13223 c 0.9951,-1.61009 -0.29017,-3.83935 -2.68226,-4.65227 -4.11484,-1.39841 -4.04372,-1.03878 -4.42923,-22.39723 l -0.35714,-19.78696 -5.46742,-0.084 c -3.00708,-0.04621 -6.30832,-0.295043 -7.33609,-0.553 -2.45234,-0.6155 -4.69926,0.643979 -4.68556,2.626414 0.0157,2.276329 0.72597,3.051693 3.6759,4.013057 1.43848,0.468789 2.80455,1.345219 3.03572,1.947639 0.23117,0.60242 0.42031,7.92991 0.42031,16.28332 0,16.65702 -0.0426,16.82766 -4.47051,17.93277 -2.21144,0.55192 -3.34564,3.30474 -2.01979,4.90228 1.18317,1.42565 23.42273,1.21344 24.31607,-0.23202 l 0,0 z m 95.30703,-0.22932 c 1.07065,-1.69737 -0.10286,-3.44216 -2.97055,-4.41665 -4.14779,-1.40949 -4.07648,-1.04682 -4.26508,-21.68969 -0.0958,-10.48973 -0.32682,-19.474014 -0.5133,-19.965086 -0.4264,-1.122914 -7.24587,-1.210885 -7.931,-0.102314 -0.29765,0.481607 -0.66305,0.523986 -0.93502,0.108443 -0.24553,-0.375157 -1.78943,-0.891729 -3.43088,-1.147929 -2.26168,-0.353014 -3.26554,-0.184735 -4.14515,0.694872 -1.95087,1.950871 -1.04547,4.044421 2.48059,5.73585 2.01314,0.965684 3.38346,2.162974 3.6788,3.214284 0.63646,2.26552 0.65741,25.2437 0.0263,28.81822 -0.45257,2.56312 -0.81604,2.9652 -3.53201,3.90715 -3.24767,1.12635 -4.25504,2.72129 -3.09172,4.89497 0.66975,1.25144 1.61757,1.34998 12.28317,1.27698 10.17778,-0.0696 11.65153,-0.22831 12.34588,-1.3291 l -2e-5,0 z m 89.66267,0.27807 c 1.01506,-1.64192 0.0366,-3.51012 -2.32777,-4.44437 -5.05982,-1.99932 -4.90507,-1.32623 -4.41548,-19.20518 0.24237,-8.85104 0.18132,-17.699946 -0.13567,-19.664231 l -0.57635,-3.571429 -5.60165,-0.130707 c -3.08092,-0.07189 -6.05311,-0.303943 -6.60488,-0.515672 -0.55177,-0.211735 -1.804,-0.08052 -2.78273,0.291593 -1.33501,0.507572 -1.77952,1.196879 -1.77952,2.75955 0,1.748665 0.43988,2.258979 2.74067,3.179579 4.80021,1.920667 4.95988,2.576117 4.55573,18.701367 -0.39171,15.62864 -0.74858,17.04654 -4.49772,17.86999 -1.15295,0.25323 -2.41503,1.05601 -2.80462,1.78397 -0.90726,1.69524 -0.89557,1.84257 0.23592,2.97359 1.38098,1.38043 23.13905,1.355 23.99407,-0.0281 l 0,2e-5 z m 27.27547,-0.21429 c 0.80136,-1.29661 -0.57366,-3.37631 -2.56227,-3.87543 -0.95468,-0.2396 -2.06941,-0.83763 -2.47716,-1.32895 -0.45605,-0.5495 -0.81095,-7.60115 -0.92216,-18.32278 -0.15375,-14.82392 -0.36219,-17.760653 -1.39428,-19.644831 -1.73827,-3.173408 -4.6493,-4.843108 -8.42936,-4.834893 -3.93738,0.0086 -7.51078,1.650814 -11.79209,5.419364 -4.1519,3.65466 -5.68312,6.46094 -4.61466,8.45738 0.93056,1.73876 2.96918,1.35093 5.69246,-1.08291 4.5812,-4.0943 7.92368,-5.0743 9.19633,-2.69633 0.37133,0.69385 0.78012,7.74397 0.90841,15.66693 0.23299,14.38829 0.23122,14.40757 -1.48881,16.23846 -0.94715,1.00819 -2.40535,1.83307 -3.24043,1.83307 -2.75325,0 -4.26845,2.96419 -2.44652,4.78612 1.13877,1.13877 22.83653,0.57246 23.57054,-0.6152 l 0,0 z M 142.10135,83.937257 c 2.63403,-1.362113 3.55713,-3.083943 3.55713,-6.635036 0,-5.178217 -4.43228,-8.77005 -8.97295,-7.271495 -3.04482,1.004881 -4.60232,3.47972 -4.58259,7.28165 0.0177,3.412143 1.51126,5.830073 4.26983,6.912475 2.507,0.983695 3.35223,0.941262 5.72858,-0.287594 z m 73.7357,-1.787817 c 3.35935,-3.687054 1.93341,-9.895246 -2.71934,-11.839289 -3.34639,-1.398207 -5.86673,-0.595854 -7.99494,2.545196 -1.98347,2.927417 -2.03333,5.381525 -0.17139,8.435419 2.61824,4.294336 7.41092,4.672388 10.88567,0.858674 z m 92.52485,2.098908 c 4.71302,-1.642966 5.97923,-7.798952 2.46901,-12.003633 -3.61088,-4.325251 -10.00226,-2.846426 -11.66362,2.698707 -0.71647,2.391364 -0.64411,3.18236 0.50618,5.532964 1.22838,2.5102 3.7361,4.502864 5.69985,4.529163 0.43245,0.0058 1.77731,-0.334949 2.98858,-0.757201 z"
       id="path3160"
       inkscape:connector-curvature="0"
       transform="translate(0,852.36218)" />
    <path
       style="fill:#008000;stroke:#000000;stroke-width:0.71428573"
       d="m 539.2636,136.22685 c -9.00339,-2.87023 -13.47922,-18.29374 -8.6001,-29.63556 1.9967,-4.64145 4.85796,-7.294183 9.00267,-8.346567 7.09661,-1.8019 13.08451,1.177147 16.63087,8.274037 1.94729,3.89687 2.21858,5.16498 2.21858,10.37033 0,9.85279 -3.45199,16.36622 -10.15562,19.16222 -3.02112,1.26007 -5.54185,1.30871 -9.0964,0.17554 l 0,0 z"
       id="path3162"
       inkscape:connector-curvature="0"
       transform="translate(0,852.36218)" />
    <path
       style="fill:#008000;stroke:#000000;stroke-width:0.71428573"
       d="m 634.94996,119.1678 c -4.3675,-2.24836 -6.43434,-5.51238 -6.43434,-10.16135 0,-4.44326 1.81924,-8.13859 4.89623,-9.945482 l 2.23465,-1.312253 0.7026,1.847968 c 0.90803,2.388307 3.19423,2.409507 4.74417,0.04399 1.35391,-2.066317 3.12531,-1.874794 5.88308,0.636077 3.8841,3.53635 4.78161,9.06966 2.26973,13.99335 -2.94735,5.77729 -8.73551,7.76025 -14.29612,4.8977 l 0,0 z"
       id="path3164"
       inkscape:connector-curvature="0"
       transform="translate(0,852.36218)" />
    <path
       style="fill:#008000;stroke:#000000;stroke-width:0.71428573"
       d="m 632.92802,162.15494 c -6.86963,-3.11752 -10.26936,-7.10001 -11.35122,-13.29696 -2.19697,-12.58435 5.20759,-21.82509 17.48833,-21.82509 6.23165,0 10.23422,1.64192 13.88624,5.69636 8.50141,9.43821 4.74149,24.99933 -7.11199,29.43428 -4.78588,1.79063 -8.95279,1.78786 -12.91136,-0.009 l 0,0 z"
       id="path3166"
       inkscape:connector-curvature="0"
       transform="translate(0,852.36218)" />
  </g>
</svg>
