<?xml version="1.0" encoding="UTF-8" standalone="no"?>
<!-- Created with Inkscape (http://www.inkscape.org/) -->

<svg
   xmlns:dc="http://purl.org/dc/elements/1.1/"
   xmlns:cc="http://creativecommons.org/ns#"
   xmlns:rdf="http://www.w3.org/1999/02/22-rdf-syntax-ns#"
   xmlns:svg="http://www.w3.org/2000/svg"
   xmlns="http://www.w3.org/2000/svg"
   xmlns:sodipodi="http://sodipodi.sourceforge.net/DTD/sodipodi-0.dtd"
   xmlns:inkscape="http://www.inkscape.org/namespaces/inkscape"
   width="800"
   height="200"
   id="svg2"
   version="1.1"
   inkscape:version="0.48.4 r9939"
   sodipodi:docname="SecondaryLogo.svg">
  <defs
     id="defs4" />
  <sodipodi:namedview
     id="base"
     pagecolor="#ffffff"
     bordercolor="#666666"
     borderopacity="1.0"
     inkscape:pageopacity="0"
     inkscape:pageshadow="2"
     inkscape:zoom="1.979899"
     inkscape:cx="376.02213"
     inkscape:cy="67.164503"
     inkscape:document-units="px"
     inkscape:current-layer="layer1"
     showgrid="false"
     width="800px"
     inkscape:window-width="1920"
     inkscape:window-height="1058"
     inkscape:window-x="1912"
     inkscape:window-y="-8"
     inkscape:window-maximized="1" />
  <metadata
     id="metadata7">
    <rdf:RDF>
      <cc:Work
         rdf:about="">
        <dc:format>image/svg+xml</dc:format>
        <dc:type
           rdf:resource="http://purl.org/dc/dcmitype/StillImage" />
        <dc:title />
      </cc:Work>
    </rdf:RDF>
  </metadata>
  <g
     inkscape:label="Layer 1"
     inkscape:groupmode="layer"
     id="layer1"
     transform="translate(0,-852.36218)">
    <path
       style="fill:none;stroke:#000000;stroke-width:1px;stroke-linecap:butt;stroke-linejoin:miter;stroke-opacity:1"
       d="M 6.5659915,7.5659402 7.0710678,193.43401 785.3936,192.42386 784.38345,117.67257 c 0,0 -9.0275,-31.489423 -13.63706,-37.375646 C 764.48633,72.303098 757.65637,64.267073 751.04842,56.558338 744.52366,48.946651 739.48931,47.260022 731.35044,41.406051 700.46118,19.188621 625.7895,8.0710162 625.7895,8.0710162 z"
       id="path3057"
       inkscape:connector-curvature="0"
       transform="translate(0,852.36218)"
       sodipodi:nodetypes="ccccssscc" />
    <path
       style="fill:none;stroke:#000000;stroke-width:1px;stroke-linecap:butt;stroke-linejoin:miter;stroke-opacity:1"
       d="m 17.67767,21.203 0.505076,160.61425 749.533184,-1.01015 0,-62.62946 -8.58629,-31.314725 C 756.60426,78.781694 739.43167,63.12433 739.43167,63.12433 c 0,0 -16.66752,-20.203051 -46.9721,-29.7995 0,0 -48.9924,-15.657364 -65.15484,-12.12183 z"
       id="path3059"
       inkscape:connector-curvature="0"
       transform="translate(0,852.36218)"
       sodipodi:nodetypes="ccccccccc" />
    <text
       xml:space="preserve"
       style="font-size:39.12921524px;font-style:normal;font-weight:normal;line-height:125%;letter-spacing:0px;word-spacing:0px;fill:#000000;fill-opacity:1;stroke:none;font-family:Sans"
       x="23.172323"
       y="977.08002"
       id="text3061"
       sodipodi:linespacing="125%"
       transform="scale(0.97823035,1.0222541)"><tspan
         sodipodi:role="line"
         id="tspan3063"
         x="23.172323"
         y="977.08002"
         style="font-size:140.86517334px;font-style:normal;font-variant:normal;font-weight:normal;font-stretch:normal;font-family:Poor Richard;-inkscape-font-specification:Poor Richard">ViridianForge</tspan></text>
    <path
       style="fill:#000000;stroke:#000000;stroke-width:0.50507629"
       d="M 7.6527505,124.72902 C 7.4680132,87.435454 7.316771,45.98417 7.3166568,32.615058 L 7.3164491,8.3075833 316.04432,8.5290889 l 308.72787,0.2215057 7.57615,1.2675034 c 33.1881,5.552428 66.7184,15.213989 85.78185,24.717551 7.52154,3.749647 23.99799,14.466353 28.26896,18.386854 6.31038,5.792557 23.79581,27.258773 25.9531,31.861649 1.93903,4.137161 5.52604,14.278319 8.72605,24.670108 l 2.49578,8.10496 0.56407,36.67802 c 0.31022,20.17291 0.44472,36.79738 0.2988,36.94327 -0.27536,0.27538 -477.53055,1.08179 -667.8142,1.1284 L 7.9886366,192.53551 7.6527505,124.72902 z m 675.3294795,56.88377 85.48416,-0.31486 0,-31.63058 0,-31.63059 -4.35143,-15.9099 C 761.7217,93.376414 759.30264,85.30782 758.73938,84.196652 754.99449,76.80474 736.45016,57.613094 724.52476,48.785386 717.32287,43.45424 707.07038,37.904866 698.51333,34.706152 684.28306,29.386752 658.86302,22.936552 643.75281,20.810963 640.12489,20.300617 17.53343,20.020689 17.024944,20.529175 c -0.11796,0.117961 -0.04546,36.623193 0.161118,81.122735 l 0.375591,80.90827 289.968207,-0.31627 c 159.48252,-0.17395 328.43609,-0.45795 375.45237,-0.63112 l 0,0 z"
       id="path3065"
       inkscape:connector-curvature="0"
       transform="translate(0,852.36218)" />
    <path
       style="fill:none;stroke:#000000;stroke-width:0.50507629"
       d="M 18.764723,122.2664 C 18.579859,89.938567 18.428499,54.113047 18.428367,42.654129 l -2.4e-4,-20.834396 305.949953,-0.126269 c 168.27247,-0.06945 308.22946,-0.07488 311.01556,-0.01207 9.44357,0.212891 26.7798,3.716972 46.95725,9.491209 25.79227,7.381058 37.97047,14.347897 56.01386,32.044136 10.12391,9.929114 16.42286,17.069367 18.62095,21.108053 0.76065,1.397541 3.20214,9.273554 5.65226,18.233778 l 4.3132,15.77356 0,30.72571 0,30.7257 -78.66563,0.31441 c -43.26609,0.17293 -211.53241,0.45659 -373.92516,0.63037 L 19.10084,181.04428 18.764723,122.2664 z m 648.686417,52.31049 c 5.56478,-1.30704 11.24471,-4.39492 15.10299,-8.21069 4.0546,-4.00997 5.9604,-7.61674 6.5316,-12.36134 1.1695,-9.71429 -3.15532,-18.92922 -11.49887,-24.50083 l -2.98374,-1.99245 2.20304,-2.16212 c 6.40805,-6.28901 6.13158,-16.83794 -0.61352,-23.40944 -2.4626,-2.399216 -7.164,-4.753872 -10.33052,-5.173918 -1.36083,-0.180525 -2.57473,-0.490773 -2.69751,-0.68944 -0.3924,-0.634946 2.59023,-3.097966 4.57988,-3.78197 1.17172,-0.402819 3.06086,-0.55769 4.83762,-0.396581 5.05652,0.458513 8.00101,-1.644023 8.00101,-5.713191 0,-2.382151 -0.83216,-3.565348 -2.86666,-4.075975 -2.26411,-0.568261 -9.36765,0.291429 -11.69767,1.415673 -2.44533,1.179894 -6.77444,6.077886 -8.5964,9.725946 -0.62831,1.258084 -1.31612,2.394809 -1.52851,2.526058 -0.21233,0.131249 -2.01495,0.578257 -4.00576,0.993354 -10.5468,2.199076 -16.9842,8.436784 -16.95965,16.433684 0.0152,4.99501 1.34163,8.31566 4.63811,11.61213 1.52392,1.52392 2.56488,2.83937 2.31335,2.92323 -1.63296,0.54432 -7.07132,4.64477 -8.98874,6.77739 -6.24042,6.94084 -7.77878,17.15293 -3.84898,25.55071 2.99273,6.39532 10.51271,12.09977 18.8198,14.27623 4.70877,1.2337 14.81777,1.35421 19.58913,0.23354 l 0,0 z M 262.13255,149.83401 c 1.6474,-0.42909 5.11629,-1.81881 7.70864,-3.08826 2.59235,-1.26945 4.75831,-2.22526 4.81325,-2.12402 0.0549,0.10124 0.45157,0.86593 0.8814,1.6993 0.70503,1.36695 1.0016,1.50634 3.03046,1.42435 8.07072,-0.32616 10.64524,-0.31615 13.13761,0.0511 3.26784,0.48151 4.51617,-0.28109 4.51617,-2.75892 0,-1.32367 -0.35067,-1.62717 -3.66181,-3.1692 -4.18807,-1.95044 -5.09818,-2.81482 -6.17388,-5.8637 -0.66708,-1.8907 -0.77129,-7.77181 -0.77373,-43.664021 -0.003,-40.394651 -0.15002,-44.677626 -1.56641,-45.553003 -0.28692,-0.177325 -4.9448,-0.372519 -10.35085,-0.433763 -10.34905,-0.117244 -11.81851,0.154462 -11.81851,2.185261 0,1.330414 1.47575,2.442075 4.7267,3.560568 3.59477,1.236781 5.63913,2.666746 6.77141,4.736382 0.80333,1.468365 0.88827,4.481382 1.0206,36.199403 0.14792,35.453383 -0.0334,39.809633 -1.80754,43.426503 -2.78746,5.68268 -14.7868,9.3098 -20.59461,6.22526 -2.92567,-1.55383 -5.59566,-4.72817 -7.7219,-9.18055 -1.80045,-3.77016 -1.8401,-3.98377 -1.8401,-9.9141 0,-5.7516 0.0806,-6.22846 1.57874,-9.34391 2.11235,-4.39264 4.68443,-7.23014 8.04364,-8.87364 2.46453,-1.20578 3.18938,-1.32978 6.42672,-1.09937 2.40097,0.17087 4.64703,0.71151 6.56747,1.58081 4.49584,2.03509 6.42532,1.63623 6.42532,-1.32822 0,-3.92923 -8.72476,-7.868037 -16.14226,-7.287452 -11.03188,0.863483 -20.62422,8.302852 -23.78611,18.447372 -1.44655,4.6411 -1.46058,11.74733 -0.0321,16.23817 2.53518,7.96981 10.61376,15.72682 18.70268,17.95822 3.23814,0.89328 8.37904,0.87146 11.91895,-0.0506 l 2e-5,0 z m 102.28418,-1.14041 c 1.5341,-0.53701 3.96985,-1.57464 5.41277,-2.30583 3.0064,-1.52345 3.66725,-1.62859 3.66725,-0.58345 0,0.41028 0.55609,1.11033 1.23576,1.55567 1.13484,0.74357 1.54016,0.74197 4.96346,-0.0197 3.40944,-0.75853 4.01844,-0.76191 7.13298,-0.0396 3.76228,0.87253 5.54147,0.65696 6.55819,-0.79462 1.39773,-1.99554 0.45023,-3.4309 -3.43292,-5.20051 -2.00467,-0.91356 -3.9762,-2.20269 -4.43158,-2.89769 -0.69816,-1.06552 -0.84614,-3.42807 -0.99355,-15.86234 -0.16675,-14.06611 -0.2167,-14.69865 -1.3407,-16.98058 -1.6915,-3.43405 -4.7584,-6.339076 -8.60137,-8.14738 -2.98305,-1.403668 -3.98154,-1.604481 -8.83529,-1.776965 -8.35363,-0.296853 -15.33819,1.447695 -18.77565,4.689645 -2.06914,1.95144 -2.36294,4.22767 -0.75345,5.83716 1.42113,1.42113 3.31369,1.25781 6.09326,-0.52583 5.10349,-3.2749 11.08965,-4.36816 14.99141,-2.7379 2.5046,1.04649 3.63097,2.12336 4.73446,4.52642 0.81121,1.76657 0.92912,3.44022 0.93882,13.32592 0.0131,13.3131 -0.22626,14.49025 -3.62251,17.81791 -4.2503,4.16447 -10.41126,5.08683 -15.84645,2.37236 -4.8741,-2.43424 -7.05973,-6.66119 -6.70356,-12.96446 0.32895,-5.82174 3.68303,-9.5572 9.71802,-10.82306 2.65914,-0.55776 3.17144,-0.51017 6.02414,0.55963 5.6219,2.10829 8.42115,1.89101 8.42115,-0.65367 0,-1.65973 -1.34298,-3.07306 -4.29315,-4.51804 -3.99242,-1.95547 -6.66946,-2.48665 -10.70301,-2.12369 -6.92092,0.62276 -11.59346,2.60696 -15.99766,6.7934 -3.62809,3.44871 -5.37078,7.41315 -5.37128,12.21912 -10e-4,10.32416 5.11418,16.85102 15.65697,19.97765 3.09462,0.91776 10.56036,0.53817 14.15349,-0.71963 l 0,10e-6 z m 365.84352,0.11957 c 3.8207,-0.97367 10.59696,-4.20081 12.88919,-6.13841 1.81691,-1.53581 2.24931,-3.52299 1.0746,-4.93847 -0.89327,-1.0763 -2.19107,-0.94625 -5.05874,0.50691 -6.65493,3.3723 -11.4425,4.48476 -16.11905,3.7455 -8.54837,-1.35131 -16.44367,-9.40762 -17.08815,-17.43658 -0.30011,-3.73892 0.53316,-8.53714 2.04834,-11.79485 1.34648,-2.89511 5.39219,-6.8929 8.96879,-8.86264 2.41633,-1.33076 3.2435,-1.51445 6.79429,-1.50885 6.68397,0.0106 11.13789,2.86921 13.87772,8.90718 1.34128,2.95577 1.36305,6.77701 0.0429,7.48365 -0.59529,0.31859 -5.69474,0.52284 -13.0537,0.52284 -11.24906,0 -12.13663,0.0662 -12.95051,0.96549 -1.23143,1.36072 -0.86206,3.64998 0.71721,4.44494 0.94606,0.47621 5.56897,0.62484 18.43528,0.5927 9.44493,-0.0236 17.72626,-0.19753 18.40301,-0.38651 1.6765,-0.4682 2.05581,-2.25749 1.48215,-6.99216 -0.64059,-5.28719 -3.06127,-10.36814 -6.81414,-14.3026 -5.27794,-5.533424 -12.18426,-7.859861 -22.08542,-7.439632 -8.55988,0.363301 -14.17764,2.777071 -20.30204,8.723102 -7.59519,7.37392 -9.40255,18.16201 -4.75868,28.40384 3.38689,7.46968 9.38932,12.83865 17.15507,15.34465 3.62503,1.1698 12.05551,1.25229 16.34209,0.1599 l -2.5e-4,0 z M 85.603271,105.88442 c 7.917071,-23.629104 14.820349,-44.051766 15.340609,-45.383698 1.07093,-2.741691 3.36788,-5.580392 5.31622,-6.570104 0.7227,-0.367108 2.6777,-0.828385 4.34445,-1.025058 4.13166,-0.487529 5.3033,-1.310882 5.3033,-3.726817 0,-1.05167 -0.29521,-2.315849 -0.65603,-2.809289 -0.88054,-1.204214 -3.58305,-1.695448 -6.66402,-1.211317 -5.43387,0.853858 -11.374047,1.035449 -14.399656,0.440197 -1.686364,-0.331772 -4.243651,-0.612343 -5.682866,-0.623491 -2.243963,-0.01738 -2.787622,0.178383 -3.816185,1.374158 -0.921526,1.07134 -1.127916,1.752012 -0.890772,2.937739 0.433693,2.168471 0.781772,2.391734 4.933186,3.164233 4.330241,0.805776 5.70123,1.962087 5.173764,4.363631 -0.458756,2.088687 -21.215123,64.203766 -21.80884,65.264676 -0.541033,0.96677 0.1493,2.74903 -14.710495,-37.978759 -4.985644,-13.664678 -9.211657,-25.513464 -9.391137,-26.330635 -0.249672,-1.136746 -0.04983,-1.807214 0.850728,-2.854174 0.9853,-1.14548 1.755799,-1.43194 4.729555,-1.758375 4.538056,-0.498153 5.636176,-1.099548 6.051655,-3.314238 0.501817,-2.674914 -0.668675,-4.071593 -4.045535,-4.827302 -2.425713,-0.54285 -3.505319,-0.484046 -8.549699,0.465684 -6.842238,1.288222 -8.868713,1.335458 -14.126864,0.329288 -4.820129,-0.922352 -9.442585,-0.977455 -10.585101,-0.126182 -0.46604,0.34724 -0.986678,1.341108 -1.156973,2.208596 -0.250816,1.277668 -0.03626,1.87777 1.129618,3.159437 1.185843,1.303617 1.986376,1.654733 4.546778,1.99423 3.639054,0.482521 5.277902,1.42895 6.951078,4.01422 0.66983,1.034973 8.301838,21.655505 16.960016,45.8234 8.658179,24.1679 16.078651,44.46639 16.489937,45.10775 0.571826,0.89169 1.126748,1.1294 2.3582,1.01015 l 1.610406,-0.15595 14.394673,-42.962 z M 560.8355,148.32067 c 5.10642,-1.20366 9.36618,-3.50607 12.89616,-6.9704 5.10188,-5.00698 7.42346,-10.74555 7.44654,-18.40651 0.007,-2.42106 -0.26092,-5.41897 -0.59604,-6.66202 -2.41517,-8.95867 -11.44068,-17.631103 -20.55822,-19.753974 -3.57725,-0.832911 -12.08582,-0.668918 -15.86551,0.305789 -11.15112,2.875651 -18.70752,12.110185 -19.50251,23.833705 -0.53255,7.85378 1.46124,13.70151 6.51271,19.10157 6.16188,6.58706 12.31952,9.3007 21.12512,9.30974 2.98677,0.003 6.71792,-0.32799 8.54175,-0.7579 l 0,0 z m -392.39972,-0.31968 c 3.4724,0.0847 7.67293,0.19593 9.33452,0.24718 2.56725,0.0792 3.04815,-0.0456 3.20145,-0.83066 0.41315,-2.11585 -0.37129,-3.27047 -2.8123,-4.13943 -1.32003,-0.46991 -3.0056,-1.07658 -3.74569,-1.34815 -1.95333,-0.71677 -2.64384,-2.83143 -2.26291,-6.93003 0.62732,-6.74981 4.12534,-16.47602 7.9616,-22.13721 0.89526,-1.32114 3.86179,-4.58366 6.59229,-7.25006 4.42901,-4.32501 4.96455,-5.04026 4.96455,-6.630415 0,-2.43415 -1.06329,-3.168808 -4.58628,-3.168808 -2.16538,0 -3.28278,0.271539 -4.34179,1.055089 -2.49534,1.846301 -5.11475,5.831664 -7.59923,11.562014 l -2.41306,5.56564 -0.29181,-4.60986 c -0.32392,-5.11701 -1.10208,-7.57777 -2.54071,-8.03437 -0.52587,-0.16691 -2.71744,-0.25119 -4.87018,-0.18729 -2.15273,0.0639 -5.31715,0.0551 -7.03205,-0.0196 -1.7149,-0.0747 -3.36271,0.0155 -3.66181,0.20031 -0.29909,0.18484 -0.5438,1.08846 -0.5438,2.00802 0,1.55201 0.20833,1.7627 2.90419,2.93709 5.12652,2.23326 4.90238,1.468 5.07344,17.32252 0.0819,7.59312 -0.0434,14.54816 -0.27861,15.45565 -0.34135,1.31733 -0.93144,1.88706 -2.92686,2.82591 -4.8224,2.26892 -5.02186,2.4138 -5.1798,3.76228 -0.26367,2.25102 1.51777,3.10091 5.4584,2.60411 1.80565,-0.22765 6.12405,-0.3446 9.59645,-0.2599 l 0,-3e-5 z m 431.84021,-0.0864 c 2.91682,-0.005 7.05501,0.17774 9.19603,0.40627 3.84373,0.41029 3.89994,0.39955 4.47134,-0.85455 0.86999,-1.90937 -0.0939,-3.1804 -3.33017,-4.39124 -1.53943,-0.57597 -2.98248,-1.04721 -3.20678,-1.04721 -0.22431,0 -0.81272,-0.44739 -1.30759,-0.9942 -1.95212,-2.15708 -0.67994,-11.44732 2.73574,-19.97753 2.65953,-6.64183 7.72418,-13.22862 13.77368,-17.91315 1.8451,-1.4288 2.65857,-4.359543 1.64105,-5.91244 -1.40694,-2.147271 -5.93096,-2.21236 -8.85894,-0.127456 -2.13031,1.516916 -4.98217,6.019236 -7.34048,11.588536 -1.05894,2.50079 -2.10485,4.54689 -2.32421,4.54689 -0.2194,0 -0.39926,-1.8751 -0.39971,-4.16688 0,-2.95502 -0.25759,-4.681 -0.88389,-5.93465 l -0.88307,-1.76776 -4.79823,-0.0597 c -2.63902,-0.0328 -6.09071,-0.12942 -7.67044,-0.21467 -3.33214,-0.17981 -4.57917,0.53792 -4.35067,2.50394 0.12238,1.05241 0.77423,1.60311 3.35779,2.83673 1.82505,0.87141 3.50341,2.068 3.89646,2.77792 1.03415,1.86787 1.03718,29.62031 0.005,31.09622 -0.39755,0.56759 -2.21582,1.66651 -4.04061,2.44206 -2.06526,0.87774 -3.34038,1.7223 -3.37765,2.23713 -0.22224,3.07169 0.90151,3.80046 5.11061,3.31421 1.80565,-0.20859 5.66948,-0.38342 8.5863,-0.3885 l -0.002,0 z m -128.12098,-0.90365 c 5.81629,-1.51985 13.79112,-1.52592 19.27705,-0.0146 4.77312,1.31489 6.67044,1.10078 7.1492,-0.80677 0.57947,-2.3088 -0.73408,-3.72113 -5.13841,-5.52482 -4.75972,-1.94924 -6.60718,-3.73365 -7.05299,-6.81227 -0.17351,-1.19824 -0.24642,-11.80162 -0.16202,-23.56307 l 0.15345,-21.384452 1.19238,-0.965175 c 1.09803,-0.888819 2.12894,-0.965191 13.02867,-0.965191 11.67608,0 11.85202,0.01571 12.9975,1.161201 0.75331,0.753316 1.27946,2.052705 1.49788,3.699203 0.37673,2.839984 1.06265,3.973117 2.69874,4.458344 0.74907,0.222153 1.42163,0.01833 2.06612,-0.626163 0.88314,-0.883146 0.95,-1.780914 0.88248,-11.850322 -0.0793,-11.81978 -0.23135,-12.499628 -2.7965,-12.499628 -1.7887,0 -2.5516,0.957489 -3.09946,3.890012 -0.24293,1.300379 -0.93462,2.889016 -1.53708,3.530306 -1.07858,1.148099 -1.26248,1.165969 -11.99275,1.165196 -13.00586,-9.39e-4 -14.04665,-0.280807 -15.0236,-4.039827 -0.76981,-2.96202 -0.85496,-19.022358 -0.11215,-21.153181 0.99644,-2.858393 2.12414,-3.09048 15.01649,-3.09048 13.30329,0 12.9567,-0.106874 14.7416,4.545686 1.58607,4.13424 2.31243,5.050763 4.00282,5.050763 2.27637,0 3.05489,-1.15631 3.05489,-4.537333 0,-3.797203 -1.31465,-10.680777 -2.1399,-11.204637 -0.35091,-0.222752 -13.25854,-0.408483 -28.68363,-0.412737 -31.27878,-0.0086 -30.2907,-0.115976 -30.2907,3.290932 0,1.400654 0.281,1.871466 1.49015,2.496741 0.81958,0.423822 2.58104,0.773935 3.91434,0.778031 1.33331,0.0041 2.99241,0.294515 3.68689,0.645377 2.69934,1.363749 2.70717,1.478468 2.9186,42.762063 0.10735,20.961371 0.0519,39.067211 -0.12328,40.235211 -0.42002,2.80096 -2.18138,4.49088 -5.74608,5.51309 -3.83461,1.0996 -5.13046,1.997 -5.13046,3.55291 0,1.66399 2.1194,3.75347 3.80723,3.75347 0.73027,0 3.18391,-0.48502 5.45253,-1.07783 z m -343.87279,0.0597 c 2.09487,-0.3506 4.82366,-0.33181 8.83883,0.0608 6.31675,0.61775 8.24718,0.28829 8.71136,-1.48673 0.44839,-1.71465 -0.73617,-3.27755 -2.97555,-3.92591 -3.37447,-0.977 -4.15117,-1.59814 -4.74199,-3.79227 -0.36636,-1.36055 -0.5151,-8.14586 -0.43654,-19.91319 0.0975,-14.5974 -0.008,-18.003 -0.58043,-18.692395 -0.59844,-0.721072 -1.33252,-0.79347 -5.076,-0.500626 -2.61404,0.204495 -5.62433,0.116066 -7.47537,-0.219592 -4.03649,-0.731957 -5.7855,-0.02727 -6.02149,2.426123 -0.21259,2.21013 0.46806,2.91763 3.71501,3.86155 4.38373,1.27438 4.2755,0.81951 4.26695,17.9326 -0.005,10.91937 -0.17676,15.25182 -0.63963,16.17633 -0.43444,0.86771 -1.49486,1.54955 -3.39005,2.17975 -3.38188,1.12457 -4.04409,1.64617 -4.04409,3.18539 0,2.99925 3.06834,3.84294 9.84899,2.70812 l 0,0 z m 78.59669,-0.0149 c 1.95658,-0.37965 4.44736,-0.35631 8.86956,0.0831 5.56046,0.55255 6.27348,0.52945 7.44987,-0.24136 0.89493,-0.58637 1.30091,-1.30232 1.30091,-2.29412 0,-1.7976 -0.64512,-2.34195 -3.68163,-3.10655 -4.54043,-1.14331 -4.39959,-0.44748 -4.39959,-21.73676 0,-13.45285 -0.16869,-18.96618 -0.60994,-19.934599 l -0.60993,-1.338659 -4.65328,0.348871 c -2.89055,0.216713 -5.68965,0.133719 -7.3891,-0.219082 -3.1136,-0.646381 -5.04133,-0.171862 -5.91217,1.455299 -1.00927,1.88585 -0.13934,3.44628 2.42959,4.35804 4.03698,1.4328 4.61604,1.84919 5.17364,3.72018 0.78932,2.64846 0.41393,29.72761 -0.43262,31.2082 -0.3774,0.66006 -1.51616,1.35376 -2.77792,1.69224 -4.05407,1.08754 -4.41117,1.33632 -4.41117,3.07319 0,3.35667 2.91011,4.2405 9.65378,2.93196 l 0,2e-5 z m 104.24092,0.0149 c 2.09487,-0.3506 4.82366,-0.33181 8.83883,0.0608 7.17462,0.70165 8.5863,0.33149 8.5863,-2.25139 0,-2.02543 -0.54335,-2.5612 -3.36146,-3.31455 -1.15431,-0.30858 -2.63166,-0.99231 -3.28299,-1.5194 l -1.18423,-0.95834 -0.25254,-19.61692 c -0.1389,-10.78931 -0.45179,-19.925899 -0.69531,-20.303534 -0.34894,-0.541103 -1.43761,-0.612031 -5.13695,-0.334679 -2.97589,0.223113 -5.72129,0.138709 -7.50017,-0.230587 -3.80638,-0.790202 -5.54311,-0.01788 -5.75974,2.56138 -0.18158,2.16189 0.28855,2.61903 3.94336,3.83435 1.89519,0.6302 2.95561,1.31204 3.39005,2.17975 0.46096,0.9207 0.63421,5.13165 0.63964,15.54732 0.009,17.05117 -0.0491,17.31539 -4.05937,18.50632 -3.30791,0.98235 -4.01441,1.57283 -4.01441,3.35521 0,2.81354 3.14358,3.60645 9.84899,2.48422 l 0,0 z m 98.85737,-0.26154 c 1.59108,-0.16799 5.48805,-0.0208 8.65992,0.32715 5.24241,0.57505 5.88668,0.5542 7.08237,-0.22925 2.57147,-1.68489 1.37125,-4.27946 -2.47273,-5.34545 -4.33593,-1.20241 -4.04061,0.36175 -4.04061,-21.40125 0,-15.23596 -0.14294,-19.54718 -0.67933,-20.48907 -0.66194,-1.162327 -0.79896,-1.183914 -5.3492,-0.84277 -3.00457,0.225259 -5.4307,0.14524 -6.80342,-0.224395 -2.66167,-0.716714 -5.22072,0.0084 -5.99028,1.697415 -0.87924,1.92972 0.23083,3.36498 3.39754,4.39281 1.51693,0.49236 3.0511,1.29595 3.40926,1.78577 0.49807,0.68114 0.65062,4.52038 0.6487,16.32514 -0.003,15.23735 -0.017,15.45265 -1.13642,16.84961 -0.73694,0.91965 -1.92264,1.59199 -3.38687,1.92048 -1.23913,0.27799 -2.54601,0.74865 -2.90419,1.04591 -0.83207,0.69057 -0.84491,3.16631 -0.0199,3.83613 1.33897,1.08706 2.29035,1.12198 9.58514,0.35177 l 2e-5,0 z m 46.25132,-0.38171 c 0.36128,-0.28876 0.58857,-1.10282 0.50508,-1.80902 -0.1233,-1.04283 -0.67302,-1.48233 -2.92668,-2.33989 -1.7823,-0.6782 -2.99914,-1.49904 -3.40182,-2.29476 -0.45902,-0.90706 -0.62969,-5.50023 -0.63721,-17.14878 -0.006,-9.90338 -0.21861,-16.67264 -0.56212,-17.93021 -1.92081,-7.031925 -9.32152,-9.304576 -17.38031,-5.337247 -4.58851,2.258917 -10.85154,8.300967 -10.85154,10.468647 0,1.76191 0.80077,2.69728 2.30913,2.69728 0.60333,0 3.07854,-1.47735 5.50048,-3.28299 4.4352,-3.30663 5.90873,-3.81566 7.92371,-2.73727 2.07092,1.10832 2.26663,2.90166 1.97097,18.06074 l -0.27916,14.31333 -1.41503,1.21597 c -0.77827,0.66878 -2.32084,1.36081 -3.42794,1.53784 -3.10277,0.49616 -4.37885,2.83428 -2.54677,4.66636 0.8832,0.8832 1.70497,0.92795 12.75318,0.69453 7.02329,-0.14839 12.07536,-0.46228 12.46603,-0.77453 l 0,0 z M 136.61597,88.523368 c 1.89377,-1.325906 3.53694,-4.025498 3.52445,-5.790366 -0.0275,-3.885981 -3.03411,-7.450511 -6.90079,-8.181362 -5.06606,-0.957554 -9.62337,4.402917 -8.18183,9.623744 1.35014,4.889789 7.48701,7.198372 11.55817,4.347984 z m 78.43543,0.122314 c 3.30844,-1.664423 4.47667,-6.991639 2.25051,-10.262543 -2.55769,-3.758025 -5.95348,-4.84998 -9.5972,-3.086082 -3.75983,1.820098 -5.34728,5.995073 -3.72615,9.799702 1.83103,4.297214 6.56775,5.815367 11.07284,3.548923 z m 102.12934,0.804395 c 6.85149,-1.862903 7.53585,-10.933224 1.06139,-14.067455 -2.41042,-1.166863 -3.64434,-1.274606 -5.70046,-0.497748 -3.49268,1.319623 -5.56861,4.936348 -4.94658,8.618056 0.41933,2.481985 3.47769,5.81316 5.63418,6.136753 0.78435,0.117698 1.53973,0.24678 1.67863,0.286853 0.13889,0.04005 1.16167,-0.174333 2.27284,-0.476459 l 0,0 z"
       id="path3067"
       inkscape:connector-curvature="0"
       transform="translate(0,852.36218)" />
    <path
       style="fill:none;stroke:#000000;stroke-width:0.50507629"
       d="m 548.69876,141.86598 c -1.00498,-0.3758 -2.63689,-1.18368 -3.62649,-1.79528 -10.68941,-6.60642 -11.16073,-28.05145 -0.76988,-35.03002 2.83188,-1.90191 5.5239,-2.54314 9.74461,-2.32114 6.26541,0.32956 11.08299,3.75264 14.09341,10.01392 1.51114,3.14296 1.57804,3.5523 1.56838,9.59645 -0.0116,7.26089 -0.89958,10.3075 -4.23264,14.522 -2.78996,3.52777 -6.38934,5.31293 -11.14275,5.52637 -2.37209,0.10652 -4.49625,-0.0866 -5.63464,-0.5123 l 0,0 z"
       id="path3069"
       inkscape:connector-curvature="0"
       transform="translate(0,852.36218)" />
    <path
       style="fill:none;stroke:#000000;stroke-width:0.50507629"
       d="m 652.90429,124.55817 c -4.30769,-2.14661 -7.15982,-6.26667 -7.16862,-10.35548 -0.004,-1.97808 1.25417,-5.74884 2.50466,-7.505 1.00934,-1.41748 4.32237,-3.56068 5.50422,-3.56068 0.26168,0 0.71348,0.68186 1.004,1.51523 0.45041,1.29206 0.78704,1.51523 2.28559,1.51523 1.66386,0 3.37427,-1.3477 3.96694,-3.12573 0.27196,-0.81588 3.58858,0.51302 5.77188,2.31268 1.96536,1.62002 4.20082,5.82598 4.20878,7.91872 0.0115,3.02981 -1.57077,6.64003 -3.9474,9.00652 -3.85703,3.84057 -9.25021,4.71024 -14.13005,2.27851 l 0,0 z"
       id="path3071"
       inkscape:connector-curvature="0"
       transform="translate(0,852.36218)" />
    <path
       style="fill:none;stroke:#000000;stroke-width:0.50507629"
       d="m 652.85677,168.53611 c -4.15374,-1.16791 -7.43412,-3.18176 -10.39866,-6.38381 -3.22659,-3.48511 -4.37659,-6.51906 -4.36083,-11.50487 0.0195,-6.15923 1.72217,-10.34557 5.65177,-13.89573 2.7451,-2.48004 5.51705,-3.67121 10.25858,-4.40836 9.65784,-1.50147 18.58018,2.44315 22.41304,9.90895 1.71816,3.3467 2.15727,9.88785 0.93764,13.96737 -1.53733,5.14219 -5.85305,9.49739 -11.56016,11.66592 -3.45527,1.3129 -9.50419,1.61696 -12.94138,0.65053 z"
       id="path3073"
       inkscape:connector-curvature="0"
       transform="translate(0,852.36218)" />
  </g>
</svg>
